G04 #@! TF.GenerationSoftware,KiCad,Pcbnew,5.0.0-rc3-unknown-eaf938c~65~ubuntu16.04.1*
G04 #@! TF.CreationDate,2018-07-22T11:01:41+02:00*
G04 #@! TF.ProjectId,reservoir_controller,7265736572766F69725F636F6E74726F,rev?*
G04 #@! TF.SameCoordinates,Original*
G04 #@! TF.FileFunction,Paste,Top*
G04 #@! TF.FilePolarity,Positive*
%FSLAX46Y46*%
G04 Gerber Fmt 4.6, Leading zero omitted, Abs format (unit mm)*
G04 Created by KiCad (PCBNEW 5.0.0-rc3-unknown-eaf938c~65~ubuntu16.04.1) date Sun Jul 22 11:01:41 2018*
%MOMM*%
%LPD*%
G01*
G04 APERTURE LIST*
%ADD10R,3.000000X7.500000*%
%ADD11R,0.705000X0.705000*%
%ADD12R,1.550000X0.600000*%
%ADD13R,0.797560X0.797560*%
%ADD14R,1.700000X1.000000*%
%ADD15R,2.550000X2.500000*%
%ADD16R,2.550000X2.700000*%
%ADD17R,1.800000X2.500000*%
%ADD18R,0.900000X0.500000*%
%ADD19R,0.500000X0.900000*%
%ADD20R,0.450000X0.600000*%
%ADD21R,0.750000X0.800000*%
%ADD22O,2.400000X1.100000*%
%ADD23R,1.100000X2.400000*%
%ADD24O,1.100000X2.400000*%
%ADD25R,1.680000X1.710000*%
%ADD26R,2.200000X1.200000*%
%ADD27R,3.050000X2.750000*%
G04 APERTURE END LIST*
D10*
G04 #@! TO.C,L1*
X40346000Y-26035000D03*
X35346000Y-26035000D03*
G04 #@! TD*
D11*
G04 #@! TO.C,U4*
X37258500Y-32178500D03*
X37258500Y-33353500D03*
X38433500Y-32178500D03*
X38433500Y-33353500D03*
D12*
X40546000Y-30861000D03*
X40546000Y-32131000D03*
X40546000Y-33401000D03*
X40546000Y-34671000D03*
X35146000Y-34671000D03*
X35146000Y-33401000D03*
X35146000Y-32131000D03*
X35146000Y-30861000D03*
G04 #@! TD*
D13*
G04 #@! TO.C,D3*
X25209500Y-27190700D03*
X25209500Y-28689300D03*
G04 #@! TD*
G04 #@! TO.C,D1*
X29972000Y-18554700D03*
X29972000Y-20053300D03*
G04 #@! TD*
G04 #@! TO.C,D4*
X29972000Y-11442700D03*
X29972000Y-12941300D03*
G04 #@! TD*
G04 #@! TO.C,D6*
X29972000Y-4330700D03*
X29972000Y-5829300D03*
G04 #@! TD*
G04 #@! TO.C,D8*
X17589500Y-27190700D03*
X17589500Y-28689300D03*
G04 #@! TD*
G04 #@! TO.C,D9*
X21399500Y-27190700D03*
X21399500Y-28689300D03*
G04 #@! TD*
D14*
G04 #@! TO.C,SW3*
X34350000Y-45140000D03*
X41650000Y-45140000D03*
X34350000Y-48840000D03*
X41650000Y-48840000D03*
G04 #@! TD*
G04 #@! TO.C,SW1*
X8350000Y-45140000D03*
X15650000Y-45140000D03*
X8350000Y-48840000D03*
X15650000Y-48840000D03*
G04 #@! TD*
G04 #@! TO.C,SW2*
X28650000Y-48840000D03*
X21350000Y-48840000D03*
X28650000Y-45140000D03*
X21350000Y-45140000D03*
G04 #@! TD*
D15*
G04 #@! TO.C,C4*
X39639000Y-38100000D03*
X44689000Y-38100000D03*
G04 #@! TD*
D16*
G04 #@! TO.C,C5*
X36068000Y-38100000D03*
X29718000Y-38100000D03*
G04 #@! TD*
D17*
G04 #@! TO.C,D10*
X43942000Y-34131000D03*
X43942000Y-30131000D03*
G04 #@! TD*
D18*
G04 #@! TO.C,R1*
X12446000Y-27420000D03*
X12446000Y-25920000D03*
G04 #@! TD*
G04 #@! TO.C,R2*
X18415000Y-5703000D03*
X18415000Y-4203000D03*
G04 #@! TD*
G04 #@! TO.C,R3*
X28448000Y-15506000D03*
X28448000Y-17006000D03*
G04 #@! TD*
G04 #@! TO.C,R4*
X29972000Y-17006000D03*
X29972000Y-15506000D03*
G04 #@! TD*
D19*
G04 #@! TO.C,R5*
X32436500Y-45148500D03*
X30936500Y-45148500D03*
G04 #@! TD*
G04 #@! TO.C,R6*
X30936500Y-48196500D03*
X32436500Y-48196500D03*
G04 #@! TD*
G04 #@! TO.C,R7*
X17855500Y-46672500D03*
X19355500Y-46672500D03*
G04 #@! TD*
G04 #@! TO.C,R8*
X19355500Y-45148500D03*
X17855500Y-45148500D03*
G04 #@! TD*
G04 #@! TO.C,R9*
X32436500Y-46672500D03*
X30936500Y-46672500D03*
G04 #@! TD*
D18*
G04 #@! TO.C,R10*
X26797000Y-27190000D03*
X26797000Y-28690000D03*
G04 #@! TD*
G04 #@! TO.C,R13*
X28448000Y-9894000D03*
X28448000Y-8394000D03*
G04 #@! TD*
G04 #@! TO.C,R14*
X29972000Y-8394000D03*
X29972000Y-9894000D03*
G04 #@! TD*
G04 #@! TO.C,R15*
X28448000Y-2782000D03*
X28448000Y-1282000D03*
G04 #@! TD*
G04 #@! TO.C,R16*
X29972000Y-1282000D03*
X29972000Y-2782000D03*
G04 #@! TD*
G04 #@! TO.C,R19*
X19177000Y-27190000D03*
X19177000Y-28690000D03*
G04 #@! TD*
G04 #@! TO.C,R20*
X22987000Y-28690000D03*
X22987000Y-27190000D03*
G04 #@! TD*
D20*
G04 #@! TO.C,D2*
X45339000Y-26894500D03*
X45339000Y-24794500D03*
G04 #@! TD*
G04 #@! TO.C,D5*
X45339000Y-16412500D03*
X45339000Y-18512500D03*
G04 #@! TD*
G04 #@! TO.C,D7*
X45339000Y-10829000D03*
X45339000Y-8729000D03*
G04 #@! TD*
D21*
G04 #@! TO.C,C1*
X43180000Y-26594500D03*
X43180000Y-25094500D03*
G04 #@! TD*
G04 #@! TO.C,C2*
X43180000Y-18212500D03*
X43180000Y-16712500D03*
G04 #@! TD*
G04 #@! TO.C,C3*
X43180000Y-9029000D03*
X43180000Y-10529000D03*
G04 #@! TD*
D22*
G04 #@! TO.C,U1*
X24226201Y-20829000D03*
X24226201Y-18829000D03*
X24226201Y-16829000D03*
X24226201Y-14829000D03*
X24226201Y-12829000D03*
X24226201Y-10829000D03*
D23*
X8476201Y-23819000D03*
D24*
X10476201Y-23819000D03*
X12476201Y-23819000D03*
X14476201Y-23819000D03*
X16476201Y-23819000D03*
X18476201Y-23819000D03*
X20476201Y-23819000D03*
X22476201Y-23819000D03*
X22476201Y-7819000D03*
X20476201Y-7819000D03*
X18476201Y-7819000D03*
X16476201Y-7819000D03*
X14476201Y-7819000D03*
X12476201Y-7819000D03*
X10476201Y-7819000D03*
X8476201Y-7819000D03*
G04 #@! TD*
D19*
G04 #@! TO.C,R11*
X9576500Y-36512500D03*
X8076500Y-36512500D03*
G04 #@! TD*
G04 #@! TO.C,R12*
X10743500Y-36512500D03*
X12243500Y-36512500D03*
G04 #@! TD*
G04 #@! TO.C,R17*
X8076500Y-29527500D03*
X9576500Y-29527500D03*
G04 #@! TD*
G04 #@! TO.C,R18*
X12243500Y-29527500D03*
X10743500Y-29527500D03*
G04 #@! TD*
D25*
G04 #@! TO.C,U2*
X5460000Y-38100000D03*
X5460000Y-40640000D03*
X14860000Y-40640000D03*
X14860000Y-38100000D03*
G04 #@! TD*
G04 #@! TO.C,U3*
X14860000Y-31115000D03*
X14860000Y-33655000D03*
X5460000Y-33655000D03*
X5460000Y-31115000D03*
G04 #@! TD*
D26*
G04 #@! TO.C,Q1*
X32249000Y-15500000D03*
X32249000Y-20060000D03*
D27*
X40224000Y-19305000D03*
X36874000Y-16255000D03*
X40224000Y-16255000D03*
X36874000Y-19305000D03*
G04 #@! TD*
G04 #@! TO.C,Q2*
X36874000Y-12193000D03*
X40224000Y-9143000D03*
X36874000Y-9143000D03*
X40224000Y-12193000D03*
D26*
X32249000Y-12948000D03*
X32249000Y-8388000D03*
G04 #@! TD*
D27*
G04 #@! TO.C,Q3*
X36874000Y-5081000D03*
X40224000Y-2031000D03*
X36874000Y-2031000D03*
X40224000Y-5081000D03*
D26*
X32249000Y-5836000D03*
X32249000Y-1276000D03*
G04 #@! TD*
M02*
