G04 #@! TF.GenerationSoftware,KiCad,Pcbnew,5.0.0-rc3-unknown-eaf938c~65~ubuntu16.04.1*
G04 #@! TF.CreationDate,2018-07-22T11:01:41+02:00*
G04 #@! TF.ProjectId,reservoir_controller,7265736572766F69725F636F6E74726F,rev?*
G04 #@! TF.SameCoordinates,Original*
G04 #@! TF.FileFunction,Legend,Bot*
G04 #@! TF.FilePolarity,Positive*
%FSLAX46Y46*%
G04 Gerber Fmt 4.6, Leading zero omitted, Abs format (unit mm)*
G04 Created by KiCad (PCBNEW 5.0.0-rc3-unknown-eaf938c~65~ubuntu16.04.1) date Sun Jul 22 11:01:41 2018*
%MOMM*%
%LPD*%
G01*
G04 APERTURE LIST*
%ADD10C,0.200000*%
%ADD11C,0.150000*%
%ADD12C,0.010000*%
G04 APERTURE END LIST*
D10*
X42495785Y-2230380D02*
X42495785Y-1230380D01*
X42067214Y-2230380D02*
X42067214Y-1706571D01*
X42114833Y-1611333D01*
X42210071Y-1563714D01*
X42352928Y-1563714D01*
X42448166Y-1611333D01*
X42495785Y-1658952D01*
X41733880Y-1563714D02*
X41352928Y-1563714D01*
X41591023Y-1230380D02*
X41591023Y-2087523D01*
X41543404Y-2182761D01*
X41448166Y-2230380D01*
X41352928Y-2230380D01*
X41162452Y-1563714D02*
X40781500Y-1563714D01*
X41019595Y-1230380D02*
X41019595Y-2087523D01*
X40971976Y-2182761D01*
X40876738Y-2230380D01*
X40781500Y-2230380D01*
X40448166Y-1563714D02*
X40448166Y-2563714D01*
X40448166Y-1611333D02*
X40352928Y-1563714D01*
X40162452Y-1563714D01*
X40067214Y-1611333D01*
X40019595Y-1658952D01*
X39971976Y-1754190D01*
X39971976Y-2039904D01*
X40019595Y-2135142D01*
X40067214Y-2182761D01*
X40162452Y-2230380D01*
X40352928Y-2230380D01*
X40448166Y-2182761D01*
X39591023Y-2182761D02*
X39495785Y-2230380D01*
X39305309Y-2230380D01*
X39210071Y-2182761D01*
X39162452Y-2087523D01*
X39162452Y-2039904D01*
X39210071Y-1944666D01*
X39305309Y-1897047D01*
X39448166Y-1897047D01*
X39543404Y-1849428D01*
X39591023Y-1754190D01*
X39591023Y-1706571D01*
X39543404Y-1611333D01*
X39448166Y-1563714D01*
X39305309Y-1563714D01*
X39210071Y-1611333D01*
X38733880Y-2135142D02*
X38686261Y-2182761D01*
X38733880Y-2230380D01*
X38781500Y-2182761D01*
X38733880Y-2135142D01*
X38733880Y-2230380D01*
X38733880Y-1611333D02*
X38686261Y-1658952D01*
X38733880Y-1706571D01*
X38781500Y-1658952D01*
X38733880Y-1611333D01*
X38733880Y-1706571D01*
X37543404Y-1182761D02*
X38400547Y-2468476D01*
X36495785Y-1182761D02*
X37352928Y-2468476D01*
X36162452Y-2230380D02*
X36162452Y-1230380D01*
X36162452Y-1611333D02*
X36067214Y-1563714D01*
X35876738Y-1563714D01*
X35781500Y-1611333D01*
X35733880Y-1658952D01*
X35686261Y-1754190D01*
X35686261Y-2039904D01*
X35733880Y-2135142D01*
X35781500Y-2182761D01*
X35876738Y-2230380D01*
X36067214Y-2230380D01*
X36162452Y-2182761D01*
X35114833Y-2230380D02*
X35210071Y-2182761D01*
X35257690Y-2087523D01*
X35257690Y-1230380D01*
X34591023Y-2230380D02*
X34686261Y-2182761D01*
X34733880Y-2135142D01*
X34781500Y-2039904D01*
X34781500Y-1754190D01*
X34733880Y-1658952D01*
X34686261Y-1611333D01*
X34591023Y-1563714D01*
X34448166Y-1563714D01*
X34352928Y-1611333D01*
X34305309Y-1658952D01*
X34257690Y-1754190D01*
X34257690Y-2039904D01*
X34305309Y-2135142D01*
X34352928Y-2182761D01*
X34448166Y-2230380D01*
X34591023Y-2230380D01*
X33400547Y-1563714D02*
X33400547Y-2373238D01*
X33448166Y-2468476D01*
X33495785Y-2516095D01*
X33591023Y-2563714D01*
X33733880Y-2563714D01*
X33829119Y-2516095D01*
X33400547Y-2182761D02*
X33495785Y-2230380D01*
X33686261Y-2230380D01*
X33781500Y-2182761D01*
X33829119Y-2135142D01*
X33876738Y-2039904D01*
X33876738Y-1754190D01*
X33829119Y-1658952D01*
X33781500Y-1611333D01*
X33686261Y-1563714D01*
X33495785Y-1563714D01*
X33400547Y-1611333D01*
X32924357Y-2135142D02*
X32876738Y-2182761D01*
X32924357Y-2230380D01*
X32971976Y-2182761D01*
X32924357Y-2135142D01*
X32924357Y-2230380D01*
X32019595Y-2230380D02*
X32019595Y-1706571D01*
X32067214Y-1611333D01*
X32162452Y-1563714D01*
X32352928Y-1563714D01*
X32448166Y-1611333D01*
X32019595Y-2182761D02*
X32114833Y-2230380D01*
X32352928Y-2230380D01*
X32448166Y-2182761D01*
X32495785Y-2087523D01*
X32495785Y-1992285D01*
X32448166Y-1897047D01*
X32352928Y-1849428D01*
X32114833Y-1849428D01*
X32019595Y-1801809D01*
X31400547Y-2230380D02*
X31495785Y-2182761D01*
X31543404Y-2087523D01*
X31543404Y-1230380D01*
X30638642Y-2182761D02*
X30733880Y-2230380D01*
X30924357Y-2230380D01*
X31019595Y-2182761D01*
X31067214Y-2087523D01*
X31067214Y-1706571D01*
X31019595Y-1611333D01*
X30924357Y-1563714D01*
X30733880Y-1563714D01*
X30638642Y-1611333D01*
X30591023Y-1706571D01*
X30591023Y-1801809D01*
X31067214Y-1897047D01*
X30257690Y-2230380D02*
X29733880Y-1563714D01*
X30257690Y-1563714D02*
X29733880Y-2230380D01*
X28924357Y-2230380D02*
X28924357Y-1706571D01*
X28971976Y-1611333D01*
X29067214Y-1563714D01*
X29257690Y-1563714D01*
X29352928Y-1611333D01*
X28924357Y-2182761D02*
X29019595Y-2230380D01*
X29257690Y-2230380D01*
X29352928Y-2182761D01*
X29400547Y-2087523D01*
X29400547Y-1992285D01*
X29352928Y-1897047D01*
X29257690Y-1849428D01*
X29019595Y-1849428D01*
X28924357Y-1801809D01*
X28448166Y-1563714D02*
X28448166Y-2230380D01*
X28448166Y-1658952D02*
X28400547Y-1611333D01*
X28305309Y-1563714D01*
X28162452Y-1563714D01*
X28067214Y-1611333D01*
X28019595Y-1706571D01*
X28019595Y-2230380D01*
X27114833Y-2230380D02*
X27114833Y-1230380D01*
X27114833Y-2182761D02*
X27210071Y-2230380D01*
X27400547Y-2230380D01*
X27495785Y-2182761D01*
X27543404Y-2135142D01*
X27591023Y-2039904D01*
X27591023Y-1754190D01*
X27543404Y-1658952D01*
X27495785Y-1611333D01*
X27400547Y-1563714D01*
X27210071Y-1563714D01*
X27114833Y-1611333D01*
X26257690Y-2182761D02*
X26352928Y-2230380D01*
X26543404Y-2230380D01*
X26638642Y-2182761D01*
X26686261Y-2087523D01*
X26686261Y-1706571D01*
X26638642Y-1611333D01*
X26543404Y-1563714D01*
X26352928Y-1563714D01*
X26257690Y-1611333D01*
X26210071Y-1706571D01*
X26210071Y-1801809D01*
X26686261Y-1897047D01*
X25781500Y-2230380D02*
X25781500Y-1563714D01*
X25781500Y-1754190D02*
X25733880Y-1658952D01*
X25686261Y-1611333D01*
X25591023Y-1563714D01*
X25495785Y-1563714D01*
X25162452Y-1849428D02*
X24400547Y-1849428D01*
X24067214Y-1563714D02*
X23686261Y-1563714D01*
X23924357Y-1230380D02*
X23924357Y-2087523D01*
X23876738Y-2182761D01*
X23781500Y-2230380D01*
X23686261Y-2230380D01*
X22924357Y-1563714D02*
X22924357Y-2230380D01*
X23352928Y-1563714D02*
X23352928Y-2087523D01*
X23305309Y-2182761D01*
X23210071Y-2230380D01*
X23067214Y-2230380D01*
X22971976Y-2182761D01*
X22924357Y-2135142D01*
X22543404Y-2230380D02*
X22019595Y-1563714D01*
X22543404Y-1563714D02*
X22019595Y-2230380D01*
X21257690Y-2182761D02*
X21352928Y-2230380D01*
X21543404Y-2230380D01*
X21638642Y-2182761D01*
X21686261Y-2087523D01*
X21686261Y-1706571D01*
X21638642Y-1611333D01*
X21543404Y-1563714D01*
X21352928Y-1563714D01*
X21257690Y-1611333D01*
X21210071Y-1706571D01*
X21210071Y-1801809D01*
X21686261Y-1897047D01*
X20781500Y-1563714D02*
X20781500Y-2230380D01*
X20781500Y-1658952D02*
X20733880Y-1611333D01*
X20638642Y-1563714D01*
X20495785Y-1563714D01*
X20400547Y-1611333D01*
X20352928Y-1706571D01*
X20352928Y-2230380D01*
X19876738Y-2135142D02*
X19829119Y-2182761D01*
X19876738Y-2230380D01*
X19924357Y-2182761D01*
X19876738Y-2135142D01*
X19876738Y-2230380D01*
X18971976Y-2230380D02*
X18971976Y-1230380D01*
X18971976Y-2182761D02*
X19067214Y-2230380D01*
X19257690Y-2230380D01*
X19352928Y-2182761D01*
X19400547Y-2135142D01*
X19448166Y-2039904D01*
X19448166Y-1754190D01*
X19400547Y-1658952D01*
X19352928Y-1611333D01*
X19257690Y-1563714D01*
X19067214Y-1563714D01*
X18971976Y-1611333D01*
X18114833Y-2182761D02*
X18210071Y-2230380D01*
X18400547Y-2230380D01*
X18495785Y-2182761D01*
X18543404Y-2087523D01*
X18543404Y-1706571D01*
X18495785Y-1611333D01*
X18400547Y-1563714D01*
X18210071Y-1563714D01*
X18114833Y-1611333D01*
X18067214Y-1706571D01*
X18067214Y-1801809D01*
X18543404Y-1897047D01*
X16924357Y-1182761D02*
X17781500Y-2468476D01*
X44894595Y-9318642D02*
X46418404Y-9318642D01*
X46926500Y-10668000D02*
X44386500Y-10668000D01*
X44386500Y-13208000D02*
X46926500Y-13208000D01*
X44958095Y-11922142D02*
X46481904Y-11922142D01*
X45720000Y-11160238D02*
X45720000Y-12684047D01*
X46926500Y-13208000D02*
X46926500Y-8128000D01*
X46926500Y-8128000D02*
X44386500Y-8128000D01*
X44386500Y-8128000D02*
X44386500Y-13208000D01*
X44958095Y-19542142D02*
X46481904Y-19542142D01*
X45720000Y-18780238D02*
X45720000Y-20304047D01*
X46926500Y-20828000D02*
X46926500Y-15748000D01*
X44894595Y-16938642D02*
X46418404Y-16938642D01*
X44386500Y-20828000D02*
X46926500Y-20828000D01*
X46926500Y-18288000D02*
X44386500Y-18288000D01*
X46926500Y-15748000D02*
X44386500Y-15748000D01*
X44386500Y-15748000D02*
X44386500Y-20828000D01*
X46926500Y-23368000D02*
X44386500Y-23368000D01*
X44958095Y-27162142D02*
X46481904Y-27162142D01*
X45720000Y-26400238D02*
X45720000Y-27924047D01*
X46926500Y-28448000D02*
X46926500Y-23368000D01*
X44386500Y-23368000D02*
X44386500Y-28448000D01*
X44894595Y-24558642D02*
X46418404Y-24558642D01*
X46926500Y-25908000D02*
X44386500Y-25908000D01*
X44386500Y-28448000D02*
X46926500Y-28448000D01*
X44450000Y-38608000D02*
X46990000Y-38608000D01*
X44450000Y-36068000D02*
X44450000Y-41148000D01*
X46990000Y-36068000D02*
X44450000Y-36068000D01*
X46990000Y-41148000D02*
X46990000Y-36068000D01*
X44450000Y-41148000D02*
X46990000Y-41148000D01*
X9421500Y-35567880D02*
X9421500Y-34567880D01*
X8945309Y-34901214D02*
X8945309Y-35567880D01*
X8945309Y-34996452D02*
X8897690Y-34948833D01*
X8802452Y-34901214D01*
X8659595Y-34901214D01*
X8564357Y-34948833D01*
X8516738Y-35044071D01*
X8516738Y-35567880D01*
X8040547Y-34901214D02*
X8040547Y-35901214D01*
X8040547Y-34948833D02*
X7945309Y-34901214D01*
X7754833Y-34901214D01*
X7659595Y-34948833D01*
X7611976Y-34996452D01*
X7564357Y-35091690D01*
X7564357Y-35377404D01*
X7611976Y-35472642D01*
X7659595Y-35520261D01*
X7754833Y-35567880D01*
X7945309Y-35567880D01*
X8040547Y-35520261D01*
X6707214Y-34901214D02*
X6707214Y-35567880D01*
X7135785Y-34901214D02*
X7135785Y-35425023D01*
X7088166Y-35520261D01*
X6992928Y-35567880D01*
X6850071Y-35567880D01*
X6754833Y-35520261D01*
X6707214Y-35472642D01*
X6373880Y-34901214D02*
X5992928Y-34901214D01*
X6231023Y-34567880D02*
X6231023Y-35425023D01*
X6183404Y-35520261D01*
X6088166Y-35567880D01*
X5992928Y-35567880D01*
X4945309Y-34663119D02*
X4897690Y-34615500D01*
X4802452Y-34567880D01*
X4564357Y-34567880D01*
X4469119Y-34615500D01*
X4421500Y-34663119D01*
X4373880Y-34758357D01*
X4373880Y-34853595D01*
X4421500Y-34996452D01*
X4992928Y-35567880D01*
X4373880Y-35567880D01*
D11*
G36*
X4254500Y-41021000D02*
X4254500Y-36258500D01*
X27813000Y-36258500D01*
X27813000Y-41021000D01*
X4254500Y-41021000D01*
G37*
X4254500Y-41021000D02*
X4254500Y-36258500D01*
X27813000Y-36258500D01*
X27813000Y-41021000D01*
X4254500Y-41021000D01*
G36*
X4254500Y-33401000D02*
X4254500Y-28638500D01*
X27813000Y-28638500D01*
X27813000Y-33401000D01*
X4254500Y-33401000D01*
G37*
X4254500Y-33401000D02*
X4254500Y-28638500D01*
X27813000Y-28638500D01*
X27813000Y-33401000D01*
X4254500Y-33401000D01*
D10*
X9421500Y-27947880D02*
X9421500Y-26947880D01*
X8945309Y-27281214D02*
X8945309Y-27947880D01*
X8945309Y-27376452D02*
X8897690Y-27328833D01*
X8802452Y-27281214D01*
X8659595Y-27281214D01*
X8564357Y-27328833D01*
X8516738Y-27424071D01*
X8516738Y-27947880D01*
X8040547Y-27281214D02*
X8040547Y-28281214D01*
X8040547Y-27328833D02*
X7945309Y-27281214D01*
X7754833Y-27281214D01*
X7659595Y-27328833D01*
X7611976Y-27376452D01*
X7564357Y-27471690D01*
X7564357Y-27757404D01*
X7611976Y-27852642D01*
X7659595Y-27900261D01*
X7754833Y-27947880D01*
X7945309Y-27947880D01*
X8040547Y-27900261D01*
X6707214Y-27281214D02*
X6707214Y-27947880D01*
X7135785Y-27281214D02*
X7135785Y-27805023D01*
X7088166Y-27900261D01*
X6992928Y-27947880D01*
X6850071Y-27947880D01*
X6754833Y-27900261D01*
X6707214Y-27852642D01*
X6373880Y-27281214D02*
X5992928Y-27281214D01*
X6231023Y-26947880D02*
X6231023Y-27805023D01*
X6183404Y-27900261D01*
X6088166Y-27947880D01*
X5992928Y-27947880D01*
X4373880Y-27947880D02*
X4945309Y-27947880D01*
X4659595Y-27947880D02*
X4659595Y-26947880D01*
X4754833Y-27090738D01*
X4850071Y-27185976D01*
X4945309Y-27233595D01*
X43711452Y-21804380D02*
X43520976Y-21804380D01*
X43425738Y-21852000D01*
X43330500Y-21947238D01*
X43282880Y-22137714D01*
X43282880Y-22471047D01*
X43330500Y-22661523D01*
X43425738Y-22756761D01*
X43520976Y-22804380D01*
X43711452Y-22804380D01*
X43806690Y-22756761D01*
X43901928Y-22661523D01*
X43949547Y-22471047D01*
X43949547Y-22137714D01*
X43901928Y-21947238D01*
X43806690Y-21852000D01*
X43711452Y-21804380D01*
X42425738Y-22137714D02*
X42425738Y-22804380D01*
X42854309Y-22137714D02*
X42854309Y-22661523D01*
X42806690Y-22756761D01*
X42711452Y-22804380D01*
X42568595Y-22804380D01*
X42473357Y-22756761D01*
X42425738Y-22709142D01*
X42092404Y-22137714D02*
X41711452Y-22137714D01*
X41949547Y-21804380D02*
X41949547Y-22661523D01*
X41901928Y-22756761D01*
X41806690Y-22804380D01*
X41711452Y-22804380D01*
X41378119Y-22137714D02*
X41378119Y-23137714D01*
X41378119Y-22185333D02*
X41282880Y-22137714D01*
X41092404Y-22137714D01*
X40997166Y-22185333D01*
X40949547Y-22232952D01*
X40901928Y-22328190D01*
X40901928Y-22613904D01*
X40949547Y-22709142D01*
X40997166Y-22756761D01*
X41092404Y-22804380D01*
X41282880Y-22804380D01*
X41378119Y-22756761D01*
X40044785Y-22137714D02*
X40044785Y-22804380D01*
X40473357Y-22137714D02*
X40473357Y-22661523D01*
X40425738Y-22756761D01*
X40330500Y-22804380D01*
X40187642Y-22804380D01*
X40092404Y-22756761D01*
X40044785Y-22709142D01*
X39711452Y-22137714D02*
X39330500Y-22137714D01*
X39568595Y-21804380D02*
X39568595Y-22661523D01*
X39520976Y-22756761D01*
X39425738Y-22804380D01*
X39330500Y-22804380D01*
X38330500Y-21804380D02*
X37711452Y-21804380D01*
X38044785Y-22185333D01*
X37901928Y-22185333D01*
X37806690Y-22232952D01*
X37759071Y-22280571D01*
X37711452Y-22375809D01*
X37711452Y-22613904D01*
X37759071Y-22709142D01*
X37806690Y-22756761D01*
X37901928Y-22804380D01*
X38187642Y-22804380D01*
X38282880Y-22756761D01*
X38330500Y-22709142D01*
D11*
G36*
X20510500Y-28321000D02*
X20510500Y-23558500D01*
X44069000Y-23558500D01*
X44069000Y-28321000D01*
X20510500Y-28321000D01*
G37*
X20510500Y-28321000D02*
X20510500Y-23558500D01*
X44069000Y-23558500D01*
X44069000Y-28321000D01*
X20510500Y-28321000D01*
D10*
X43711452Y-14184380D02*
X43520976Y-14184380D01*
X43425738Y-14232000D01*
X43330500Y-14327238D01*
X43282880Y-14517714D01*
X43282880Y-14851047D01*
X43330500Y-15041523D01*
X43425738Y-15136761D01*
X43520976Y-15184380D01*
X43711452Y-15184380D01*
X43806690Y-15136761D01*
X43901928Y-15041523D01*
X43949547Y-14851047D01*
X43949547Y-14517714D01*
X43901928Y-14327238D01*
X43806690Y-14232000D01*
X43711452Y-14184380D01*
X42425738Y-14517714D02*
X42425738Y-15184380D01*
X42854309Y-14517714D02*
X42854309Y-15041523D01*
X42806690Y-15136761D01*
X42711452Y-15184380D01*
X42568595Y-15184380D01*
X42473357Y-15136761D01*
X42425738Y-15089142D01*
X42092404Y-14517714D02*
X41711452Y-14517714D01*
X41949547Y-14184380D02*
X41949547Y-15041523D01*
X41901928Y-15136761D01*
X41806690Y-15184380D01*
X41711452Y-15184380D01*
X41378119Y-14517714D02*
X41378119Y-15517714D01*
X41378119Y-14565333D02*
X41282880Y-14517714D01*
X41092404Y-14517714D01*
X40997166Y-14565333D01*
X40949547Y-14612952D01*
X40901928Y-14708190D01*
X40901928Y-14993904D01*
X40949547Y-15089142D01*
X40997166Y-15136761D01*
X41092404Y-15184380D01*
X41282880Y-15184380D01*
X41378119Y-15136761D01*
X40044785Y-14517714D02*
X40044785Y-15184380D01*
X40473357Y-14517714D02*
X40473357Y-15041523D01*
X40425738Y-15136761D01*
X40330500Y-15184380D01*
X40187642Y-15184380D01*
X40092404Y-15136761D01*
X40044785Y-15089142D01*
X39711452Y-14517714D02*
X39330500Y-14517714D01*
X39568595Y-14184380D02*
X39568595Y-15041523D01*
X39520976Y-15136761D01*
X39425738Y-15184380D01*
X39330500Y-15184380D01*
X38282880Y-14279619D02*
X38235261Y-14232000D01*
X38140023Y-14184380D01*
X37901928Y-14184380D01*
X37806690Y-14232000D01*
X37759071Y-14279619D01*
X37711452Y-14374857D01*
X37711452Y-14470095D01*
X37759071Y-14612952D01*
X38330500Y-15184380D01*
X37711452Y-15184380D01*
D11*
G36*
X20510500Y-20701000D02*
X20510500Y-15938500D01*
X44069000Y-15938500D01*
X44069000Y-20701000D01*
X20510500Y-20701000D01*
G37*
X20510500Y-20701000D02*
X20510500Y-15938500D01*
X44069000Y-15938500D01*
X44069000Y-20701000D01*
X20510500Y-20701000D01*
G36*
X20510500Y-13081000D02*
X20510500Y-8318500D01*
X44069000Y-8318500D01*
X44069000Y-13081000D01*
X20510500Y-13081000D01*
G37*
X20510500Y-13081000D02*
X20510500Y-8318500D01*
X44069000Y-8318500D01*
X44069000Y-13081000D01*
X20510500Y-13081000D01*
D10*
X42375357Y-45999071D02*
X42375357Y-44499071D01*
X41446785Y-45999071D02*
X41589642Y-45927642D01*
X41661071Y-45856214D01*
X41732500Y-45713357D01*
X41732500Y-45284785D01*
X41661071Y-45141928D01*
X41589642Y-45070500D01*
X41446785Y-44999071D01*
X41232500Y-44999071D01*
X41089642Y-45070500D01*
X41018214Y-45141928D01*
X40946785Y-45284785D01*
X40946785Y-45713357D01*
X41018214Y-45856214D01*
X41089642Y-45927642D01*
X41232500Y-45999071D01*
X41446785Y-45999071D01*
X40518214Y-44499071D02*
X39661071Y-44499071D01*
X40089642Y-45999071D02*
X40089642Y-44499071D01*
X39161071Y-45427642D02*
X38018214Y-45427642D01*
X37518214Y-44499071D02*
X36661071Y-44499071D01*
X37089642Y-45999071D02*
X37089642Y-44499071D01*
X36161071Y-45999071D02*
X36161071Y-44499071D01*
X35518214Y-45999071D02*
X35518214Y-45213357D01*
X35589642Y-45070500D01*
X35732500Y-44999071D01*
X35946785Y-44999071D01*
X36089642Y-45070500D01*
X36161071Y-45141928D01*
X34803928Y-45999071D02*
X34803928Y-44999071D01*
X34803928Y-44499071D02*
X34875357Y-44570500D01*
X34803928Y-44641928D01*
X34732500Y-44570500D01*
X34803928Y-44499071D01*
X34803928Y-44641928D01*
X34089642Y-44999071D02*
X34089642Y-45999071D01*
X34089642Y-45141928D02*
X34018214Y-45070500D01*
X33875357Y-44999071D01*
X33661071Y-44999071D01*
X33518214Y-45070500D01*
X33446785Y-45213357D01*
X33446785Y-45999071D01*
X32089642Y-44999071D02*
X32089642Y-46213357D01*
X32161071Y-46356214D01*
X32232499Y-46427642D01*
X32375357Y-46499071D01*
X32589642Y-46499071D01*
X32732499Y-46427642D01*
X32089642Y-45927642D02*
X32232499Y-45999071D01*
X32518214Y-45999071D01*
X32661071Y-45927642D01*
X32732499Y-45856214D01*
X32803928Y-45713357D01*
X32803928Y-45284785D01*
X32732499Y-45141928D01*
X32661071Y-45070500D01*
X32518214Y-44999071D01*
X32232499Y-44999071D01*
X32089642Y-45070500D01*
X30446785Y-44499071D02*
X29589642Y-44499071D01*
X30018214Y-45999071D02*
X30018214Y-44499071D01*
X29232500Y-44999071D02*
X28875357Y-45999071D01*
X28518214Y-44999071D02*
X28875357Y-45999071D01*
X29018214Y-46356214D01*
X29089642Y-46427642D01*
X29232500Y-46499071D01*
X27946785Y-44999071D02*
X27946785Y-46499071D01*
X27946785Y-45070500D02*
X27803928Y-44999071D01*
X27518214Y-44999071D01*
X27375357Y-45070500D01*
X27303928Y-45141928D01*
X27232500Y-45284785D01*
X27232500Y-45713357D01*
X27303928Y-45856214D01*
X27375357Y-45927642D01*
X27518214Y-45999071D01*
X27803928Y-45999071D01*
X27946785Y-45927642D01*
X26018214Y-45927642D02*
X26161071Y-45999071D01*
X26446785Y-45999071D01*
X26589642Y-45927642D01*
X26661071Y-45784785D01*
X26661071Y-45213357D01*
X26589642Y-45070500D01*
X26446785Y-44999071D01*
X26161071Y-44999071D01*
X26018214Y-45070500D01*
X25946785Y-45213357D01*
X25946785Y-45356214D01*
X26661071Y-45499071D01*
X24161071Y-45999071D02*
X24161071Y-44499071D01*
X23161071Y-44499071D02*
X22875357Y-44499071D01*
X22732500Y-44570500D01*
X22589642Y-44713357D01*
X22518214Y-44999071D01*
X22518214Y-45499071D01*
X22589642Y-45784785D01*
X22732500Y-45927642D01*
X22875357Y-45999071D01*
X23161071Y-45999071D01*
X23303928Y-45927642D01*
X23446785Y-45784785D01*
X23518214Y-45499071D01*
X23518214Y-44999071D01*
X23446785Y-44713357D01*
X23303928Y-44570500D01*
X23161071Y-44499071D01*
X21375357Y-45213357D02*
X21161071Y-45284785D01*
X21089642Y-45356214D01*
X21018214Y-45499071D01*
X21018214Y-45713357D01*
X21089642Y-45856214D01*
X21161071Y-45927642D01*
X21303928Y-45999071D01*
X21875357Y-45999071D01*
X21875357Y-44499071D01*
X21375357Y-44499071D01*
X21232500Y-44570500D01*
X21161071Y-44641928D01*
X21089642Y-44784785D01*
X21089642Y-44927642D01*
X21161071Y-45070500D01*
X21232500Y-45141928D01*
X21375357Y-45213357D01*
X21875357Y-45213357D01*
X19661071Y-45999071D02*
X20375357Y-45999071D01*
X20375357Y-44499071D01*
X19161071Y-45427642D02*
X18018214Y-45427642D01*
X17375357Y-44641928D02*
X17303928Y-44570500D01*
X17161071Y-44499071D01*
X16803928Y-44499071D01*
X16661071Y-44570500D01*
X16589642Y-44641928D01*
X16518214Y-44784785D01*
X16518214Y-44927642D01*
X16589642Y-45141928D01*
X17446785Y-45999071D01*
X16518214Y-45999071D01*
X16018214Y-44499071D02*
X15089642Y-44499071D01*
X15589642Y-45070500D01*
X15375357Y-45070500D01*
X15232499Y-45141928D01*
X15161071Y-45213357D01*
X15089642Y-45356214D01*
X15089642Y-45713357D01*
X15161071Y-45856214D01*
X15232499Y-45927642D01*
X15375357Y-45999071D01*
X15803928Y-45999071D01*
X15946785Y-45927642D01*
X16018214Y-45856214D01*
X14589642Y-44499071D02*
X13661071Y-44499071D01*
X14161071Y-45070500D01*
X13946785Y-45070500D01*
X13803928Y-45141928D01*
X13732499Y-45213357D01*
X13661071Y-45356214D01*
X13661071Y-45713357D01*
X13732499Y-45856214D01*
X13803928Y-45927642D01*
X13946785Y-45999071D01*
X14375357Y-45999071D01*
X14518214Y-45927642D01*
X14589642Y-45856214D01*
X13161071Y-44499071D02*
X12232499Y-44499071D01*
X12732499Y-45070500D01*
X12518214Y-45070500D01*
X12375357Y-45141928D01*
X12303928Y-45213357D01*
X12232499Y-45356214D01*
X12232499Y-45713357D01*
X12303928Y-45856214D01*
X12375357Y-45927642D01*
X12518214Y-45999071D01*
X12946785Y-45999071D01*
X13089642Y-45927642D01*
X13161071Y-45856214D01*
X10518214Y-44427642D02*
X11803928Y-46356214D01*
X9803928Y-45141928D02*
X9946785Y-45070500D01*
X10018214Y-44999071D01*
X10089642Y-44856214D01*
X10089642Y-44784785D01*
X10018214Y-44641928D01*
X9946785Y-44570500D01*
X9803928Y-44499071D01*
X9518214Y-44499071D01*
X9375357Y-44570500D01*
X9303928Y-44641928D01*
X9232500Y-44784785D01*
X9232500Y-44856214D01*
X9303928Y-44999071D01*
X9375357Y-45070500D01*
X9518214Y-45141928D01*
X9803928Y-45141928D01*
X9946785Y-45213357D01*
X10018214Y-45284785D01*
X10089642Y-45427642D01*
X10089642Y-45713357D01*
X10018214Y-45856214D01*
X9946785Y-45927642D01*
X9803928Y-45999071D01*
X9518214Y-45999071D01*
X9375357Y-45927642D01*
X9303928Y-45856214D01*
X9232500Y-45713357D01*
X9232500Y-45427642D01*
X9303928Y-45284785D01*
X9375357Y-45213357D01*
X9518214Y-45141928D01*
X8661071Y-44641928D02*
X8589642Y-44570500D01*
X8446785Y-44499071D01*
X8089642Y-44499071D01*
X7946785Y-44570500D01*
X7875357Y-44641928D01*
X7803928Y-44784785D01*
X7803928Y-44927642D01*
X7875357Y-45141928D01*
X8732500Y-45999071D01*
X7803928Y-45999071D01*
X42518214Y-47449071D02*
X42161071Y-48449071D01*
X41803928Y-47449071D01*
X40946785Y-46949071D02*
X40803928Y-46949071D01*
X40661071Y-47020500D01*
X40589642Y-47091928D01*
X40518214Y-47234785D01*
X40446785Y-47520500D01*
X40446785Y-47877642D01*
X40518214Y-48163357D01*
X40589642Y-48306214D01*
X40661071Y-48377642D01*
X40803928Y-48449071D01*
X40946785Y-48449071D01*
X41089642Y-48377642D01*
X41161071Y-48306214D01*
X41232500Y-48163357D01*
X41303928Y-47877642D01*
X41303928Y-47520500D01*
X41232500Y-47234785D01*
X41161071Y-47091928D01*
X41089642Y-47020500D01*
X40946785Y-46949071D01*
X39803928Y-48306214D02*
X39732500Y-48377642D01*
X39803928Y-48449071D01*
X39875357Y-48377642D01*
X39803928Y-48306214D01*
X39803928Y-48449071D01*
X38303928Y-48449071D02*
X39161071Y-48449071D01*
X38732500Y-48449071D02*
X38732500Y-46949071D01*
X38875357Y-47163357D01*
X39018214Y-47306214D01*
X39161071Y-47377642D01*
X36232500Y-46949071D02*
X36089642Y-46949071D01*
X35946785Y-47020500D01*
X35875357Y-47091928D01*
X35803928Y-47234785D01*
X35732500Y-47520500D01*
X35732500Y-47877642D01*
X35803928Y-48163357D01*
X35875357Y-48306214D01*
X35946785Y-48377642D01*
X36089642Y-48449071D01*
X36232500Y-48449071D01*
X36375357Y-48377642D01*
X36446785Y-48306214D01*
X36518214Y-48163357D01*
X36589642Y-47877642D01*
X36589642Y-47520500D01*
X36518214Y-47234785D01*
X36446785Y-47091928D01*
X36375357Y-47020500D01*
X36232500Y-46949071D01*
X35232500Y-46949071D02*
X34232500Y-46949071D01*
X34875357Y-48449071D01*
X32589642Y-46877642D02*
X33875357Y-48806214D01*
X32161071Y-47091928D02*
X32089642Y-47020500D01*
X31946785Y-46949071D01*
X31589642Y-46949071D01*
X31446785Y-47020500D01*
X31375357Y-47091928D01*
X31303928Y-47234785D01*
X31303928Y-47377642D01*
X31375357Y-47591928D01*
X32232500Y-48449071D01*
X31303928Y-48449071D01*
X30375357Y-46949071D02*
X30232500Y-46949071D01*
X30089642Y-47020500D01*
X30018214Y-47091928D01*
X29946785Y-47234785D01*
X29875357Y-47520500D01*
X29875357Y-47877642D01*
X29946785Y-48163357D01*
X30018214Y-48306214D01*
X30089642Y-48377642D01*
X30232500Y-48449071D01*
X30375357Y-48449071D01*
X30518214Y-48377642D01*
X30589642Y-48306214D01*
X30661071Y-48163357D01*
X30732500Y-47877642D01*
X30732500Y-47520500D01*
X30661071Y-47234785D01*
X30589642Y-47091928D01*
X30518214Y-47020500D01*
X30375357Y-46949071D01*
X28446785Y-48449071D02*
X29303928Y-48449071D01*
X28875357Y-48449071D02*
X28875357Y-46949071D01*
X29018214Y-47163357D01*
X29161071Y-47306214D01*
X29303928Y-47377642D01*
X27589642Y-47591928D02*
X27732500Y-47520500D01*
X27803928Y-47449071D01*
X27875357Y-47306214D01*
X27875357Y-47234785D01*
X27803928Y-47091928D01*
X27732500Y-47020500D01*
X27589642Y-46949071D01*
X27303928Y-46949071D01*
X27161071Y-47020500D01*
X27089642Y-47091928D01*
X27018214Y-47234785D01*
X27018214Y-47306214D01*
X27089642Y-47449071D01*
X27161071Y-47520500D01*
X27303928Y-47591928D01*
X27589642Y-47591928D01*
X27732500Y-47663357D01*
X27803928Y-47734785D01*
X27875357Y-47877642D01*
X27875357Y-48163357D01*
X27803928Y-48306214D01*
X27732500Y-48377642D01*
X27589642Y-48449071D01*
X27303928Y-48449071D01*
X27161071Y-48377642D01*
X27089642Y-48306214D01*
X27018214Y-48163357D01*
X27018214Y-47877642D01*
X27089642Y-47734785D01*
X27161071Y-47663357D01*
X27303928Y-47591928D01*
X43711452Y-6564380D02*
X43520976Y-6564380D01*
X43425738Y-6612000D01*
X43330500Y-6707238D01*
X43282880Y-6897714D01*
X43282880Y-7231047D01*
X43330500Y-7421523D01*
X43425738Y-7516761D01*
X43520976Y-7564380D01*
X43711452Y-7564380D01*
X43806690Y-7516761D01*
X43901928Y-7421523D01*
X43949547Y-7231047D01*
X43949547Y-6897714D01*
X43901928Y-6707238D01*
X43806690Y-6612000D01*
X43711452Y-6564380D01*
X42425738Y-6897714D02*
X42425738Y-7564380D01*
X42854309Y-6897714D02*
X42854309Y-7421523D01*
X42806690Y-7516761D01*
X42711452Y-7564380D01*
X42568595Y-7564380D01*
X42473357Y-7516761D01*
X42425738Y-7469142D01*
X42092404Y-6897714D02*
X41711452Y-6897714D01*
X41949547Y-6564380D02*
X41949547Y-7421523D01*
X41901928Y-7516761D01*
X41806690Y-7564380D01*
X41711452Y-7564380D01*
X41378119Y-6897714D02*
X41378119Y-7897714D01*
X41378119Y-6945333D02*
X41282880Y-6897714D01*
X41092404Y-6897714D01*
X40997166Y-6945333D01*
X40949547Y-6992952D01*
X40901928Y-7088190D01*
X40901928Y-7373904D01*
X40949547Y-7469142D01*
X40997166Y-7516761D01*
X41092404Y-7564380D01*
X41282880Y-7564380D01*
X41378119Y-7516761D01*
X40044785Y-6897714D02*
X40044785Y-7564380D01*
X40473357Y-6897714D02*
X40473357Y-7421523D01*
X40425738Y-7516761D01*
X40330500Y-7564380D01*
X40187642Y-7564380D01*
X40092404Y-7516761D01*
X40044785Y-7469142D01*
X39711452Y-6897714D02*
X39330500Y-6897714D01*
X39568595Y-6564380D02*
X39568595Y-7421523D01*
X39520976Y-7516761D01*
X39425738Y-7564380D01*
X39330500Y-7564380D01*
X37711452Y-7564380D02*
X38282880Y-7564380D01*
X37997166Y-7564380D02*
X37997166Y-6564380D01*
X38092404Y-6707238D01*
X38187642Y-6802476D01*
X38282880Y-6850095D01*
X16154285Y-9756857D02*
X15411428Y-9756857D01*
X15811428Y-10214000D01*
X15640000Y-10214000D01*
X15525714Y-10271142D01*
X15468571Y-10328285D01*
X15411428Y-10442571D01*
X15411428Y-10728285D01*
X15468571Y-10842571D01*
X15525714Y-10899714D01*
X15640000Y-10956857D01*
X15982857Y-10956857D01*
X16097142Y-10899714D01*
X16154285Y-10842571D01*
X15068571Y-9756857D02*
X14668571Y-10956857D01*
X14268571Y-9756857D01*
X15354285Y-8353357D02*
X15754285Y-7781928D01*
X16040000Y-8353357D02*
X16040000Y-7153357D01*
X15582857Y-7153357D01*
X15468571Y-7210500D01*
X15411428Y-7267642D01*
X15354285Y-7381928D01*
X15354285Y-7553357D01*
X15411428Y-7667642D01*
X15468571Y-7724785D01*
X15582857Y-7781928D01*
X16040000Y-7781928D01*
X14897142Y-8296214D02*
X14782857Y-8353357D01*
X14554285Y-8353357D01*
X14440000Y-8296214D01*
X14382857Y-8181928D01*
X14382857Y-8124785D01*
X14440000Y-8010500D01*
X14554285Y-7953357D01*
X14725714Y-7953357D01*
X14840000Y-7896214D01*
X14897142Y-7781928D01*
X14897142Y-7724785D01*
X14840000Y-7610500D01*
X14725714Y-7553357D01*
X14554285Y-7553357D01*
X14440000Y-7610500D01*
X12950785Y-10156857D02*
X12950785Y-11128285D01*
X13007928Y-11242571D01*
X13065071Y-11299714D01*
X13179357Y-11356857D01*
X13350785Y-11356857D01*
X13465071Y-11299714D01*
X12950785Y-10899714D02*
X13065071Y-10956857D01*
X13293642Y-10956857D01*
X13407928Y-10899714D01*
X13465071Y-10842571D01*
X13522214Y-10728285D01*
X13522214Y-10385428D01*
X13465071Y-10271142D01*
X13407928Y-10214000D01*
X13293642Y-10156857D01*
X13065071Y-10156857D01*
X12950785Y-10214000D01*
X12150785Y-9756857D02*
X12036500Y-9756857D01*
X11922214Y-9814000D01*
X11865071Y-9871142D01*
X11807928Y-9985428D01*
X11750785Y-10214000D01*
X11750785Y-10499714D01*
X11807928Y-10728285D01*
X11865071Y-10842571D01*
X11922214Y-10899714D01*
X12036500Y-10956857D01*
X12150785Y-10956857D01*
X12265071Y-10899714D01*
X12322214Y-10842571D01*
X12379357Y-10728285D01*
X12436500Y-10499714D01*
X12436500Y-10214000D01*
X12379357Y-9985428D01*
X12322214Y-9871142D01*
X12265071Y-9814000D01*
X12150785Y-9756857D01*
X12385714Y-7274000D02*
X12500000Y-7216857D01*
X12671428Y-7216857D01*
X12842857Y-7274000D01*
X12957142Y-7388285D01*
X13014285Y-7502571D01*
X13071428Y-7731142D01*
X13071428Y-7902571D01*
X13014285Y-8131142D01*
X12957142Y-8245428D01*
X12842857Y-8359714D01*
X12671428Y-8416857D01*
X12557142Y-8416857D01*
X12385714Y-8359714D01*
X12328571Y-8302571D01*
X12328571Y-7902571D01*
X12557142Y-7902571D01*
X10274285Y-10956857D02*
X10674285Y-10385428D01*
X10960000Y-10956857D02*
X10960000Y-9756857D01*
X10502857Y-9756857D01*
X10388571Y-9814000D01*
X10331428Y-9871142D01*
X10274285Y-9985428D01*
X10274285Y-10156857D01*
X10331428Y-10271142D01*
X10388571Y-10328285D01*
X10502857Y-10385428D01*
X10960000Y-10385428D01*
X9874285Y-10956857D02*
X9245714Y-10156857D01*
X9874285Y-10156857D02*
X9245714Y-10956857D01*
X10925071Y-7153357D02*
X10239357Y-7153357D01*
X10582214Y-8353357D02*
X10582214Y-7153357D01*
X9953642Y-8353357D02*
X9325071Y-7553357D01*
X9953642Y-7553357D02*
X9325071Y-8353357D01*
X16510000Y-9080500D02*
X8763000Y-9080500D01*
X13906500Y-11684000D02*
X13906500Y-6477000D01*
X11366500Y-6477000D02*
X11366500Y-11684000D01*
X16510000Y-6477000D02*
X8763000Y-6477000D01*
X16510000Y-11684000D02*
X16510000Y-6477000D01*
X8763000Y-11684000D02*
X16510000Y-11684000D01*
X8763000Y-6477000D02*
X8763000Y-11684000D01*
X46481904Y-39957357D02*
X44958095Y-39957357D01*
X46418404Y-37353857D02*
X44894595Y-37353857D01*
X45656500Y-38115761D02*
X45656500Y-36591952D01*
X43899357Y-38125071D02*
X43899357Y-36625071D01*
X43327928Y-36625071D01*
X43185071Y-36696500D01*
X43113642Y-36767928D01*
X43042214Y-36910785D01*
X43042214Y-37125071D01*
X43113642Y-37267928D01*
X43185071Y-37339357D01*
X43327928Y-37410785D01*
X43899357Y-37410785D01*
X42185071Y-38125071D02*
X42327928Y-38053642D01*
X42399357Y-37982214D01*
X42470785Y-37839357D01*
X42470785Y-37410785D01*
X42399357Y-37267928D01*
X42327928Y-37196500D01*
X42185071Y-37125071D01*
X41970785Y-37125071D01*
X41827928Y-37196500D01*
X41756500Y-37267928D01*
X41685071Y-37410785D01*
X41685071Y-37839357D01*
X41756500Y-37982214D01*
X41827928Y-38053642D01*
X41970785Y-38125071D01*
X42185071Y-38125071D01*
X41185071Y-37125071D02*
X40899357Y-38125071D01*
X40613642Y-37410785D01*
X40327928Y-38125071D01*
X40042214Y-37125071D01*
X38899357Y-38053642D02*
X39042214Y-38125071D01*
X39327928Y-38125071D01*
X39470785Y-38053642D01*
X39542214Y-37910785D01*
X39542214Y-37339357D01*
X39470785Y-37196500D01*
X39327928Y-37125071D01*
X39042214Y-37125071D01*
X38899357Y-37196500D01*
X38827928Y-37339357D01*
X38827928Y-37482214D01*
X39542214Y-37625071D01*
X38185071Y-38125071D02*
X38185071Y-37125071D01*
X38185071Y-37410785D02*
X38113642Y-37267928D01*
X38042214Y-37196500D01*
X37899357Y-37125071D01*
X37756500Y-37125071D01*
X36185071Y-38053642D02*
X35970785Y-38125071D01*
X35613642Y-38125071D01*
X35470785Y-38053642D01*
X35399357Y-37982214D01*
X35327928Y-37839357D01*
X35327928Y-37696500D01*
X35399357Y-37553642D01*
X35470785Y-37482214D01*
X35613642Y-37410785D01*
X35899357Y-37339357D01*
X36042214Y-37267928D01*
X36113642Y-37196500D01*
X36185071Y-37053642D01*
X36185071Y-36910785D01*
X36113642Y-36767928D01*
X36042214Y-36696500D01*
X35899357Y-36625071D01*
X35542214Y-36625071D01*
X35327928Y-36696500D01*
X34042214Y-37125071D02*
X34042214Y-38125071D01*
X34685071Y-37125071D02*
X34685071Y-37910785D01*
X34613642Y-38053642D01*
X34470785Y-38125071D01*
X34256500Y-38125071D01*
X34113642Y-38053642D01*
X34042214Y-37982214D01*
X33327928Y-37125071D02*
X33327928Y-38625071D01*
X33327928Y-37196500D02*
X33185071Y-37125071D01*
X32899357Y-37125071D01*
X32756500Y-37196500D01*
X32685071Y-37267928D01*
X32613642Y-37410785D01*
X32613642Y-37839357D01*
X32685071Y-37982214D01*
X32756500Y-38053642D01*
X32899357Y-38125071D01*
X33185071Y-38125071D01*
X33327928Y-38053642D01*
X31970785Y-37125071D02*
X31970785Y-38625071D01*
X31970785Y-37196500D02*
X31827928Y-37125071D01*
X31542214Y-37125071D01*
X31399357Y-37196500D01*
X31327928Y-37267928D01*
X31256500Y-37410785D01*
X31256500Y-37839357D01*
X31327928Y-37982214D01*
X31399357Y-38053642D01*
X31542214Y-38125071D01*
X31827928Y-38125071D01*
X31970785Y-38053642D01*
X30399357Y-38125071D02*
X30542214Y-38053642D01*
X30613642Y-37910785D01*
X30613642Y-36625071D01*
X29970785Y-37125071D02*
X29613642Y-38125071D01*
X29256500Y-37125071D02*
X29613642Y-38125071D01*
X29756500Y-38482214D01*
X29827928Y-38553642D01*
X29970785Y-38625071D01*
X43185071Y-39075071D02*
X43899357Y-39075071D01*
X43970785Y-39789357D01*
X43899357Y-39717928D01*
X43756500Y-39646500D01*
X43399357Y-39646500D01*
X43256500Y-39717928D01*
X43185071Y-39789357D01*
X43113642Y-39932214D01*
X43113642Y-40289357D01*
X43185071Y-40432214D01*
X43256500Y-40503642D01*
X43399357Y-40575071D01*
X43756500Y-40575071D01*
X43899357Y-40503642D01*
X43970785Y-40432214D01*
X42470785Y-40003642D02*
X41327928Y-40003642D01*
X40756500Y-39075071D02*
X39827928Y-39075071D01*
X40327928Y-39646500D01*
X40113642Y-39646500D01*
X39970785Y-39717928D01*
X39899357Y-39789357D01*
X39827928Y-39932214D01*
X39827928Y-40289357D01*
X39899357Y-40432214D01*
X39970785Y-40503642D01*
X40113642Y-40575071D01*
X40542214Y-40575071D01*
X40685071Y-40503642D01*
X40756500Y-40432214D01*
X38899357Y-39075071D02*
X38756500Y-39075071D01*
X38613642Y-39146500D01*
X38542214Y-39217928D01*
X38470785Y-39360785D01*
X38399357Y-39646500D01*
X38399357Y-40003642D01*
X38470785Y-40289357D01*
X38542214Y-40432214D01*
X38613642Y-40503642D01*
X38756500Y-40575071D01*
X38899357Y-40575071D01*
X39042214Y-40503642D01*
X39113642Y-40432214D01*
X39185071Y-40289357D01*
X39256500Y-40003642D01*
X39256500Y-39646500D01*
X39185071Y-39360785D01*
X39113642Y-39217928D01*
X39042214Y-39146500D01*
X38899357Y-39075071D01*
X37970785Y-39075071D02*
X37470785Y-40575071D01*
X36970785Y-39075071D01*
X35327928Y-40575071D02*
X35327928Y-39075071D01*
X34970785Y-39075071D01*
X34756500Y-39146500D01*
X34613642Y-39289357D01*
X34542214Y-39432214D01*
X34470785Y-39717928D01*
X34470785Y-39932214D01*
X34542214Y-40217928D01*
X34613642Y-40360785D01*
X34756500Y-40503642D01*
X34970785Y-40575071D01*
X35327928Y-40575071D01*
X32970785Y-40432214D02*
X33042214Y-40503642D01*
X33256500Y-40575071D01*
X33399357Y-40575071D01*
X33613642Y-40503642D01*
X33756500Y-40360785D01*
X33827928Y-40217928D01*
X33899357Y-39932214D01*
X33899357Y-39717928D01*
X33827928Y-39432214D01*
X33756500Y-39289357D01*
X33613642Y-39146500D01*
X33399357Y-39075071D01*
X33256500Y-39075071D01*
X33042214Y-39146500D01*
X32970785Y-39217928D01*
D12*
G04 #@! TO.C,REF\002A\002A\002A*
G36*
X16248614Y-20936005D02*
X16173961Y-20973227D01*
X16108069Y-21041761D01*
X16089923Y-21067148D01*
X16070155Y-21100366D01*
X16057328Y-21136445D01*
X16049990Y-21184598D01*
X16046687Y-21254036D01*
X16045962Y-21345706D01*
X16049237Y-21471330D01*
X16060623Y-21565654D01*
X16082459Y-21636023D01*
X16117081Y-21689786D01*
X16166830Y-21734288D01*
X16170486Y-21736923D01*
X16219515Y-21763877D01*
X16278555Y-21777212D01*
X16353641Y-21780500D01*
X16475705Y-21780500D01*
X16475756Y-21898997D01*
X16476892Y-21964992D01*
X16483814Y-22003702D01*
X16501902Y-22026919D01*
X16536538Y-22046433D01*
X16544855Y-22050420D01*
X16583780Y-22069103D01*
X16613917Y-22080903D01*
X16636326Y-22081922D01*
X16652067Y-22068261D01*
X16662198Y-22036022D01*
X16667777Y-21981304D01*
X16669865Y-21900211D01*
X16669519Y-21788844D01*
X16667800Y-21643302D01*
X16667263Y-21599769D01*
X16665328Y-21449705D01*
X16663596Y-21351542D01*
X16475808Y-21351542D01*
X16474752Y-21434864D01*
X16470062Y-21489380D01*
X16459449Y-21525337D01*
X16440628Y-21552982D01*
X16427850Y-21566465D01*
X16375610Y-21605917D01*
X16329358Y-21609128D01*
X16281633Y-21576549D01*
X16280423Y-21575346D01*
X16261006Y-21550168D01*
X16249193Y-21515947D01*
X16243235Y-21463248D01*
X16241380Y-21382631D01*
X16241346Y-21364771D01*
X16245830Y-21253675D01*
X16260426Y-21176661D01*
X16286850Y-21129647D01*
X16326817Y-21108550D01*
X16349916Y-21106423D01*
X16404738Y-21116400D01*
X16442342Y-21149252D01*
X16464977Y-21209357D01*
X16474894Y-21301098D01*
X16475808Y-21351542D01*
X16663596Y-21351542D01*
X16663278Y-21333560D01*
X16660627Y-21246179D01*
X16656894Y-21182405D01*
X16651593Y-21137082D01*
X16644242Y-21105055D01*
X16634357Y-21081168D01*
X16621454Y-21060264D01*
X16615921Y-21052398D01*
X16542531Y-20978095D01*
X16449740Y-20935967D01*
X16342404Y-20924222D01*
X16248614Y-20936005D01*
X16248614Y-20936005D01*
G37*
X16248614Y-20936005D02*
X16173961Y-20973227D01*
X16108069Y-21041761D01*
X16089923Y-21067148D01*
X16070155Y-21100366D01*
X16057328Y-21136445D01*
X16049990Y-21184598D01*
X16046687Y-21254036D01*
X16045962Y-21345706D01*
X16049237Y-21471330D01*
X16060623Y-21565654D01*
X16082459Y-21636023D01*
X16117081Y-21689786D01*
X16166830Y-21734288D01*
X16170486Y-21736923D01*
X16219515Y-21763877D01*
X16278555Y-21777212D01*
X16353641Y-21780500D01*
X16475705Y-21780500D01*
X16475756Y-21898997D01*
X16476892Y-21964992D01*
X16483814Y-22003702D01*
X16501902Y-22026919D01*
X16536538Y-22046433D01*
X16544855Y-22050420D01*
X16583780Y-22069103D01*
X16613917Y-22080903D01*
X16636326Y-22081922D01*
X16652067Y-22068261D01*
X16662198Y-22036022D01*
X16667777Y-21981304D01*
X16669865Y-21900211D01*
X16669519Y-21788844D01*
X16667800Y-21643302D01*
X16667263Y-21599769D01*
X16665328Y-21449705D01*
X16663596Y-21351542D01*
X16475808Y-21351542D01*
X16474752Y-21434864D01*
X16470062Y-21489380D01*
X16459449Y-21525337D01*
X16440628Y-21552982D01*
X16427850Y-21566465D01*
X16375610Y-21605917D01*
X16329358Y-21609128D01*
X16281633Y-21576549D01*
X16280423Y-21575346D01*
X16261006Y-21550168D01*
X16249193Y-21515947D01*
X16243235Y-21463248D01*
X16241380Y-21382631D01*
X16241346Y-21364771D01*
X16245830Y-21253675D01*
X16260426Y-21176661D01*
X16286850Y-21129647D01*
X16326817Y-21108550D01*
X16349916Y-21106423D01*
X16404738Y-21116400D01*
X16442342Y-21149252D01*
X16464977Y-21209357D01*
X16474894Y-21301098D01*
X16475808Y-21351542D01*
X16663596Y-21351542D01*
X16663278Y-21333560D01*
X16660627Y-21246179D01*
X16656894Y-21182405D01*
X16651593Y-21137082D01*
X16644242Y-21105055D01*
X16634357Y-21081168D01*
X16621454Y-21060264D01*
X16615921Y-21052398D01*
X16542531Y-20978095D01*
X16449740Y-20935967D01*
X16342404Y-20924222D01*
X16248614Y-20936005D01*
G36*
X14745836Y-20946589D02*
X14683133Y-20982858D01*
X14639539Y-21018858D01*
X14607655Y-21056575D01*
X14585690Y-21102699D01*
X14571851Y-21163921D01*
X14564347Y-21246931D01*
X14561383Y-21358419D01*
X14561039Y-21438562D01*
X14561039Y-21733565D01*
X14727115Y-21808015D01*
X14736885Y-21484902D01*
X14740921Y-21364229D01*
X14745156Y-21276641D01*
X14750403Y-21216150D01*
X14757475Y-21176768D01*
X14767189Y-21152507D01*
X14780356Y-21137380D01*
X14784581Y-21134106D01*
X14848591Y-21108534D01*
X14913292Y-21118653D01*
X14951808Y-21145500D01*
X14967475Y-21164524D01*
X14978320Y-21189488D01*
X14985212Y-21227334D01*
X14989021Y-21285002D01*
X14990617Y-21369435D01*
X14990885Y-21457428D01*
X14990937Y-21567823D01*
X14992828Y-21645963D01*
X14999155Y-21698665D01*
X15012517Y-21732742D01*
X15035515Y-21755011D01*
X15070746Y-21772287D01*
X15117803Y-21790238D01*
X15169197Y-21809778D01*
X15163079Y-21462985D01*
X15160616Y-21337968D01*
X15157733Y-21245582D01*
X15153602Y-21179381D01*
X15147393Y-21132920D01*
X15138274Y-21099756D01*
X15125417Y-21073444D01*
X15109916Y-21050229D01*
X15035129Y-20976069D01*
X14943872Y-20933184D01*
X14844617Y-20922912D01*
X14745836Y-20946589D01*
X14745836Y-20946589D01*
G37*
X14745836Y-20946589D02*
X14683133Y-20982858D01*
X14639539Y-21018858D01*
X14607655Y-21056575D01*
X14585690Y-21102699D01*
X14571851Y-21163921D01*
X14564347Y-21246931D01*
X14561383Y-21358419D01*
X14561039Y-21438562D01*
X14561039Y-21733565D01*
X14727115Y-21808015D01*
X14736885Y-21484902D01*
X14740921Y-21364229D01*
X14745156Y-21276641D01*
X14750403Y-21216150D01*
X14757475Y-21176768D01*
X14767189Y-21152507D01*
X14780356Y-21137380D01*
X14784581Y-21134106D01*
X14848591Y-21108534D01*
X14913292Y-21118653D01*
X14951808Y-21145500D01*
X14967475Y-21164524D01*
X14978320Y-21189488D01*
X14985212Y-21227334D01*
X14989021Y-21285002D01*
X14990617Y-21369435D01*
X14990885Y-21457428D01*
X14990937Y-21567823D01*
X14992828Y-21645963D01*
X14999155Y-21698665D01*
X15012517Y-21732742D01*
X15035515Y-21755011D01*
X15070746Y-21772287D01*
X15117803Y-21790238D01*
X15169197Y-21809778D01*
X15163079Y-21462985D01*
X15160616Y-21337968D01*
X15157733Y-21245582D01*
X15153602Y-21179381D01*
X15147393Y-21132920D01*
X15138274Y-21099756D01*
X15125417Y-21073444D01*
X15109916Y-21050229D01*
X15035129Y-20976069D01*
X14943872Y-20933184D01*
X14844617Y-20922912D01*
X14745836Y-20946589D01*
G36*
X17000614Y-20938756D02*
X16909036Y-20986909D01*
X16841451Y-21064405D01*
X16817443Y-21114227D01*
X16798762Y-21189033D01*
X16789199Y-21283552D01*
X16788292Y-21386710D01*
X16795579Y-21487435D01*
X16810597Y-21574653D01*
X16832885Y-21637291D01*
X16839735Y-21648079D01*
X16920868Y-21728605D01*
X17017234Y-21776836D01*
X17121799Y-21790950D01*
X17227532Y-21769129D01*
X17256957Y-21756047D01*
X17314259Y-21715731D01*
X17364550Y-21662275D01*
X17369303Y-21655495D01*
X17388622Y-21622821D01*
X17401392Y-21587894D01*
X17408936Y-21541914D01*
X17412576Y-21476084D01*
X17413635Y-21381605D01*
X17413654Y-21360423D01*
X17413606Y-21353682D01*
X17218269Y-21353682D01*
X17217132Y-21442849D01*
X17212659Y-21502020D01*
X17203254Y-21540241D01*
X17187324Y-21566553D01*
X17179192Y-21575346D01*
X17132442Y-21608761D01*
X17087053Y-21607237D01*
X17041160Y-21578252D01*
X17013788Y-21547309D01*
X16997577Y-21502143D01*
X16988474Y-21430920D01*
X16987849Y-21422614D01*
X16986296Y-21293537D01*
X17002535Y-21197672D01*
X17036348Y-21135607D01*
X17087516Y-21107932D01*
X17105780Y-21106423D01*
X17153740Y-21114013D01*
X17186547Y-21140308D01*
X17206605Y-21190595D01*
X17216322Y-21270164D01*
X17218269Y-21353682D01*
X17413606Y-21353682D01*
X17412926Y-21259749D01*
X17409871Y-21189406D01*
X17403178Y-21140663D01*
X17391540Y-21104788D01*
X17373647Y-21073048D01*
X17369692Y-21067148D01*
X17303233Y-20987604D01*
X17230815Y-20941429D01*
X17142651Y-20923099D01*
X17112713Y-20922203D01*
X17000614Y-20938756D01*
X17000614Y-20938756D01*
G37*
X17000614Y-20938756D02*
X16909036Y-20986909D01*
X16841451Y-21064405D01*
X16817443Y-21114227D01*
X16798762Y-21189033D01*
X16789199Y-21283552D01*
X16788292Y-21386710D01*
X16795579Y-21487435D01*
X16810597Y-21574653D01*
X16832885Y-21637291D01*
X16839735Y-21648079D01*
X16920868Y-21728605D01*
X17017234Y-21776836D01*
X17121799Y-21790950D01*
X17227532Y-21769129D01*
X17256957Y-21756047D01*
X17314259Y-21715731D01*
X17364550Y-21662275D01*
X17369303Y-21655495D01*
X17388622Y-21622821D01*
X17401392Y-21587894D01*
X17408936Y-21541914D01*
X17412576Y-21476084D01*
X17413635Y-21381605D01*
X17413654Y-21360423D01*
X17413606Y-21353682D01*
X17218269Y-21353682D01*
X17217132Y-21442849D01*
X17212659Y-21502020D01*
X17203254Y-21540241D01*
X17187324Y-21566553D01*
X17179192Y-21575346D01*
X17132442Y-21608761D01*
X17087053Y-21607237D01*
X17041160Y-21578252D01*
X17013788Y-21547309D01*
X16997577Y-21502143D01*
X16988474Y-21430920D01*
X16987849Y-21422614D01*
X16986296Y-21293537D01*
X17002535Y-21197672D01*
X17036348Y-21135607D01*
X17087516Y-21107932D01*
X17105780Y-21106423D01*
X17153740Y-21114013D01*
X17186547Y-21140308D01*
X17206605Y-21190595D01*
X17216322Y-21270164D01*
X17218269Y-21353682D01*
X17413606Y-21353682D01*
X17412926Y-21259749D01*
X17409871Y-21189406D01*
X17403178Y-21140663D01*
X17391540Y-21104788D01*
X17373647Y-21073048D01*
X17369692Y-21067148D01*
X17303233Y-20987604D01*
X17230815Y-20941429D01*
X17142651Y-20923099D01*
X17112713Y-20922203D01*
X17000614Y-20938756D01*
G36*
X15483246Y-20951245D02*
X15406214Y-21003067D01*
X15346684Y-21077912D01*
X15311122Y-21173154D01*
X15303929Y-21243256D01*
X15304746Y-21272509D01*
X15311586Y-21294907D01*
X15330388Y-21314974D01*
X15367092Y-21337233D01*
X15427638Y-21366209D01*
X15517966Y-21406427D01*
X15518423Y-21406629D01*
X15601567Y-21444710D01*
X15669747Y-21478525D01*
X15715995Y-21504433D01*
X15733342Y-21518795D01*
X15733346Y-21518911D01*
X15718057Y-21550185D01*
X15682304Y-21584657D01*
X15641258Y-21609490D01*
X15620463Y-21614423D01*
X15563730Y-21597362D01*
X15514873Y-21554633D01*
X15491035Y-21507655D01*
X15468103Y-21473022D01*
X15423182Y-21433581D01*
X15370377Y-21399509D01*
X15323790Y-21380980D01*
X15314048Y-21379962D01*
X15303082Y-21396715D01*
X15302421Y-21439539D01*
X15310480Y-21497281D01*
X15325673Y-21558789D01*
X15346414Y-21612909D01*
X15347462Y-21615010D01*
X15409879Y-21702160D01*
X15490774Y-21761439D01*
X15582644Y-21790534D01*
X15677987Y-21787134D01*
X15769302Y-21748928D01*
X15773362Y-21746241D01*
X15845194Y-21681142D01*
X15892427Y-21596205D01*
X15918566Y-21484521D01*
X15922074Y-21453143D01*
X15928287Y-21305036D01*
X15920839Y-21235968D01*
X15733346Y-21235968D01*
X15730910Y-21279052D01*
X15717586Y-21291626D01*
X15684368Y-21282219D01*
X15632006Y-21259983D01*
X15573476Y-21232110D01*
X15572021Y-21231372D01*
X15522411Y-21205277D01*
X15502500Y-21187863D01*
X15507410Y-21169607D01*
X15528084Y-21145620D01*
X15580681Y-21110906D01*
X15637323Y-21108356D01*
X15688131Y-21133619D01*
X15723224Y-21182347D01*
X15733346Y-21235968D01*
X15920839Y-21235968D01*
X15915508Y-21186536D01*
X15882722Y-21092555D01*
X15837079Y-21026715D01*
X15754698Y-20960181D01*
X15663954Y-20927176D01*
X15571315Y-20925073D01*
X15483246Y-20951245D01*
X15483246Y-20951245D01*
G37*
X15483246Y-20951245D02*
X15406214Y-21003067D01*
X15346684Y-21077912D01*
X15311122Y-21173154D01*
X15303929Y-21243256D01*
X15304746Y-21272509D01*
X15311586Y-21294907D01*
X15330388Y-21314974D01*
X15367092Y-21337233D01*
X15427638Y-21366209D01*
X15517966Y-21406427D01*
X15518423Y-21406629D01*
X15601567Y-21444710D01*
X15669747Y-21478525D01*
X15715995Y-21504433D01*
X15733342Y-21518795D01*
X15733346Y-21518911D01*
X15718057Y-21550185D01*
X15682304Y-21584657D01*
X15641258Y-21609490D01*
X15620463Y-21614423D01*
X15563730Y-21597362D01*
X15514873Y-21554633D01*
X15491035Y-21507655D01*
X15468103Y-21473022D01*
X15423182Y-21433581D01*
X15370377Y-21399509D01*
X15323790Y-21380980D01*
X15314048Y-21379962D01*
X15303082Y-21396715D01*
X15302421Y-21439539D01*
X15310480Y-21497281D01*
X15325673Y-21558789D01*
X15346414Y-21612909D01*
X15347462Y-21615010D01*
X15409879Y-21702160D01*
X15490774Y-21761439D01*
X15582644Y-21790534D01*
X15677987Y-21787134D01*
X15769302Y-21748928D01*
X15773362Y-21746241D01*
X15845194Y-21681142D01*
X15892427Y-21596205D01*
X15918566Y-21484521D01*
X15922074Y-21453143D01*
X15928287Y-21305036D01*
X15920839Y-21235968D01*
X15733346Y-21235968D01*
X15730910Y-21279052D01*
X15717586Y-21291626D01*
X15684368Y-21282219D01*
X15632006Y-21259983D01*
X15573476Y-21232110D01*
X15572021Y-21231372D01*
X15522411Y-21205277D01*
X15502500Y-21187863D01*
X15507410Y-21169607D01*
X15528084Y-21145620D01*
X15580681Y-21110906D01*
X15637323Y-21108356D01*
X15688131Y-21133619D01*
X15723224Y-21182347D01*
X15733346Y-21235968D01*
X15920839Y-21235968D01*
X15915508Y-21186536D01*
X15882722Y-21092555D01*
X15837079Y-21026715D01*
X15754698Y-20960181D01*
X15663954Y-20927176D01*
X15571315Y-20925073D01*
X15483246Y-20951245D01*
G36*
X13857654Y-20843620D02*
X13851928Y-20923480D01*
X13845351Y-20970539D01*
X13836238Y-20991066D01*
X13822902Y-20991329D01*
X13818577Y-20988878D01*
X13761056Y-20971136D01*
X13686232Y-20972172D01*
X13610161Y-20990410D01*
X13562582Y-21014005D01*
X13513798Y-21051698D01*
X13478136Y-21094355D01*
X13453655Y-21148557D01*
X13438413Y-21220884D01*
X13430470Y-21317919D01*
X13427884Y-21446242D01*
X13427838Y-21470858D01*
X13427808Y-21747370D01*
X13489339Y-21768820D01*
X13533041Y-21783412D01*
X13557018Y-21790206D01*
X13557723Y-21790269D01*
X13560085Y-21771845D01*
X13562094Y-21721026D01*
X13563599Y-21644493D01*
X13564447Y-21548930D01*
X13564577Y-21490829D01*
X13564849Y-21376271D01*
X13566248Y-21294167D01*
X13569651Y-21237893D01*
X13575933Y-21200826D01*
X13585971Y-21176344D01*
X13600639Y-21157825D01*
X13609798Y-21148906D01*
X13672711Y-21112966D01*
X13741364Y-21110275D01*
X13803652Y-21140670D01*
X13815171Y-21151644D01*
X13832067Y-21172279D01*
X13843786Y-21196756D01*
X13851267Y-21232147D01*
X13855446Y-21285526D01*
X13857263Y-21363966D01*
X13857654Y-21472117D01*
X13857654Y-21747370D01*
X13919185Y-21768820D01*
X13962887Y-21783412D01*
X13986864Y-21790206D01*
X13987570Y-21790269D01*
X13989374Y-21771569D01*
X13991000Y-21718822D01*
X13992383Y-21637057D01*
X13993458Y-21531305D01*
X13994160Y-21406594D01*
X13994423Y-21267955D01*
X13994423Y-20733306D01*
X13867423Y-20679736D01*
X13857654Y-20843620D01*
X13857654Y-20843620D01*
G37*
X13857654Y-20843620D02*
X13851928Y-20923480D01*
X13845351Y-20970539D01*
X13836238Y-20991066D01*
X13822902Y-20991329D01*
X13818577Y-20988878D01*
X13761056Y-20971136D01*
X13686232Y-20972172D01*
X13610161Y-20990410D01*
X13562582Y-21014005D01*
X13513798Y-21051698D01*
X13478136Y-21094355D01*
X13453655Y-21148557D01*
X13438413Y-21220884D01*
X13430470Y-21317919D01*
X13427884Y-21446242D01*
X13427838Y-21470858D01*
X13427808Y-21747370D01*
X13489339Y-21768820D01*
X13533041Y-21783412D01*
X13557018Y-21790206D01*
X13557723Y-21790269D01*
X13560085Y-21771845D01*
X13562094Y-21721026D01*
X13563599Y-21644493D01*
X13564447Y-21548930D01*
X13564577Y-21490829D01*
X13564849Y-21376271D01*
X13566248Y-21294167D01*
X13569651Y-21237893D01*
X13575933Y-21200826D01*
X13585971Y-21176344D01*
X13600639Y-21157825D01*
X13609798Y-21148906D01*
X13672711Y-21112966D01*
X13741364Y-21110275D01*
X13803652Y-21140670D01*
X13815171Y-21151644D01*
X13832067Y-21172279D01*
X13843786Y-21196756D01*
X13851267Y-21232147D01*
X13855446Y-21285526D01*
X13857263Y-21363966D01*
X13857654Y-21472117D01*
X13857654Y-21747370D01*
X13919185Y-21768820D01*
X13962887Y-21783412D01*
X13986864Y-21790206D01*
X13987570Y-21790269D01*
X13989374Y-21771569D01*
X13991000Y-21718822D01*
X13992383Y-21637057D01*
X13993458Y-21531305D01*
X13994160Y-21406594D01*
X13994423Y-21267955D01*
X13994423Y-20733306D01*
X13867423Y-20679736D01*
X13857654Y-20843620D01*
G36*
X12963999Y-20977803D02*
X12887440Y-21006233D01*
X12886564Y-21006779D01*
X12839215Y-21041627D01*
X12804259Y-21082352D01*
X12779675Y-21135425D01*
X12763438Y-21207314D01*
X12753525Y-21304492D01*
X12747914Y-21433428D01*
X12747423Y-21451798D01*
X12740359Y-21728787D01*
X12799805Y-21759528D01*
X12842819Y-21780302D01*
X12868790Y-21790146D01*
X12869991Y-21790269D01*
X12874486Y-21772106D01*
X12878056Y-21723112D01*
X12880252Y-21651531D01*
X12880731Y-21593568D01*
X12880742Y-21499670D01*
X12885034Y-21440703D01*
X12899997Y-21412579D01*
X12932018Y-21411206D01*
X12987486Y-21432498D01*
X13071231Y-21471636D01*
X13132811Y-21504143D01*
X13164483Y-21532345D01*
X13173794Y-21563082D01*
X13173808Y-21564604D01*
X13158443Y-21617554D01*
X13112953Y-21646160D01*
X13043334Y-21650303D01*
X12993187Y-21649584D01*
X12966746Y-21664027D01*
X12950257Y-21698718D01*
X12940767Y-21742916D01*
X12954443Y-21767993D01*
X12959593Y-21771582D01*
X13008075Y-21785996D01*
X13075969Y-21788037D01*
X13145888Y-21778483D01*
X13195432Y-21761022D01*
X13263930Y-21702864D01*
X13302866Y-21621908D01*
X13310577Y-21558660D01*
X13304693Y-21501611D01*
X13283399Y-21455042D01*
X13241235Y-21413681D01*
X13172741Y-21372255D01*
X13072456Y-21325493D01*
X13066346Y-21322850D01*
X12976010Y-21281117D01*
X12920265Y-21246891D01*
X12896371Y-21216135D01*
X12901587Y-21184811D01*
X12933172Y-21148883D01*
X12942617Y-21140616D01*
X13005883Y-21108558D01*
X13071436Y-21109907D01*
X13128528Y-21141338D01*
X13166407Y-21199524D01*
X13169926Y-21210946D01*
X13204200Y-21266337D01*
X13247691Y-21293018D01*
X13310577Y-21319460D01*
X13310577Y-21251048D01*
X13291448Y-21151610D01*
X13234669Y-21060402D01*
X13205122Y-21029889D01*
X13137958Y-20990728D01*
X13052544Y-20973000D01*
X12963999Y-20977803D01*
X12963999Y-20977803D01*
G37*
X12963999Y-20977803D02*
X12887440Y-21006233D01*
X12886564Y-21006779D01*
X12839215Y-21041627D01*
X12804259Y-21082352D01*
X12779675Y-21135425D01*
X12763438Y-21207314D01*
X12753525Y-21304492D01*
X12747914Y-21433428D01*
X12747423Y-21451798D01*
X12740359Y-21728787D01*
X12799805Y-21759528D01*
X12842819Y-21780302D01*
X12868790Y-21790146D01*
X12869991Y-21790269D01*
X12874486Y-21772106D01*
X12878056Y-21723112D01*
X12880252Y-21651531D01*
X12880731Y-21593568D01*
X12880742Y-21499670D01*
X12885034Y-21440703D01*
X12899997Y-21412579D01*
X12932018Y-21411206D01*
X12987486Y-21432498D01*
X13071231Y-21471636D01*
X13132811Y-21504143D01*
X13164483Y-21532345D01*
X13173794Y-21563082D01*
X13173808Y-21564604D01*
X13158443Y-21617554D01*
X13112953Y-21646160D01*
X13043334Y-21650303D01*
X12993187Y-21649584D01*
X12966746Y-21664027D01*
X12950257Y-21698718D01*
X12940767Y-21742916D01*
X12954443Y-21767993D01*
X12959593Y-21771582D01*
X13008075Y-21785996D01*
X13075969Y-21788037D01*
X13145888Y-21778483D01*
X13195432Y-21761022D01*
X13263930Y-21702864D01*
X13302866Y-21621908D01*
X13310577Y-21558660D01*
X13304693Y-21501611D01*
X13283399Y-21455042D01*
X13241235Y-21413681D01*
X13172741Y-21372255D01*
X13072456Y-21325493D01*
X13066346Y-21322850D01*
X12976010Y-21281117D01*
X12920265Y-21246891D01*
X12896371Y-21216135D01*
X12901587Y-21184811D01*
X12933172Y-21148883D01*
X12942617Y-21140616D01*
X13005883Y-21108558D01*
X13071436Y-21109907D01*
X13128528Y-21141338D01*
X13166407Y-21199524D01*
X13169926Y-21210946D01*
X13204200Y-21266337D01*
X13247691Y-21293018D01*
X13310577Y-21319460D01*
X13310577Y-21251048D01*
X13291448Y-21151610D01*
X13234669Y-21060402D01*
X13205122Y-21029889D01*
X13137958Y-20990728D01*
X13052544Y-20973000D01*
X12963999Y-20977803D01*
G36*
X12304138Y-20976170D02*
X12215383Y-21008921D01*
X12143478Y-21066850D01*
X12115356Y-21107628D01*
X12084698Y-21182454D01*
X12085335Y-21236558D01*
X12117513Y-21272946D01*
X12129419Y-21279133D01*
X12180825Y-21298425D01*
X12207078Y-21293482D01*
X12215970Y-21261087D01*
X12216423Y-21243192D01*
X12232703Y-21177359D01*
X12275135Y-21131307D01*
X12334112Y-21109064D01*
X12400025Y-21114661D01*
X12453605Y-21143729D01*
X12471702Y-21160310D01*
X12484529Y-21180425D01*
X12493194Y-21210832D01*
X12498804Y-21258288D01*
X12502465Y-21329550D01*
X12505285Y-21431375D01*
X12506016Y-21463615D01*
X12508680Y-21573910D01*
X12511708Y-21651536D01*
X12516250Y-21702896D01*
X12523454Y-21734390D01*
X12534467Y-21752420D01*
X12550440Y-21763388D01*
X12560666Y-21768233D01*
X12604094Y-21784801D01*
X12629658Y-21790269D01*
X12638105Y-21772007D01*
X12643261Y-21716796D01*
X12645154Y-21623999D01*
X12643811Y-21492978D01*
X12643393Y-21472769D01*
X12640442Y-21353233D01*
X12636952Y-21265949D01*
X12631986Y-21204091D01*
X12624607Y-21160836D01*
X12613876Y-21129360D01*
X12598855Y-21102839D01*
X12590998Y-21091475D01*
X12545947Y-21041192D01*
X12495560Y-21002081D01*
X12489392Y-20998667D01*
X12399042Y-20971712D01*
X12304138Y-20976170D01*
X12304138Y-20976170D01*
G37*
X12304138Y-20976170D02*
X12215383Y-21008921D01*
X12143478Y-21066850D01*
X12115356Y-21107628D01*
X12084698Y-21182454D01*
X12085335Y-21236558D01*
X12117513Y-21272946D01*
X12129419Y-21279133D01*
X12180825Y-21298425D01*
X12207078Y-21293482D01*
X12215970Y-21261087D01*
X12216423Y-21243192D01*
X12232703Y-21177359D01*
X12275135Y-21131307D01*
X12334112Y-21109064D01*
X12400025Y-21114661D01*
X12453605Y-21143729D01*
X12471702Y-21160310D01*
X12484529Y-21180425D01*
X12493194Y-21210832D01*
X12498804Y-21258288D01*
X12502465Y-21329550D01*
X12505285Y-21431375D01*
X12506016Y-21463615D01*
X12508680Y-21573910D01*
X12511708Y-21651536D01*
X12516250Y-21702896D01*
X12523454Y-21734390D01*
X12534467Y-21752420D01*
X12550440Y-21763388D01*
X12560666Y-21768233D01*
X12604094Y-21784801D01*
X12629658Y-21790269D01*
X12638105Y-21772007D01*
X12643261Y-21716796D01*
X12645154Y-21623999D01*
X12643811Y-21492978D01*
X12643393Y-21472769D01*
X12640442Y-21353233D01*
X12636952Y-21265949D01*
X12631986Y-21204091D01*
X12624607Y-21160836D01*
X12613876Y-21129360D01*
X12598855Y-21102839D01*
X12590998Y-21091475D01*
X12545947Y-21041192D01*
X12495560Y-21002081D01*
X12489392Y-20998667D01*
X12399042Y-20971712D01*
X12304138Y-20976170D01*
G36*
X11415419Y-21131789D02*
X11415667Y-21277820D01*
X11416628Y-21390155D01*
X11418706Y-21474178D01*
X11422307Y-21535269D01*
X11427835Y-21578809D01*
X11435696Y-21610179D01*
X11446293Y-21634762D01*
X11454318Y-21648794D01*
X11520772Y-21724888D01*
X11605030Y-21772584D01*
X11698251Y-21789699D01*
X11791600Y-21774046D01*
X11847188Y-21745918D01*
X11905543Y-21697260D01*
X11945314Y-21637833D01*
X11969310Y-21560007D01*
X11980339Y-21456152D01*
X11981901Y-21379962D01*
X11981691Y-21374486D01*
X11845192Y-21374486D01*
X11844359Y-21461855D01*
X11840539Y-21519692D01*
X11831754Y-21557529D01*
X11816026Y-21584898D01*
X11797234Y-21605542D01*
X11734125Y-21645390D01*
X11666363Y-21648795D01*
X11602321Y-21615525D01*
X11597336Y-21611017D01*
X11576061Y-21587567D01*
X11562721Y-21559666D01*
X11555499Y-21518141D01*
X11552577Y-21453816D01*
X11552115Y-21382700D01*
X11553117Y-21293358D01*
X11557262Y-21233758D01*
X11566264Y-21194589D01*
X11581833Y-21166540D01*
X11594598Y-21151644D01*
X11653900Y-21114075D01*
X11722199Y-21109557D01*
X11787390Y-21138253D01*
X11799972Y-21148906D01*
X11821389Y-21172563D01*
X11834756Y-21200751D01*
X11841934Y-21242745D01*
X11844781Y-21307819D01*
X11845192Y-21374486D01*
X11981691Y-21374486D01*
X11977178Y-21257265D01*
X11961138Y-21165077D01*
X11930972Y-21095769D01*
X11883871Y-21041711D01*
X11847188Y-21014005D01*
X11780510Y-20984072D01*
X11703228Y-20970178D01*
X11631390Y-20973897D01*
X11591192Y-20988900D01*
X11575418Y-20993170D01*
X11564950Y-20977250D01*
X11557644Y-20934589D01*
X11552115Y-20869606D01*
X11546063Y-20797232D01*
X11537656Y-20753687D01*
X11522359Y-20728787D01*
X11495636Y-20712345D01*
X11478846Y-20705064D01*
X11415346Y-20678463D01*
X11415419Y-21131789D01*
X11415419Y-21131789D01*
G37*
X11415419Y-21131789D02*
X11415667Y-21277820D01*
X11416628Y-21390155D01*
X11418706Y-21474178D01*
X11422307Y-21535269D01*
X11427835Y-21578809D01*
X11435696Y-21610179D01*
X11446293Y-21634762D01*
X11454318Y-21648794D01*
X11520772Y-21724888D01*
X11605030Y-21772584D01*
X11698251Y-21789699D01*
X11791600Y-21774046D01*
X11847188Y-21745918D01*
X11905543Y-21697260D01*
X11945314Y-21637833D01*
X11969310Y-21560007D01*
X11980339Y-21456152D01*
X11981901Y-21379962D01*
X11981691Y-21374486D01*
X11845192Y-21374486D01*
X11844359Y-21461855D01*
X11840539Y-21519692D01*
X11831754Y-21557529D01*
X11816026Y-21584898D01*
X11797234Y-21605542D01*
X11734125Y-21645390D01*
X11666363Y-21648795D01*
X11602321Y-21615525D01*
X11597336Y-21611017D01*
X11576061Y-21587567D01*
X11562721Y-21559666D01*
X11555499Y-21518141D01*
X11552577Y-21453816D01*
X11552115Y-21382700D01*
X11553117Y-21293358D01*
X11557262Y-21233758D01*
X11566264Y-21194589D01*
X11581833Y-21166540D01*
X11594598Y-21151644D01*
X11653900Y-21114075D01*
X11722199Y-21109557D01*
X11787390Y-21138253D01*
X11799972Y-21148906D01*
X11821389Y-21172563D01*
X11834756Y-21200751D01*
X11841934Y-21242745D01*
X11844781Y-21307819D01*
X11845192Y-21374486D01*
X11981691Y-21374486D01*
X11977178Y-21257265D01*
X11961138Y-21165077D01*
X11930972Y-21095769D01*
X11883871Y-21041711D01*
X11847188Y-21014005D01*
X11780510Y-20984072D01*
X11703228Y-20970178D01*
X11631390Y-20973897D01*
X11591192Y-20988900D01*
X11575418Y-20993170D01*
X11564950Y-20977250D01*
X11557644Y-20934589D01*
X11552115Y-20869606D01*
X11546063Y-20797232D01*
X11537656Y-20753687D01*
X11522359Y-20728787D01*
X11495636Y-20712345D01*
X11478846Y-20705064D01*
X11415346Y-20678463D01*
X11415419Y-21131789D01*
G36*
X10621571Y-20988162D02*
X10618589Y-21039568D01*
X10616253Y-21117692D01*
X10614751Y-21216357D01*
X10614269Y-21319843D01*
X10614269Y-21670033D01*
X10676099Y-21731863D01*
X10718707Y-21769962D01*
X10756110Y-21785395D01*
X10807230Y-21784418D01*
X10827522Y-21781933D01*
X10890946Y-21774700D01*
X10943405Y-21770555D01*
X10956192Y-21770172D01*
X10999301Y-21772676D01*
X11060956Y-21778962D01*
X11084862Y-21781933D01*
X11143578Y-21786528D01*
X11183036Y-21776546D01*
X11222162Y-21745728D01*
X11236285Y-21731863D01*
X11298115Y-21670033D01*
X11298115Y-21015003D01*
X11248350Y-20992329D01*
X11205498Y-20975534D01*
X11180427Y-20969654D01*
X11173999Y-20988236D01*
X11167991Y-21040155D01*
X11162803Y-21119672D01*
X11158836Y-21221046D01*
X11156923Y-21306692D01*
X11151577Y-21643731D01*
X11104940Y-21650325D01*
X11062524Y-21645714D01*
X11041740Y-21630787D01*
X11035930Y-21602877D01*
X11030970Y-21543425D01*
X11027254Y-21459966D01*
X11025176Y-21360032D01*
X11024876Y-21308604D01*
X11024577Y-21012554D01*
X10963046Y-20991104D01*
X10919496Y-20976520D01*
X10895806Y-20969719D01*
X10895123Y-20969654D01*
X10892746Y-20988142D01*
X10890134Y-21039406D01*
X10887505Y-21117149D01*
X10885079Y-21215074D01*
X10883385Y-21306692D01*
X10878039Y-21643731D01*
X10760808Y-21643731D01*
X10755428Y-21336246D01*
X10750049Y-21028761D01*
X10692899Y-20999207D01*
X10650703Y-20978913D01*
X10625730Y-20969704D01*
X10625009Y-20969654D01*
X10621571Y-20988162D01*
X10621571Y-20988162D01*
G37*
X10621571Y-20988162D02*
X10618589Y-21039568D01*
X10616253Y-21117692D01*
X10614751Y-21216357D01*
X10614269Y-21319843D01*
X10614269Y-21670033D01*
X10676099Y-21731863D01*
X10718707Y-21769962D01*
X10756110Y-21785395D01*
X10807230Y-21784418D01*
X10827522Y-21781933D01*
X10890946Y-21774700D01*
X10943405Y-21770555D01*
X10956192Y-21770172D01*
X10999301Y-21772676D01*
X11060956Y-21778962D01*
X11084862Y-21781933D01*
X11143578Y-21786528D01*
X11183036Y-21776546D01*
X11222162Y-21745728D01*
X11236285Y-21731863D01*
X11298115Y-21670033D01*
X11298115Y-21015003D01*
X11248350Y-20992329D01*
X11205498Y-20975534D01*
X11180427Y-20969654D01*
X11173999Y-20988236D01*
X11167991Y-21040155D01*
X11162803Y-21119672D01*
X11158836Y-21221046D01*
X11156923Y-21306692D01*
X11151577Y-21643731D01*
X11104940Y-21650325D01*
X11062524Y-21645714D01*
X11041740Y-21630787D01*
X11035930Y-21602877D01*
X11030970Y-21543425D01*
X11027254Y-21459966D01*
X11025176Y-21360032D01*
X11024876Y-21308604D01*
X11024577Y-21012554D01*
X10963046Y-20991104D01*
X10919496Y-20976520D01*
X10895806Y-20969719D01*
X10895123Y-20969654D01*
X10892746Y-20988142D01*
X10890134Y-21039406D01*
X10887505Y-21117149D01*
X10885079Y-21215074D01*
X10883385Y-21306692D01*
X10878039Y-21643731D01*
X10760808Y-21643731D01*
X10755428Y-21336246D01*
X10750049Y-21028761D01*
X10692899Y-20999207D01*
X10650703Y-20978913D01*
X10625730Y-20969704D01*
X10625009Y-20969654D01*
X10621571Y-20988162D01*
G36*
X10130167Y-20985028D02*
X10073910Y-21010617D01*
X10029753Y-21041624D01*
X9997399Y-21076295D01*
X9975062Y-21121020D01*
X9960954Y-21182192D01*
X9953289Y-21266201D01*
X9950280Y-21379440D01*
X9949962Y-21454009D01*
X9949962Y-21744920D01*
X9999727Y-21767595D01*
X10038924Y-21784167D01*
X10058343Y-21790269D01*
X10062058Y-21772110D01*
X10065005Y-21723148D01*
X10066809Y-21651653D01*
X10067192Y-21594885D01*
X10068839Y-21512871D01*
X10073278Y-21447809D01*
X10079760Y-21407967D01*
X10084910Y-21399500D01*
X10119523Y-21408146D01*
X10173860Y-21430323D01*
X10236778Y-21460386D01*
X10297132Y-21492692D01*
X10343779Y-21521598D01*
X10365574Y-21541461D01*
X10365661Y-21541675D01*
X10363786Y-21578435D01*
X10346975Y-21613526D01*
X10317461Y-21642028D01*
X10274384Y-21651561D01*
X10237568Y-21650450D01*
X10185426Y-21649633D01*
X10158056Y-21661849D01*
X10141618Y-21694124D01*
X10139545Y-21700210D01*
X10132419Y-21746239D01*
X10151476Y-21774187D01*
X10201147Y-21787507D01*
X10254803Y-21789970D01*
X10351358Y-21771710D01*
X10401341Y-21745631D01*
X10463071Y-21684368D01*
X10495810Y-21609170D01*
X10498747Y-21529711D01*
X10471076Y-21455667D01*
X10429453Y-21409269D01*
X10387896Y-21383293D01*
X10322578Y-21350407D01*
X10246462Y-21317057D01*
X10233774Y-21311961D01*
X10150167Y-21275065D01*
X10101970Y-21242546D01*
X10086470Y-21210218D01*
X10100950Y-21173894D01*
X10125808Y-21145500D01*
X10184561Y-21110539D01*
X10249207Y-21107917D01*
X10308492Y-21134858D01*
X10351161Y-21188588D01*
X10356761Y-21202450D01*
X10389367Y-21253436D01*
X10436970Y-21291287D01*
X10497039Y-21322350D01*
X10497039Y-21234268D01*
X10493503Y-21180451D01*
X10478344Y-21138034D01*
X10444732Y-21092779D01*
X10412465Y-21057920D01*
X10362291Y-21008562D01*
X10323307Y-20982047D01*
X10281436Y-20971411D01*
X10234040Y-20969654D01*
X10130167Y-20985028D01*
X10130167Y-20985028D01*
G37*
X10130167Y-20985028D02*
X10073910Y-21010617D01*
X10029753Y-21041624D01*
X9997399Y-21076295D01*
X9975062Y-21121020D01*
X9960954Y-21182192D01*
X9953289Y-21266201D01*
X9950280Y-21379440D01*
X9949962Y-21454009D01*
X9949962Y-21744920D01*
X9999727Y-21767595D01*
X10038924Y-21784167D01*
X10058343Y-21790269D01*
X10062058Y-21772110D01*
X10065005Y-21723148D01*
X10066809Y-21651653D01*
X10067192Y-21594885D01*
X10068839Y-21512871D01*
X10073278Y-21447809D01*
X10079760Y-21407967D01*
X10084910Y-21399500D01*
X10119523Y-21408146D01*
X10173860Y-21430323D01*
X10236778Y-21460386D01*
X10297132Y-21492692D01*
X10343779Y-21521598D01*
X10365574Y-21541461D01*
X10365661Y-21541675D01*
X10363786Y-21578435D01*
X10346975Y-21613526D01*
X10317461Y-21642028D01*
X10274384Y-21651561D01*
X10237568Y-21650450D01*
X10185426Y-21649633D01*
X10158056Y-21661849D01*
X10141618Y-21694124D01*
X10139545Y-21700210D01*
X10132419Y-21746239D01*
X10151476Y-21774187D01*
X10201147Y-21787507D01*
X10254803Y-21789970D01*
X10351358Y-21771710D01*
X10401341Y-21745631D01*
X10463071Y-21684368D01*
X10495810Y-21609170D01*
X10498747Y-21529711D01*
X10471076Y-21455667D01*
X10429453Y-21409269D01*
X10387896Y-21383293D01*
X10322578Y-21350407D01*
X10246462Y-21317057D01*
X10233774Y-21311961D01*
X10150167Y-21275065D01*
X10101970Y-21242546D01*
X10086470Y-21210218D01*
X10100950Y-21173894D01*
X10125808Y-21145500D01*
X10184561Y-21110539D01*
X10249207Y-21107917D01*
X10308492Y-21134858D01*
X10351161Y-21188588D01*
X10356761Y-21202450D01*
X10389367Y-21253436D01*
X10436970Y-21291287D01*
X10497039Y-21322350D01*
X10497039Y-21234268D01*
X10493503Y-21180451D01*
X10478344Y-21138034D01*
X10444732Y-21092779D01*
X10412465Y-21057920D01*
X10362291Y-21008562D01*
X10323307Y-20982047D01*
X10281436Y-20971411D01*
X10234040Y-20969654D01*
X10130167Y-20985028D01*
G36*
X9446693Y-20988282D02*
X9423339Y-20998488D01*
X9367598Y-21042634D01*
X9319931Y-21106467D01*
X9290452Y-21174587D01*
X9285654Y-21208170D01*
X9301740Y-21255056D01*
X9337025Y-21279865D01*
X9374856Y-21294887D01*
X9392179Y-21297655D01*
X9400614Y-21277566D01*
X9417270Y-21233851D01*
X9424577Y-21214098D01*
X9465552Y-21145771D01*
X9524878Y-21111691D01*
X9600948Y-21112739D01*
X9606582Y-21114081D01*
X9647195Y-21133336D01*
X9677052Y-21170875D01*
X9697445Y-21231309D01*
X9709664Y-21319251D01*
X9715000Y-21439313D01*
X9715500Y-21503198D01*
X9715748Y-21603903D01*
X9717374Y-21672554D01*
X9721699Y-21716173D01*
X9730046Y-21741782D01*
X9743735Y-21756403D01*
X9764089Y-21767058D01*
X9765266Y-21767595D01*
X9804462Y-21784167D01*
X9823881Y-21790269D01*
X9826865Y-21771819D01*
X9829419Y-21720823D01*
X9831360Y-21643808D01*
X9832503Y-21547305D01*
X9832731Y-21476684D01*
X9831568Y-21340025D01*
X9827021Y-21236351D01*
X9817501Y-21159608D01*
X9801419Y-21103746D01*
X9777187Y-21062712D01*
X9743214Y-21030454D01*
X9709667Y-21007940D01*
X9629001Y-20977976D01*
X9535119Y-20971218D01*
X9446693Y-20988282D01*
X9446693Y-20988282D01*
G37*
X9446693Y-20988282D02*
X9423339Y-20998488D01*
X9367598Y-21042634D01*
X9319931Y-21106467D01*
X9290452Y-21174587D01*
X9285654Y-21208170D01*
X9301740Y-21255056D01*
X9337025Y-21279865D01*
X9374856Y-21294887D01*
X9392179Y-21297655D01*
X9400614Y-21277566D01*
X9417270Y-21233851D01*
X9424577Y-21214098D01*
X9465552Y-21145771D01*
X9524878Y-21111691D01*
X9600948Y-21112739D01*
X9606582Y-21114081D01*
X9647195Y-21133336D01*
X9677052Y-21170875D01*
X9697445Y-21231309D01*
X9709664Y-21319251D01*
X9715000Y-21439313D01*
X9715500Y-21503198D01*
X9715748Y-21603903D01*
X9717374Y-21672554D01*
X9721699Y-21716173D01*
X9730046Y-21741782D01*
X9743735Y-21756403D01*
X9764089Y-21767058D01*
X9765266Y-21767595D01*
X9804462Y-21784167D01*
X9823881Y-21790269D01*
X9826865Y-21771819D01*
X9829419Y-21720823D01*
X9831360Y-21643808D01*
X9832503Y-21547305D01*
X9832731Y-21476684D01*
X9831568Y-21340025D01*
X9827021Y-21236351D01*
X9817501Y-21159608D01*
X9801419Y-21103746D01*
X9777187Y-21062712D01*
X9743214Y-21030454D01*
X9709667Y-21007940D01*
X9629001Y-20977976D01*
X9535119Y-20971218D01*
X9446693Y-20988282D01*
G36*
X8772276Y-20999338D02*
X8694972Y-21049861D01*
X8657686Y-21095090D01*
X8628147Y-21177163D01*
X8625801Y-21242107D01*
X8631115Y-21328945D01*
X8831385Y-21416603D01*
X8928761Y-21461387D01*
X8992387Y-21497413D01*
X9025471Y-21528617D01*
X9031220Y-21558936D01*
X9012842Y-21592305D01*
X8992577Y-21614423D01*
X8933611Y-21649893D01*
X8869476Y-21652379D01*
X8810574Y-21624735D01*
X8767303Y-21569820D01*
X8759564Y-21550428D01*
X8722494Y-21489864D01*
X8679846Y-21464052D01*
X8621346Y-21441971D01*
X8621346Y-21525684D01*
X8626518Y-21582650D01*
X8646777Y-21630689D01*
X8689238Y-21685846D01*
X8695549Y-21693014D01*
X8742780Y-21742085D01*
X8783379Y-21768420D01*
X8834172Y-21780535D01*
X8876280Y-21784503D01*
X8951598Y-21785491D01*
X9005214Y-21772966D01*
X9038662Y-21754369D01*
X9091232Y-21713475D01*
X9127621Y-21669248D01*
X9150650Y-21613626D01*
X9163141Y-21538547D01*
X9167913Y-21435949D01*
X9168294Y-21383876D01*
X9166999Y-21321448D01*
X9049029Y-21321448D01*
X9047661Y-21354938D01*
X9044251Y-21360423D01*
X9021747Y-21352972D01*
X8973318Y-21333253D01*
X8908592Y-21305218D01*
X8895057Y-21299192D01*
X8813256Y-21257596D01*
X8768188Y-21221038D01*
X8758283Y-21186796D01*
X8781974Y-21152148D01*
X8801540Y-21136839D01*
X8872140Y-21106221D01*
X8938220Y-21111280D01*
X8993541Y-21148651D01*
X9031864Y-21214973D01*
X9044151Y-21267616D01*
X9049029Y-21321448D01*
X9166999Y-21321448D01*
X9165770Y-21262220D01*
X9156468Y-21172210D01*
X9138040Y-21106667D01*
X9108140Y-21058412D01*
X9064420Y-21020267D01*
X9045359Y-21007940D01*
X8958774Y-20975836D01*
X8863978Y-20973816D01*
X8772276Y-20999338D01*
X8772276Y-20999338D01*
G37*
X8772276Y-20999338D02*
X8694972Y-21049861D01*
X8657686Y-21095090D01*
X8628147Y-21177163D01*
X8625801Y-21242107D01*
X8631115Y-21328945D01*
X8831385Y-21416603D01*
X8928761Y-21461387D01*
X8992387Y-21497413D01*
X9025471Y-21528617D01*
X9031220Y-21558936D01*
X9012842Y-21592305D01*
X8992577Y-21614423D01*
X8933611Y-21649893D01*
X8869476Y-21652379D01*
X8810574Y-21624735D01*
X8767303Y-21569820D01*
X8759564Y-21550428D01*
X8722494Y-21489864D01*
X8679846Y-21464052D01*
X8621346Y-21441971D01*
X8621346Y-21525684D01*
X8626518Y-21582650D01*
X8646777Y-21630689D01*
X8689238Y-21685846D01*
X8695549Y-21693014D01*
X8742780Y-21742085D01*
X8783379Y-21768420D01*
X8834172Y-21780535D01*
X8876280Y-21784503D01*
X8951598Y-21785491D01*
X9005214Y-21772966D01*
X9038662Y-21754369D01*
X9091232Y-21713475D01*
X9127621Y-21669248D01*
X9150650Y-21613626D01*
X9163141Y-21538547D01*
X9167913Y-21435949D01*
X9168294Y-21383876D01*
X9166999Y-21321448D01*
X9049029Y-21321448D01*
X9047661Y-21354938D01*
X9044251Y-21360423D01*
X9021747Y-21352972D01*
X8973318Y-21333253D01*
X8908592Y-21305218D01*
X8895057Y-21299192D01*
X8813256Y-21257596D01*
X8768188Y-21221038D01*
X8758283Y-21186796D01*
X8781974Y-21152148D01*
X8801540Y-21136839D01*
X8872140Y-21106221D01*
X8938220Y-21111280D01*
X8993541Y-21148651D01*
X9031864Y-21214973D01*
X9044151Y-21267616D01*
X9049029Y-21321448D01*
X9166999Y-21321448D01*
X9165770Y-21262220D01*
X9156468Y-21172210D01*
X9138040Y-21106667D01*
X9108140Y-21058412D01*
X9064420Y-21020267D01*
X9045359Y-21007940D01*
X8958774Y-20975836D01*
X8863978Y-20973816D01*
X8772276Y-20999338D01*
G36*
X12877622Y-14639276D02*
X12771888Y-14639855D01*
X12695368Y-14641422D01*
X12643128Y-14644472D01*
X12610237Y-14649496D01*
X12591763Y-14656989D01*
X12582773Y-14667444D01*
X12578337Y-14681353D01*
X12577906Y-14683154D01*
X12571167Y-14715645D01*
X12558692Y-14779752D01*
X12541781Y-14868651D01*
X12521729Y-14975519D01*
X12499836Y-15093533D01*
X12499071Y-15097678D01*
X12477141Y-15213331D01*
X12456623Y-15315514D01*
X12438841Y-15398098D01*
X12425119Y-15454956D01*
X12416782Y-15479958D01*
X12416384Y-15480401D01*
X12391823Y-15492610D01*
X12341185Y-15512956D01*
X12275405Y-15537045D01*
X12275039Y-15537174D01*
X12192183Y-15568318D01*
X12094500Y-15607991D01*
X12002423Y-15647881D01*
X11998066Y-15649853D01*
X11848093Y-15717920D01*
X11516002Y-15491139D01*
X11414126Y-15422004D01*
X11321843Y-15360197D01*
X11244497Y-15309233D01*
X11187436Y-15272627D01*
X11156005Y-15253894D01*
X11153021Y-15252504D01*
X11130179Y-15258690D01*
X11087518Y-15288535D01*
X11023372Y-15343447D01*
X10936079Y-15424834D01*
X10846965Y-15511422D01*
X10761059Y-15596747D01*
X10684173Y-15674608D01*
X10620936Y-15740197D01*
X10575977Y-15788705D01*
X10553924Y-15815325D01*
X10553104Y-15816695D01*
X10550666Y-15834963D01*
X10559850Y-15864795D01*
X10582926Y-15910221D01*
X10622163Y-15975270D01*
X10679830Y-16063970D01*
X10756705Y-16178157D01*
X10824930Y-16278662D01*
X10885918Y-16368803D01*
X10936144Y-16443349D01*
X10972084Y-16497065D01*
X10990213Y-16524718D01*
X10991354Y-16526595D01*
X10989141Y-16553090D01*
X10972362Y-16604586D01*
X10944358Y-16671351D01*
X10934378Y-16692672D01*
X10890828Y-16787659D01*
X10844366Y-16895437D01*
X10806623Y-16988692D01*
X10779427Y-17057906D01*
X10757825Y-17110506D01*
X10745342Y-17137997D01*
X10743791Y-17140116D01*
X10720832Y-17143624D01*
X10666714Y-17153238D01*
X10588632Y-17167589D01*
X10493781Y-17185307D01*
X10389357Y-17205025D01*
X10282556Y-17225374D01*
X10180574Y-17244986D01*
X10090606Y-17262491D01*
X10019847Y-17276522D01*
X9975494Y-17285709D01*
X9964615Y-17288307D01*
X9953378Y-17294718D01*
X9944895Y-17309197D01*
X9938786Y-17336633D01*
X9934668Y-17381911D01*
X9932159Y-17449920D01*
X9930879Y-17545547D01*
X9930446Y-17673680D01*
X9930423Y-17726201D01*
X9930423Y-18153345D01*
X10033000Y-18173591D01*
X10090069Y-18184570D01*
X10175231Y-18200595D01*
X10278128Y-18219733D01*
X10388404Y-18240051D01*
X10418885Y-18245632D01*
X10520645Y-18265417D01*
X10609295Y-18284873D01*
X10677392Y-18302197D01*
X10717496Y-18315588D01*
X10724177Y-18319579D01*
X10740581Y-18347842D01*
X10764101Y-18402609D01*
X10790184Y-18473088D01*
X10795358Y-18488269D01*
X10829544Y-18582396D01*
X10871977Y-18688601D01*
X10913503Y-18783973D01*
X10913708Y-18784416D01*
X10982860Y-18934025D01*
X10527988Y-19603117D01*
X10820000Y-19895616D01*
X10908320Y-19982670D01*
X10988875Y-20059409D01*
X11057140Y-20121737D01*
X11108592Y-20165556D01*
X11138706Y-20186770D01*
X11143026Y-20188116D01*
X11168389Y-20177516D01*
X11220142Y-20148047D01*
X11292632Y-20103205D01*
X11380206Y-20046484D01*
X11474888Y-19982962D01*
X11570984Y-19918168D01*
X11656663Y-19861787D01*
X11726484Y-19817288D01*
X11775006Y-19788139D01*
X11796718Y-19777808D01*
X11823207Y-19786550D01*
X11873438Y-19809587D01*
X11937049Y-19842131D01*
X11943792Y-19845749D01*
X12029454Y-19888710D01*
X12088194Y-19909779D01*
X12124728Y-19910003D01*
X12143769Y-19890428D01*
X12143880Y-19890154D01*
X12153398Y-19866972D01*
X12176097Y-19811941D01*
X12210218Y-19729322D01*
X12254000Y-19623372D01*
X12305684Y-19498352D01*
X12363508Y-19358520D01*
X12419509Y-19223137D01*
X12481053Y-19073734D01*
X12537561Y-18935332D01*
X12587339Y-18812173D01*
X12628694Y-18708502D01*
X12659932Y-18628559D01*
X12679359Y-18576588D01*
X12685346Y-18557192D01*
X12670332Y-18534943D01*
X12631061Y-18499482D01*
X12578693Y-18460387D01*
X12429559Y-18336745D01*
X12312989Y-18195022D01*
X12230382Y-18038204D01*
X12183134Y-17869275D01*
X12172643Y-17691222D01*
X12180269Y-17609039D01*
X12221818Y-17438531D01*
X12293377Y-17287959D01*
X12390505Y-17158809D01*
X12508766Y-17052564D01*
X12643720Y-16970710D01*
X12790929Y-16914732D01*
X12945956Y-16886115D01*
X13104361Y-16886344D01*
X13261706Y-16916905D01*
X13413554Y-16979282D01*
X13555465Y-17074960D01*
X13614697Y-17129072D01*
X13728297Y-17268020D01*
X13807394Y-17419861D01*
X13852514Y-17580167D01*
X13864184Y-17744512D01*
X13842931Y-17908471D01*
X13789280Y-18067618D01*
X13703760Y-18217525D01*
X13586895Y-18353767D01*
X13456307Y-18460387D01*
X13401912Y-18501142D01*
X13363486Y-18536218D01*
X13349654Y-18557226D01*
X13356897Y-18580135D01*
X13377495Y-18634865D01*
X13409754Y-18717172D01*
X13451979Y-18822815D01*
X13502477Y-18947550D01*
X13559552Y-19087136D01*
X13615646Y-19223170D01*
X13677533Y-19372701D01*
X13734856Y-19511267D01*
X13785856Y-19634607D01*
X13828773Y-19738464D01*
X13861847Y-19818580D01*
X13883319Y-19870695D01*
X13891275Y-19890154D01*
X13910071Y-19909923D01*
X13946426Y-19909865D01*
X14005021Y-19888941D01*
X14090532Y-19846113D01*
X14091208Y-19845749D01*
X14155593Y-19812512D01*
X14207639Y-19788302D01*
X14236988Y-19777904D01*
X14238283Y-19777808D01*
X14260376Y-19788355D01*
X14309152Y-19817684D01*
X14379169Y-19862327D01*
X14464986Y-19918814D01*
X14560112Y-19982962D01*
X14656960Y-20047911D01*
X14744247Y-20104396D01*
X14816319Y-20148921D01*
X14867523Y-20177990D01*
X14891974Y-20188116D01*
X14914490Y-20174807D01*
X14959758Y-20137612D01*
X15023256Y-20080628D01*
X15100461Y-20007949D01*
X15186849Y-19923671D01*
X15215101Y-19895516D01*
X15507213Y-19602916D01*
X15284869Y-19276604D01*
X15217298Y-19176397D01*
X15157993Y-19086463D01*
X15110283Y-19012010D01*
X15077493Y-18958251D01*
X15062952Y-18930394D01*
X15062526Y-18928412D01*
X15070192Y-18902155D01*
X15090811Y-18849337D01*
X15120815Y-18778810D01*
X15141875Y-18731593D01*
X15181252Y-18641194D01*
X15218335Y-18549866D01*
X15247085Y-18472700D01*
X15254895Y-18449192D01*
X15277083Y-18386416D01*
X15298773Y-18337911D01*
X15310687Y-18319579D01*
X15336977Y-18308359D01*
X15394358Y-18292454D01*
X15475382Y-18273667D01*
X15572605Y-18253799D01*
X15616115Y-18245632D01*
X15726604Y-18225329D01*
X15832584Y-18205670D01*
X15923699Y-18188588D01*
X15989592Y-18176018D01*
X16002000Y-18173591D01*
X16104577Y-18153345D01*
X16104577Y-17726201D01*
X16104347Y-17585746D01*
X16103401Y-17479479D01*
X16101359Y-17402513D01*
X16097838Y-17349960D01*
X16092457Y-17316933D01*
X16084834Y-17298545D01*
X16074588Y-17289908D01*
X16070385Y-17288307D01*
X16045030Y-17282627D01*
X15989016Y-17271295D01*
X15909536Y-17255679D01*
X15813788Y-17237147D01*
X15708967Y-17217069D01*
X15602268Y-17196812D01*
X15500887Y-17177746D01*
X15412021Y-17161239D01*
X15342863Y-17148659D01*
X15300611Y-17141375D01*
X15291210Y-17140116D01*
X15282693Y-17123263D01*
X15263840Y-17078370D01*
X15238176Y-17013930D01*
X15228377Y-16988692D01*
X15188852Y-16891186D01*
X15142308Y-16783459D01*
X15100623Y-16692672D01*
X15069950Y-16623253D01*
X15049544Y-16566210D01*
X15042732Y-16531277D01*
X15043818Y-16526595D01*
X15058215Y-16504491D01*
X15091088Y-16455331D01*
X15138910Y-16384348D01*
X15198152Y-16296778D01*
X15265285Y-16197857D01*
X15278559Y-16178330D01*
X15356454Y-16062640D01*
X15413713Y-15974544D01*
X15452619Y-15909986D01*
X15475456Y-15864911D01*
X15484506Y-15835263D01*
X15482052Y-15816985D01*
X15481989Y-15816869D01*
X15462673Y-15792861D01*
X15419949Y-15746447D01*
X15358449Y-15682437D01*
X15282802Y-15605645D01*
X15197639Y-15520882D01*
X15188035Y-15511422D01*
X15080710Y-15407489D01*
X14997885Y-15331175D01*
X14937895Y-15281071D01*
X14899077Y-15255770D01*
X14881980Y-15252504D01*
X14857027Y-15266750D01*
X14805245Y-15299656D01*
X14731980Y-15347708D01*
X14642580Y-15407390D01*
X14542389Y-15475188D01*
X14518999Y-15491139D01*
X14186907Y-15717920D01*
X14036935Y-15649853D01*
X13945730Y-15610185D01*
X13847831Y-15570291D01*
X13763669Y-15538483D01*
X13759962Y-15537174D01*
X13694131Y-15513076D01*
X13643384Y-15492700D01*
X13618658Y-15480436D01*
X13618616Y-15480401D01*
X13610771Y-15458234D01*
X13597434Y-15403717D01*
X13579930Y-15322980D01*
X13559583Y-15222150D01*
X13537718Y-15107356D01*
X13535929Y-15097678D01*
X13513996Y-14979404D01*
X13493860Y-14872042D01*
X13476820Y-14782417D01*
X13464172Y-14717351D01*
X13457216Y-14683668D01*
X13457094Y-14683154D01*
X13452861Y-14668825D01*
X13444629Y-14658007D01*
X13427467Y-14650206D01*
X13396442Y-14644929D01*
X13346622Y-14641682D01*
X13273076Y-14639972D01*
X13170871Y-14639307D01*
X13035075Y-14639193D01*
X13017500Y-14639192D01*
X12877622Y-14639276D01*
X12877622Y-14639276D01*
G37*
X12877622Y-14639276D02*
X12771888Y-14639855D01*
X12695368Y-14641422D01*
X12643128Y-14644472D01*
X12610237Y-14649496D01*
X12591763Y-14656989D01*
X12582773Y-14667444D01*
X12578337Y-14681353D01*
X12577906Y-14683154D01*
X12571167Y-14715645D01*
X12558692Y-14779752D01*
X12541781Y-14868651D01*
X12521729Y-14975519D01*
X12499836Y-15093533D01*
X12499071Y-15097678D01*
X12477141Y-15213331D01*
X12456623Y-15315514D01*
X12438841Y-15398098D01*
X12425119Y-15454956D01*
X12416782Y-15479958D01*
X12416384Y-15480401D01*
X12391823Y-15492610D01*
X12341185Y-15512956D01*
X12275405Y-15537045D01*
X12275039Y-15537174D01*
X12192183Y-15568318D01*
X12094500Y-15607991D01*
X12002423Y-15647881D01*
X11998066Y-15649853D01*
X11848093Y-15717920D01*
X11516002Y-15491139D01*
X11414126Y-15422004D01*
X11321843Y-15360197D01*
X11244497Y-15309233D01*
X11187436Y-15272627D01*
X11156005Y-15253894D01*
X11153021Y-15252504D01*
X11130179Y-15258690D01*
X11087518Y-15288535D01*
X11023372Y-15343447D01*
X10936079Y-15424834D01*
X10846965Y-15511422D01*
X10761059Y-15596747D01*
X10684173Y-15674608D01*
X10620936Y-15740197D01*
X10575977Y-15788705D01*
X10553924Y-15815325D01*
X10553104Y-15816695D01*
X10550666Y-15834963D01*
X10559850Y-15864795D01*
X10582926Y-15910221D01*
X10622163Y-15975270D01*
X10679830Y-16063970D01*
X10756705Y-16178157D01*
X10824930Y-16278662D01*
X10885918Y-16368803D01*
X10936144Y-16443349D01*
X10972084Y-16497065D01*
X10990213Y-16524718D01*
X10991354Y-16526595D01*
X10989141Y-16553090D01*
X10972362Y-16604586D01*
X10944358Y-16671351D01*
X10934378Y-16692672D01*
X10890828Y-16787659D01*
X10844366Y-16895437D01*
X10806623Y-16988692D01*
X10779427Y-17057906D01*
X10757825Y-17110506D01*
X10745342Y-17137997D01*
X10743791Y-17140116D01*
X10720832Y-17143624D01*
X10666714Y-17153238D01*
X10588632Y-17167589D01*
X10493781Y-17185307D01*
X10389357Y-17205025D01*
X10282556Y-17225374D01*
X10180574Y-17244986D01*
X10090606Y-17262491D01*
X10019847Y-17276522D01*
X9975494Y-17285709D01*
X9964615Y-17288307D01*
X9953378Y-17294718D01*
X9944895Y-17309197D01*
X9938786Y-17336633D01*
X9934668Y-17381911D01*
X9932159Y-17449920D01*
X9930879Y-17545547D01*
X9930446Y-17673680D01*
X9930423Y-17726201D01*
X9930423Y-18153345D01*
X10033000Y-18173591D01*
X10090069Y-18184570D01*
X10175231Y-18200595D01*
X10278128Y-18219733D01*
X10388404Y-18240051D01*
X10418885Y-18245632D01*
X10520645Y-18265417D01*
X10609295Y-18284873D01*
X10677392Y-18302197D01*
X10717496Y-18315588D01*
X10724177Y-18319579D01*
X10740581Y-18347842D01*
X10764101Y-18402609D01*
X10790184Y-18473088D01*
X10795358Y-18488269D01*
X10829544Y-18582396D01*
X10871977Y-18688601D01*
X10913503Y-18783973D01*
X10913708Y-18784416D01*
X10982860Y-18934025D01*
X10527988Y-19603117D01*
X10820000Y-19895616D01*
X10908320Y-19982670D01*
X10988875Y-20059409D01*
X11057140Y-20121737D01*
X11108592Y-20165556D01*
X11138706Y-20186770D01*
X11143026Y-20188116D01*
X11168389Y-20177516D01*
X11220142Y-20148047D01*
X11292632Y-20103205D01*
X11380206Y-20046484D01*
X11474888Y-19982962D01*
X11570984Y-19918168D01*
X11656663Y-19861787D01*
X11726484Y-19817288D01*
X11775006Y-19788139D01*
X11796718Y-19777808D01*
X11823207Y-19786550D01*
X11873438Y-19809587D01*
X11937049Y-19842131D01*
X11943792Y-19845749D01*
X12029454Y-19888710D01*
X12088194Y-19909779D01*
X12124728Y-19910003D01*
X12143769Y-19890428D01*
X12143880Y-19890154D01*
X12153398Y-19866972D01*
X12176097Y-19811941D01*
X12210218Y-19729322D01*
X12254000Y-19623372D01*
X12305684Y-19498352D01*
X12363508Y-19358520D01*
X12419509Y-19223137D01*
X12481053Y-19073734D01*
X12537561Y-18935332D01*
X12587339Y-18812173D01*
X12628694Y-18708502D01*
X12659932Y-18628559D01*
X12679359Y-18576588D01*
X12685346Y-18557192D01*
X12670332Y-18534943D01*
X12631061Y-18499482D01*
X12578693Y-18460387D01*
X12429559Y-18336745D01*
X12312989Y-18195022D01*
X12230382Y-18038204D01*
X12183134Y-17869275D01*
X12172643Y-17691222D01*
X12180269Y-17609039D01*
X12221818Y-17438531D01*
X12293377Y-17287959D01*
X12390505Y-17158809D01*
X12508766Y-17052564D01*
X12643720Y-16970710D01*
X12790929Y-16914732D01*
X12945956Y-16886115D01*
X13104361Y-16886344D01*
X13261706Y-16916905D01*
X13413554Y-16979282D01*
X13555465Y-17074960D01*
X13614697Y-17129072D01*
X13728297Y-17268020D01*
X13807394Y-17419861D01*
X13852514Y-17580167D01*
X13864184Y-17744512D01*
X13842931Y-17908471D01*
X13789280Y-18067618D01*
X13703760Y-18217525D01*
X13586895Y-18353767D01*
X13456307Y-18460387D01*
X13401912Y-18501142D01*
X13363486Y-18536218D01*
X13349654Y-18557226D01*
X13356897Y-18580135D01*
X13377495Y-18634865D01*
X13409754Y-18717172D01*
X13451979Y-18822815D01*
X13502477Y-18947550D01*
X13559552Y-19087136D01*
X13615646Y-19223170D01*
X13677533Y-19372701D01*
X13734856Y-19511267D01*
X13785856Y-19634607D01*
X13828773Y-19738464D01*
X13861847Y-19818580D01*
X13883319Y-19870695D01*
X13891275Y-19890154D01*
X13910071Y-19909923D01*
X13946426Y-19909865D01*
X14005021Y-19888941D01*
X14090532Y-19846113D01*
X14091208Y-19845749D01*
X14155593Y-19812512D01*
X14207639Y-19788302D01*
X14236988Y-19777904D01*
X14238283Y-19777808D01*
X14260376Y-19788355D01*
X14309152Y-19817684D01*
X14379169Y-19862327D01*
X14464986Y-19918814D01*
X14560112Y-19982962D01*
X14656960Y-20047911D01*
X14744247Y-20104396D01*
X14816319Y-20148921D01*
X14867523Y-20177990D01*
X14891974Y-20188116D01*
X14914490Y-20174807D01*
X14959758Y-20137612D01*
X15023256Y-20080628D01*
X15100461Y-20007949D01*
X15186849Y-19923671D01*
X15215101Y-19895516D01*
X15507213Y-19602916D01*
X15284869Y-19276604D01*
X15217298Y-19176397D01*
X15157993Y-19086463D01*
X15110283Y-19012010D01*
X15077493Y-18958251D01*
X15062952Y-18930394D01*
X15062526Y-18928412D01*
X15070192Y-18902155D01*
X15090811Y-18849337D01*
X15120815Y-18778810D01*
X15141875Y-18731593D01*
X15181252Y-18641194D01*
X15218335Y-18549866D01*
X15247085Y-18472700D01*
X15254895Y-18449192D01*
X15277083Y-18386416D01*
X15298773Y-18337911D01*
X15310687Y-18319579D01*
X15336977Y-18308359D01*
X15394358Y-18292454D01*
X15475382Y-18273667D01*
X15572605Y-18253799D01*
X15616115Y-18245632D01*
X15726604Y-18225329D01*
X15832584Y-18205670D01*
X15923699Y-18188588D01*
X15989592Y-18176018D01*
X16002000Y-18173591D01*
X16104577Y-18153345D01*
X16104577Y-17726201D01*
X16104347Y-17585746D01*
X16103401Y-17479479D01*
X16101359Y-17402513D01*
X16097838Y-17349960D01*
X16092457Y-17316933D01*
X16084834Y-17298545D01*
X16074588Y-17289908D01*
X16070385Y-17288307D01*
X16045030Y-17282627D01*
X15989016Y-17271295D01*
X15909536Y-17255679D01*
X15813788Y-17237147D01*
X15708967Y-17217069D01*
X15602268Y-17196812D01*
X15500887Y-17177746D01*
X15412021Y-17161239D01*
X15342863Y-17148659D01*
X15300611Y-17141375D01*
X15291210Y-17140116D01*
X15282693Y-17123263D01*
X15263840Y-17078370D01*
X15238176Y-17013930D01*
X15228377Y-16988692D01*
X15188852Y-16891186D01*
X15142308Y-16783459D01*
X15100623Y-16692672D01*
X15069950Y-16623253D01*
X15049544Y-16566210D01*
X15042732Y-16531277D01*
X15043818Y-16526595D01*
X15058215Y-16504491D01*
X15091088Y-16455331D01*
X15138910Y-16384348D01*
X15198152Y-16296778D01*
X15265285Y-16197857D01*
X15278559Y-16178330D01*
X15356454Y-16062640D01*
X15413713Y-15974544D01*
X15452619Y-15909986D01*
X15475456Y-15864911D01*
X15484506Y-15835263D01*
X15482052Y-15816985D01*
X15481989Y-15816869D01*
X15462673Y-15792861D01*
X15419949Y-15746447D01*
X15358449Y-15682437D01*
X15282802Y-15605645D01*
X15197639Y-15520882D01*
X15188035Y-15511422D01*
X15080710Y-15407489D01*
X14997885Y-15331175D01*
X14937895Y-15281071D01*
X14899077Y-15255770D01*
X14881980Y-15252504D01*
X14857027Y-15266750D01*
X14805245Y-15299656D01*
X14731980Y-15347708D01*
X14642580Y-15407390D01*
X14542389Y-15475188D01*
X14518999Y-15491139D01*
X14186907Y-15717920D01*
X14036935Y-15649853D01*
X13945730Y-15610185D01*
X13847831Y-15570291D01*
X13763669Y-15538483D01*
X13759962Y-15537174D01*
X13694131Y-15513076D01*
X13643384Y-15492700D01*
X13618658Y-15480436D01*
X13618616Y-15480401D01*
X13610771Y-15458234D01*
X13597434Y-15403717D01*
X13579930Y-15322980D01*
X13559583Y-15222150D01*
X13537718Y-15107356D01*
X13535929Y-15097678D01*
X13513996Y-14979404D01*
X13493860Y-14872042D01*
X13476820Y-14782417D01*
X13464172Y-14717351D01*
X13457216Y-14683668D01*
X13457094Y-14683154D01*
X13452861Y-14668825D01*
X13444629Y-14658007D01*
X13427467Y-14650206D01*
X13396442Y-14644929D01*
X13346622Y-14641682D01*
X13273076Y-14639972D01*
X13170871Y-14639307D01*
X13035075Y-14639193D01*
X13017500Y-14639192D01*
X12877622Y-14639276D01*
G04 #@! TD*
M02*
