M48
;DRILL file {KiCad 5.0.0-rc3-unknown-eaf938c~65~ubuntu16.04.1} date Sun Jul 22 11:01:53 2018
;FORMAT={-:-/ absolute / metric / decimal}
FMAT,2
METRIC,TZ
T1C0.400
T2C1.000
T3C3.200
%
G90
G05
M71
T1
X9.588Y-33.274
X19.748Y-4.445
X29.718Y-33.274
X25.Y-1.
X34.6Y-10.6
X10.6Y-44.2
X10.6Y-39.4
X34.6Y-49.
X1.Y-29.8
X39.4Y-39.4
X39.4Y-49.
X20.2Y-5.8
X1.Y-34.6
X10.6Y-15.4
X34.6Y-5.8
X29.8Y-49.
X49.Y-29.8
X34.6Y-1.
X15.4Y-10.6
X25.Y-5.8
X10.6Y-34.6
X10.6Y-20.2
X34.6Y-20.2
X10.6Y-49.
X20.2Y-1.
X15.4Y-49.
X25.Y-39.4
X20.2Y-34.6
X25.Y-29.8
X25.Y-34.6
X20.2Y-10.6
X15.4Y-15.4
X20.2Y-15.4
X15.4Y-34.6
X25.Y-25.
X15.4Y-20.2
X20.2Y-29.8
X20.2Y-49.
X10.6Y-10.6
X34.6Y-39.4
X25.Y-49.
X20.2Y-20.2
X34.6Y-15.4
X39.4Y-44.2
X20.2Y-39.4
X1.Y-39.4
T2
X48.197Y-37.338
X48.197Y-39.878
X48.197Y-17.018
X48.197Y-19.558
X10.096Y-1.778
X10.096Y-4.318
X12.636Y-1.778
X12.636Y-4.318
X15.176Y-1.778
X15.176Y-4.318
X2.476Y-29.718
X2.476Y-32.258
X2.476Y-37.338
X2.476Y-39.878
X48.197Y-9.398
X48.197Y-11.938
X48.197Y-24.638
X48.197Y-27.178
T3
X46.518Y-46.444
X3.518Y-3.444
X3.518Y-46.444
X46.518Y-3.444
T0
M30
