<?xml version="1.0" standalone="no"?>
 <!DOCTYPE svg PUBLIC "-//W3C//DTD SVG 1.1//EN" 
 "http://www.w3.org/Graphics/SVG/1.1/DTD/svg11.dtd"> 
<svg xmlns="http://www.w3.org/2000/svg" version="1.1" 
    width="29.7002cm" height="21.0007cm" viewBox="0 0 116930 82680 ">
<title>SVG Picture created as reservoir_controller-F.SilkS.svg date 2018/09/20 19:04:20 </title>
  <desc>Picture generated by PCBNEW </desc>
<g style="fill:#000000; fill-opacity:1;stroke:#000000; stroke-opacity:1;
stroke-linecap:round; stroke-linejoin:round; "
 transform="translate(0 0) scale(1 1)">
</g>
<g style="fill:#000000; fill-opacity:0.0; 
stroke:#000000; stroke-width:-0.000393701; stroke-opacity:1; 
stroke-linecap:round; stroke-linejoin:round;">
</g>
<g style="fill:#000000; fill-opacity:0.0; 
stroke:#000000; stroke-width:59.0551; stroke-opacity:1; 
stroke-linecap:round; stroke-linejoin:round;">
</g>
<g style="fill:#000000; fill-opacity:1.0; 
stroke:#000000; stroke-width:59.0551; stroke-opacity:1; 
stroke-linecap:round; stroke-linejoin:round;">
<polyline style="fill-rule:evenodd;"
points="12550,17425
12550,16475
17700,16475
17700,17425
12550,17425
" /> 
<polyline style="fill-rule:evenodd;"
points="2050,17425
2050,16475
7200,16475
7200,17425
2050,17425
" /> 
<polyline style="fill-rule:evenodd;"
points="7300,17425
7300,16475
12450,16475
12450,17425
7300,17425
" /> 
<polyline style="fill-rule:evenodd;"
points="9550,11750
10950,11750
10950,16375
9550,16375
9550,11750
" /> 
<polyline style="fill-rule:evenodd;"
points="8050,11750
9450,11750
9450,16375
8050,16375
8050,11750
" /> 
<polyline style="fill-rule:evenodd;"
points="6550,11750
7950,11750
7950,16375
6550,16375
6550,11750
" /> 
</g>
<g style="fill:#000000; fill-opacity:1.0; 
stroke:#000000; stroke-width:47.2441; stroke-opacity:1; 
stroke-linecap:round; stroke-linejoin:round;">
</g>
<g style="fill:#000000; fill-opacity:0.0; 
stroke:#000000; stroke-width:47.2441; stroke-opacity:1; 
stroke-linecap:round; stroke-linejoin:round;">
<path d="M6498 176
L6498 700
" />
<path d="M5975 176
L6498 176
" />
<path d="M6498 1200
L6498 2223
" />
<path d="M5475 1200
L6498 1200
" />
<path d="M5475 176
L5475 1200
" />
<path d="M6498 2223
L3451 2223
" />
<path d="M5475 176
L3451 176
" />
<path d="M3451 176
L3451 2223
" />
</g>
<g style="fill:#000000; fill-opacity:0.0; 
stroke:#000000; stroke-width:59.0551; stroke-opacity:1; 
stroke-linecap:round; stroke-linejoin:round;">
<path d="M13462 8812
L16337 8812
" />
<path d="M16337 11687
L13462 11687
" />
<path d="M13462 8812
L13462 9698
" />
<path d="M13462 11687
L13462 10801
" />
<path d="M16337 8812
L16337 9698
" />
<path d="M16337 11687
L16337 10801
" />
<path d="M15800 9350 A1272.79 1272.79 0.0 0 0 14000 9350 " />
<path d="M14000 11150 A1272.79 1272.79 0.0 0 0 15800 11150 " />
<path d="M14083 11905
L13531 11905
" />
<path d="M14083 13913
L15716 13913
" />
<path d="M14083 11886
L15716 11886
" />
<path d="M14083 13913
L14083 13856
" />
<path d="M15716 13913
L15716 13856
" />
<path d="M15716 11886
L15716 11943
" />
<path d="M14083 11886
L14083 11905
" />
<path d="M10141 11433
L10141 10685
" />
<path d="M9708 11433
L9708 10685
" />
<path d="M9925 11078
L9925 10901
" />
<path d="M9826 11098
L10023 11098
" />
<path d="M9925 11098
L9826 11000
" />
<path d="M9826 11000
L10023 11000
" />
<path d="M10023 11000
L9925 11098
" />
<path d="M12016 8033
L12016 7285
" />
<path d="M11583 8033
L11583 7285
" />
<path d="M11800 7678
L11800 7501
" />
<path d="M11701 7698
L11898 7698
" />
<path d="M11800 7698
L11701 7600
" />
<path d="M11701 7600
L11898 7600
" />
<path d="M11898 7600
L11800 7698
" />
<path d="M12016 5233
L12016 4485
" />
<path d="M11583 5233
L11583 4485
" />
<path d="M11800 4878
L11800 4701
" />
<path d="M11701 4898
L11898 4898
" />
<path d="M11800 4898
L11701 4800
" />
<path d="M11701 4800
L11898 4800
" />
<path d="M11898 4800
L11800 4898
" />
<path d="M12016 2433
L12016 1685
" />
<path d="M11583 2433
L11583 1685
" />
<path d="M11800 2078
L11800 1901
" />
<path d="M11701 2098
L11898 2098
" />
<path d="M11800 2098
L11701 2000
" />
<path d="M11701 2000
L11898 2000
" />
<path d="M11898 2000
L11800 2098
" />
<path d="M7141 11433
L7141 10685
" />
<path d="M6708 11433
L6708 10685
" />
<path d="M6925 11078
L6925 10901
" />
<path d="M6826 11098
L7023 11098
" />
<path d="M6925 11098
L6826 11000
" />
<path d="M6826 11000
L7023 11000
" />
<path d="M7023 11000
L6925 11098
" />
<path d="M8641 11433
L8641 10685
" />
<path d="M8208 11433
L8208 10685
" />
<path d="M8425 11078
L8425 10901
" />
<path d="M8326 11098
L8523 11098
" />
<path d="M8425 11098
L8326 11000
" />
<path d="M8326 11000
L8523 11000
" />
<path d="M8523 11000
L8425 11098
" />
<circle cx="14960.6" cy="18500" r="689.257" /> 
<path d="M15944 17515
L15944 19484
" />
<path d="M13976 17515
L15944 17515
" />
<path d="M13976 17515
L13976 19484
" />
<path d="M13976 19484
L15944 19484
" />
<circle cx="4724.41" cy="18500" r="689.257" /> 
<path d="M5708 17515
L5708 19484
" />
<path d="M3740 17515
L5708 17515
" />
<path d="M3740 17515
L3740 19484
" />
<path d="M3740 19484
L5708 19484
" />
<path d="M8858 19484
L10826 19484
" />
<path d="M8858 17515
L8858 19484
" />
<path d="M8858 17515
L10826 17515
" />
<path d="M10826 17515
L10826 19484
" />
<circle cx="9842.52" cy="18500" r="689.257" /> 
</g>
<g style="fill:#000000; fill-opacity:0.0; 
stroke:#000000; stroke-width:47.2441; stroke-opacity:1; 
stroke-linecap:round; stroke-linejoin:round;">
<path d="M18214 15728
L18214 14271
" />
<path d="M18214 14271
L15418 14271
" />
<path d="M18214 15728
L15418 15728
" />
<path d="M11079 14055
L11079 15944
" />
<path d="M11079 15944
L14387 15944
" />
<path d="M11079 14055
L14387 14055
" />
<path d="M17949 11311
L17949 13437
" />
<path d="M16650 11311
L16650 13437
" />
<path d="M17949 11311
L16650 11311
" />
<path d="M5167 10303
L5167 10696
" />
<path d="M4632 10696
L4632 10303
" />
<path d="M7517 1753
L7517 2146
" />
<path d="M6982 2146
L6982 1753
" />
<path d="M10932 6596
L10932 6203
" />
<path d="M11467 6203
L11467 6596
" />
<path d="M12067 6203
L12067 6596
" />
<path d="M11532 6596
L11532 6203
" />
<path d="M12278 17507
L12671 17507
" />
<path d="M12671 18042
L12278 18042
" />
<path d="M12671 19242
L12278 19242
" />
<path d="M12278 18707
L12671 18707
" />
<path d="M7521 18642
L7128 18642
" />
<path d="M7128 18107
L7521 18107
" />
<path d="M7128 17507
L7521 17507
" />
<path d="M7521 18042
L7128 18042
" />
<path d="M12278 18107
L12671 18107
" />
<path d="M12671 18642
L12278 18642
" />
<path d="M10282 11196
L10282 10803
" />
<path d="M10817 10803
L10817 11196
" />
<path d="M11467 3403
L11467 3796
" />
<path d="M10932 3796
L10932 3403
" />
<path d="M11532 3796
L11532 3403
" />
<path d="M12067 3403
L12067 3796
" />
<path d="M11467 603
L11467 996
" />
<path d="M10932 996
L10932 603
" />
<path d="M11532 996
L11532 603
" />
<path d="M12067 603
L12067 996
" />
<path d="M7282 11196
L7282 10803
" />
<path d="M7817 10803
L7817 11196
" />
<path d="M9317 10803
L9317 11196
" />
<path d="M8782 11196
L8782 10803
" />
<path d="M17515 10765
L18184 10765
" />
<path d="M18184 10765
L18184 9761
" />
<path d="M17515 10765
L17515 9761
" />
<path d="M17515 7465
L17515 6461
" />
<path d="M18184 7465
L18184 6461
" />
<path d="M17515 7465
L18184 7465
" />
<path d="M17515 4440
L18184 4440
" />
<path d="M18184 4440
L18184 3436
" />
<path d="M17515 4440
L17515 3436
" />
<path d="M18451 11223
L19498 11223
" />
<path d="M18451 10200
L18451 11223
" />
<path d="M19498 10200
L19498 11223
" />
<path d="M18451 10200
L19498 10200
" />
<path d="M18451 9700
L18451 9176
" />
<path d="M18451 9176
L18975 9176
" />
<path d="M18451 6176
L18975 6176
" />
<path d="M18451 6700
L18451 6176
" />
<path d="M18451 7200
L19498 7200
" />
<path d="M19498 7200
L19498 8223
" />
<path d="M18451 7200
L18451 8223
" />
<path d="M18451 8223
L19498 8223
" />
<path d="M18451 5223
L19498 5223
" />
<path d="M18451 4200
L18451 5223
" />
<path d="M19498 4200
L19498 5223
" />
<path d="M18451 4200
L19498 4200
" />
<path d="M18451 3700
L18451 3176
" />
<path d="M18451 3176
L18975 3176
" />
<path d="M19498 14176
L18451 14176
" />
<path d="M19498 15200
L19498 14176
" />
<path d="M18451 15200
L18451 14176
" />
<path d="M19498 15200
L18451 15200
" />
<path d="M19498 15700
L19498 16223
" />
<path d="M19498 16223
L18975 16223
" />
<path d="M16763 10312
L16763 10037
" />
<path d="M17236 10037
L17236 10312
" />
<path d="M16763 7012
L16763 6737
" />
<path d="M17236 6737
L17236 7012
" />
<path d="M17236 3712
L17236 3987
" />
<path d="M16763 3987
L16763 3712
" />
<path d="M451 14176
L975 14176
" />
<path d="M451 14700
L451 14176
" />
<path d="M451 15200
L1498 15200
" />
<path d="M1498 15200
L1498 16223
" />
<path d="M451 15200
L451 16223
" />
<path d="M451 16223
L1498 16223
" />
<path d="M451 13223
L1498 13223
" />
<path d="M451 12200
L451 13223
" />
<path d="M1498 12200
L1498 13223
" />
<path d="M451 12200
L1498 12200
" />
<path d="M451 11700
L451 11176
" />
<path d="M451 11176
L975 11176
" />
<path d="M3278 14107
L3671 14107
" />
<path d="M3671 14642
L3278 14642
" />
<path d="M4721 14642
L4328 14642
" />
<path d="M4328 14107
L4721 14107
" />
<path d="M3671 11892
L3278 11892
" />
<path d="M3278 11357
L3671 11357
" />
<path d="M4328 11357
L4721 11357
" />
<path d="M4721 11892
L4328 11892
" />
<path d="M2425 14830
L1755 14830
" />
<path d="M5574 16169
L5574 16287
" />
<path d="M5574 16287
L2425 16287
" />
<path d="M2425 16287
L2425 16169
" />
<path d="M2425 14830
L2425 14712
" />
<path d="M2425 14712
L5574 14712
" />
<path d="M5574 14712
L5574 14830
" />
<path d="M5574 11962
L5574 12080
" />
<path d="M2425 11962
L5574 11962
" />
<path d="M2425 12080
L2425 11962
" />
<path d="M2425 13537
L2425 13419
" />
<path d="M5574 13537
L2425 13537
" />
<path d="M5574 13419
L5574 13537
" />
<path d="M2425 12080
L1755 12080
" />
<path d="M13968 5641
L13377 5641
" />
<path d="M13377 5641
L13377 5748
" />
<path d="M13377 5748
L12263 5748
" />
<path d="M13968 8358
L13377 8358
" />
<path d="M13377 8358
L13377 8251
" />
<path d="M13377 8251
L12944 8251
" />
<path d="M13377 5451
L12944 5451
" />
<path d="M13377 5558
L13377 5451
" />
<path d="M13968 5558
L13377 5558
" />
<path d="M13377 2948
L12263 2948
" />
<path d="M13377 2841
L13377 2948
" />
<path d="M13968 2841
L13377 2841
" />
<path d="M13377 2651
L12944 2651
" />
<path d="M13377 2758
L13377 2651
" />
<path d="M13968 2758
L13377 2758
" />
<path d="M13377 148
L12263 148
" />
<path d="M13377 41
L13377 148
" />
<path d="M13968 41
L13377 41
" />
</g>
<g style="fill:#000000; fill-opacity:0.0; 
stroke:#000000; stroke-width:59.0551; stroke-opacity:1; 
stroke-linecap:round; stroke-linejoin:round;">
<path d="M6676 1331
L6957 1331
L7014 1349
L7051 1387
L7070 1443
L7070 1481
" />
<path d="M7070 937
L7070 1162
" />
<path d="M7070 1050
L6676 1050
L6732 1087
L6770 1125
L6789 1162
" />
<path d="M12834 9178
L12646 9178
L12646 8784
" />
<path d="M13171 9178
L12946 9178
" />
<path d="M13059 9178
L13059 8784
L13021 8840
L12984 8878
L12946 8896
" />
<path d="M12675 12034
L12675 12353
L12693 12390
L12712 12409
L12750 12428
L12825 12428
L12862 12409
L12881 12390
L12900 12353
L12900 12034
" />
<path d="M13256 12165
L13256 12428
" />
<path d="M13162 12015
L13068 12296
L13312 12296
" />
<path d="M11928 10115
L11534 10115
L11534 10021
L11553 9965
L11590 9928
L11628 9909
L11703 9890
L11759 9890
L11834 9909
L11871 9928
L11909 9965
L11928 10021
L11928 10115
" />
<path d="M11534 9759
L11534 9515
L11684 9646
L11684 9590
L11703 9553
L11721 9534
L11759 9515
L11853 9515
L11890 9534
L11909 9553
L11928 9590
L11928 9703
L11909 9740
L11890 9759
" />
<path d="M11387 7890
L10993 7890
L10993 7796
L11012 7740
L11050 7703
L11087 7684
L11162 7665
L11218 7665
L11293 7684
L11331 7703
L11368 7740
L11387 7796
L11387 7890
" />
<path d="M11387 7290
L11387 7515
" />
<path d="M11387 7403
L10993 7403
L11050 7440
L11087 7478
L11106 7515
" />
<path d="M11387 5090
L10993 5090
L10993 4996
L11012 4940
L11050 4903
L11087 4884
L11162 4865
L11218 4865
L11293 4884
L11331 4903
L11368 4940
L11387 4996
L11387 5090
" />
<path d="M11125 4528
L11387 4528
" />
<path d="M10975 4621
L11256 4715
L11256 4471
" />
<path d="M11387 2290
L10993 2290
L10993 2196
L11012 2140
L11050 2103
L11087 2084
L11162 2065
L11218 2065
L11293 2084
L11331 2103
L11368 2140
L11387 2196
L11387 2290
" />
<path d="M10993 1728
L10993 1803
L11012 1840
L11031 1859
L11087 1896
L11162 1915
L11312 1915
L11350 1896
L11368 1878
L11387 1840
L11387 1765
L11368 1728
L11350 1709
L11312 1690
L11218 1690
L11181 1709
L11162 1728
L11143 1765
L11143 1840
L11162 1878
L11181 1896
L11218 1915
" />
<path d="M9928 10115
L9534 10115
L9534 10021
L9553 9965
L9590 9928
L9628 9909
L9703 9890
L9759 9890
L9834 9909
L9871 9928
L9909 9965
L9928 10021
L9928 10115
" />
<path d="M9703 9665
L9684 9703
L9665 9721
L9628 9740
L9609 9740
L9571 9721
L9553 9703
L9534 9665
L9534 9590
L9553 9553
L9571 9534
L9609 9515
L9628 9515
L9665 9534
L9684 9553
L9703 9590
L9703 9665
L9721 9703
L9740 9721
L9778 9740
L9853 9740
L9890 9721
L9909 9703
L9928 9665
L9928 9590
L9909 9553
L9890 9534
L9853 9515
L9778 9515
L9740 9534
L9721 9553
L9703 9590
" />
<path d="M10928 10115
L10534 10115
L10534 10021
L10553 9965
L10590 9928
L10628 9909
L10703 9890
L10759 9890
L10834 9909
L10871 9928
L10909 9965
L10928 10021
L10928 10115
" />
<path d="M10928 9703
L10928 9628
L10909 9590
L10890 9571
L10834 9534
L10759 9515
L10609 9515
L10571 9534
L10553 9553
L10534 9590
L10534 9665
L10553 9703
L10571 9721
L10609 9740
L10703 9740
L10740 9721
L10759 9703
L10778 9665
L10778 9590
L10759 9553
L10740 9534
L10703 9515
" />
<path d="M14475 18659
L14531 18678
L14625 18678
L14662 18659
L14681 18640
L14700 18603
L14700 18565
L14681 18528
L14662 18509
L14625 18490
L14550 18471
L14512 18453
L14493 18434
L14475 18396
L14475 18359
L14493 18321
L14512 18303
L14550 18284
L14643 18284
L14700 18303
" />
<path d="M14831 18284
L14925 18678
L15000 18396
L15074 18678
L15168 18284
" />
<path d="M15281 18284
L15524 18284
L15393 18434
L15449 18434
L15487 18453
L15506 18471
L15524 18509
L15524 18603
L15506 18640
L15487 18659
L15449 18678
L15337 18678
L15299 18659
L15281 18640
" />
<path d="M4200 18659
L4256 18678
L4350 18678
L4387 18659
L4406 18640
L4425 18603
L4425 18565
L4406 18528
L4387 18509
L4350 18490
L4275 18471
L4237 18453
L4218 18434
L4200 18396
L4200 18359
L4218 18321
L4237 18303
L4275 18284
L4368 18284
L4425 18303
" />
<path d="M4556 18284
L4650 18678
L4725 18396
L4799 18678
L4893 18284
" />
<path d="M5249 18678
L5024 18678
" />
<path d="M5137 18678
L5137 18284
L5099 18340
L5062 18378
L5024 18396
" />
<path d="M9317 18659
L9373 18678
L9467 18678
L9505 18659
L9523 18640
L9542 18603
L9542 18565
L9523 18528
L9505 18509
L9467 18490
L9392 18471
L9355 18453
L9336 18434
L9317 18396
L9317 18359
L9336 18321
L9355 18303
L9392 18284
L9486 18284
L9542 18303
" />
<path d="M9673 18284
L9767 18678
L9842 18396
L9917 18678
L10011 18284
" />
<path d="M10142 18321
L10161 18303
L10198 18284
L10292 18284
L10329 18303
L10348 18321
L10367 18359
L10367 18396
L10348 18453
L10123 18678
L10367 18678
" />
<path d="M16534 16240
L16515 16259
L16459 16278
L16421 16278
L16365 16259
L16328 16221
L16309 16184
L16290 16109
L16290 16053
L16309 15978
L16328 15940
L16365 15903
L16421 15884
L16459 15884
L16515 15903
L16534 15921
" />
<path d="M16871 16015
L16871 16278
" />
<path d="M16778 15865
L16684 16146
L16928 16146
" />
<path d="M12884 13890
L12865 13909
L12809 13928
L12771 13928
L12715 13909
L12678 13871
L12659 13834
L12640 13759
L12640 13703
L12659 13628
L12678 13590
L12715 13553
L12771 13534
L12809 13534
L12865 13553
L12884 13571
" />
<path d="M13240 13534
L13053 13534
L13034 13721
L13053 13703
L13090 13684
L13184 13684
L13221 13703
L13240 13721
L13259 13759
L13259 13853
L13240 13890
L13221 13909
L13184 13928
L13090 13928
L13053 13909
L13034 13890
" />
<path d="M18462 13128
L18068 13128
L18068 13034
L18087 12978
L18124 12940
L18162 12921
L18237 12903
L18293 12903
L18368 12921
L18406 12940
L18443 12978
L18462 13034
L18462 13128
" />
<path d="M18462 12528
L18462 12753
" />
<path d="M18462 12640
L18068 12640
L18124 12678
L18162 12715
L18181 12753
" />
<path d="M18068 12284
L18068 12246
L18087 12209
L18106 12190
L18143 12171
L18218 12153
L18312 12153
L18387 12171
L18424 12190
L18443 12209
L18462 12246
L18462 12284
L18443 12321
L18424 12340
L18387 12359
L18312 12378
L18218 12378
L18143 12359
L18106 12340
L18087 12321
L18068 12284
" />
<path d="M5648 10565
L5461 10696
" />
<path d="M5648 10790
L5255 10790
L5255 10640
L5274 10603
L5292 10584
L5330 10565
L5386 10565
L5423 10584
L5442 10603
L5461 10640
L5461 10790
" />
<path d="M5648 10190
L5648 10415
" />
<path d="M5648 10303
L5255 10303
L5311 10340
L5349 10378
L5367 10415
" />
<path d="M7998 2015
L7811 2146
" />
<path d="M7998 2240
L7605 2240
L7605 2090
L7624 2053
L7642 2034
L7680 2015
L7736 2015
L7773 2034
L7792 2053
L7811 2090
L7811 2240
" />
<path d="M7642 1865
L7624 1846
L7605 1809
L7605 1715
L7624 1678
L7642 1659
L7680 1640
L7717 1640
L7773 1659
L7998 1884
L7998 1640
" />
<path d="M10853 5615
L10665 5746
" />
<path d="M10853 5840
L10459 5840
L10459 5690
L10478 5653
L10496 5634
L10534 5615
L10590 5615
L10628 5634
L10646 5653
L10665 5690
L10665 5840
" />
<path d="M10459 5484
L10459 5240
L10609 5371
L10609 5315
L10628 5278
L10646 5259
L10684 5240
L10778 5240
L10815 5259
L10834 5278
L10853 5315
L10853 5428
L10834 5465
L10815 5484
" />
<path d="M11378 5615
L11190 5746
" />
<path d="M11378 5840
L10984 5840
L10984 5690
L11003 5653
L11021 5634
L11059 5615
L11115 5615
L11153 5634
L11171 5653
L11190 5690
L11190 5840
" />
<path d="M11115 5278
L11378 5278
" />
<path d="M10965 5371
L11246 5465
L11246 5221
" />
<path d="M11534 18478
L11403 18290
" />
<path d="M11309 18478
L11309 18084
L11459 18084
L11496 18103
L11515 18121
L11534 18159
L11534 18215
L11515 18253
L11496 18271
L11459 18290
L11309 18290
" />
<path d="M11890 18084
L11703 18084
L11684 18271
L11703 18253
L11740 18234
L11834 18234
L11871 18253
L11890 18271
L11909 18309
L11909 18403
L11890 18440
L11871 18459
L11834 18478
L11740 18478
L11703 18459
L11684 18440
" />
<path d="M11534 18928
L11403 18740
" />
<path d="M11309 18928
L11309 18534
L11459 18534
L11496 18553
L11515 18571
L11534 18609
L11534 18665
L11515 18703
L11496 18721
L11459 18740
L11309 18740
" />
<path d="M11871 18534
L11796 18534
L11759 18553
L11740 18571
L11703 18628
L11684 18703
L11684 18853
L11703 18890
L11721 18909
L11759 18928
L11834 18928
L11871 18909
L11890 18890
L11909 18853
L11909 18759
L11890 18721
L11871 18703
L11834 18684
L11759 18684
L11721 18703
L11703 18721
L11684 18759
" />
<path d="M8134 18878
L8003 18690
" />
<path d="M7909 18878
L7909 18484
L8059 18484
L8096 18503
L8115 18521
L8134 18559
L8134 18615
L8115 18653
L8096 18671
L8059 18690
L7909 18690
" />
<path d="M8265 18484
L8528 18484
L8359 18878
" />
<path d="M6359 18503
L6228 18315
" />
<path d="M6134 18503
L6134 18109
L6284 18109
L6321 18128
L6340 18146
L6359 18184
L6359 18240
L6340 18278
L6321 18296
L6284 18315
L6134 18315
" />
<path d="M6584 18278
L6546 18259
L6528 18240
L6509 18203
L6509 18184
L6528 18146
L6546 18128
L6584 18109
L6659 18109
L6696 18128
L6715 18146
L6734 18184
L6734 18203
L6715 18240
L6696 18259
L6659 18278
L6584 18278
L6546 18296
L6528 18315
L6509 18353
L6509 18428
L6528 18465
L6546 18484
L6584 18503
L6659 18503
L6696 18484
L6715 18465
L6734 18428
L6734 18353
L6715 18315
L6696 18296
L6659 18278
" />
<path d="M13284 18678
L13153 18490
" />
<path d="M13059 18678
L13059 18284
L13209 18284
L13246 18303
L13265 18321
L13284 18359
L13284 18415
L13265 18453
L13246 18471
L13209 18490
L13059 18490
" />
<path d="M13471 18678
L13546 18678
L13584 18659
L13603 18640
L13640 18584
L13659 18509
L13659 18359
L13640 18321
L13621 18303
L13584 18284
L13509 18284
L13471 18303
L13453 18321
L13434 18359
L13434 18453
L13453 18490
L13471 18509
L13509 18528
L13584 18528
L13621 18509
L13640 18490
L13659 18453
" />
<path d="M12428 10078
L12240 10209
" />
<path d="M12428 10303
L12034 10303
L12034 10153
L12053 10115
L12071 10096
L12109 10078
L12165 10078
L12203 10096
L12221 10115
L12240 10153
L12240 10303
" />
<path d="M12428 9703
L12428 9928
" />
<path d="M12428 9815
L12034 9815
L12090 9853
L12128 9890
L12146 9928
" />
<path d="M12034 9459
L12034 9421
L12053 9384
L12071 9365
L12109 9346
L12184 9328
L12278 9328
L12353 9346
L12390 9365
L12409 9384
L12428 9421
L12428 9459
L12409 9496
L12390 9515
L12353 9534
L12278 9553
L12184 9553
L12109 9534
L12071 9515
L12053 9496
L12034 9459
" />
<path d="M10198 3453
L10011 3584
" />
<path d="M10198 3678
L9805 3678
L9805 3528
L9824 3490
L9842 3471
L9880 3453
L9936 3453
L9973 3471
L9992 3490
L10011 3528
L10011 3678
" />
<path d="M10198 3078
L10198 3303
" />
<path d="M10198 3190
L9805 3190
L9861 3228
L9899 3265
L9917 3303
" />
<path d="M9805 2946
L9805 2703
L9955 2834
L9955 2778
L9973 2740
L9992 2721
L10030 2703
L10123 2703
L10161 2721
L10180 2740
L10198 2778
L10198 2890
L10180 2928
L10161 2946
" />
<path d="M10798 3453
L10611 3584
" />
<path d="M10798 3678
L10405 3678
L10405 3528
L10424 3490
L10442 3471
L10480 3453
L10536 3453
L10573 3471
L10592 3490
L10611 3528
L10611 3678
" />
<path d="M10798 3078
L10798 3303
" />
<path d="M10798 3190
L10405 3190
L10461 3228
L10499 3265
L10517 3303
" />
<path d="M10536 2740
L10798 2740
" />
<path d="M10386 2834
L10667 2928
L10667 2684
" />
<path d="M10198 1053
L10011 1184
" />
<path d="M10198 1278
L9805 1278
L9805 1128
L9824 1090
L9842 1071
L9880 1053
L9936 1053
L9973 1071
L9992 1090
L10011 1128
L10011 1278
" />
<path d="M10198 678
L10198 903
" />
<path d="M10198 790
L9805 790
L9861 828
L9899 865
L9917 903
" />
<path d="M9805 321
L9805 509
L9992 528
L9973 509
L9955 471
L9955 378
L9973 340
L9992 321
L10030 303
L10123 303
L10161 321
L10180 340
L10198 378
L10198 471
L10180 509
L10161 528
" />
<path d="M10798 1053
L10611 1184
" />
<path d="M10798 1278
L10405 1278
L10405 1128
L10424 1090
L10442 1071
L10480 1053
L10536 1053
L10573 1071
L10592 1090
L10611 1128
L10611 1278
" />
<path d="M10798 678
L10798 903
" />
<path d="M10798 790
L10405 790
L10461 828
L10499 865
L10517 903
" />
<path d="M10405 340
L10405 415
L10424 453
L10442 471
L10499 509
L10573 528
L10723 528
L10761 509
L10780 490
L10798 453
L10798 378
L10780 340
L10761 321
L10723 303
L10630 303
L10592 321
L10573 340
L10555 378
L10555 453
L10573 490
L10592 509
L10630 528
" />
<path d="M10428 10078
L10240 10209
" />
<path d="M10428 10303
L10034 10303
L10034 10153
L10053 10115
L10071 10096
L10109 10078
L10165 10078
L10203 10096
L10221 10115
L10240 10153
L10240 10303
" />
<path d="M10428 9703
L10428 9928
" />
<path d="M10428 9815
L10034 9815
L10090 9853
L10128 9890
L10146 9928
" />
<path d="M10428 9515
L10428 9440
L10409 9403
L10390 9384
L10334 9346
L10259 9328
L10109 9328
L10071 9346
L10053 9365
L10034 9403
L10034 9478
L10053 9515
L10071 9534
L10109 9553
L10203 9553
L10240 9534
L10259 9515
L10278 9478
L10278 9403
L10259 9365
L10240 9346
L10203 9328
" />
<path d="M11428 10078
L11240 10209
" />
<path d="M11428 10303
L11034 10303
L11034 10153
L11053 10115
L11071 10096
L11109 10078
L11165 10078
L11203 10096
L11221 10115
L11240 10153
L11240 10303
" />
<path d="M11071 9928
L11053 9909
L11034 9871
L11034 9778
L11053 9740
L11071 9721
L11109 9703
L11146 9703
L11203 9721
L11428 9946
L11428 9703
" />
<path d="M11034 9459
L11034 9421
L11053 9384
L11071 9365
L11109 9346
L11184 9328
L11278 9328
L11353 9346
L11390 9365
L11409 9384
L11428 9421
L11428 9459
L11409 9496
L11390 9515
L11353 9534
L11278 9553
L11184 9553
L11109 9534
L11071 9515
L11053 9496
L11034 9459
" />
<path d="M18028 9365
L17634 9365
L17634 9271
L17653 9215
L17690 9178
L17728 9159
L17803 9140
L17859 9140
L17934 9159
L17971 9178
L18009 9215
L18028 9271
L18028 9365
" />
<path d="M17671 8990
L17653 8971
L17634 8934
L17634 8840
L17653 8803
L17671 8784
L17709 8765
L17746 8765
L17803 8784
L18028 9009
L18028 8765
" />
<path d="M18028 8215
L17634 8215
L17634 8121
L17653 8065
L17690 8028
L17728 8009
L17803 7990
L17859 7990
L17934 8009
L17971 8028
L18009 8065
L18028 8121
L18028 8215
" />
<path d="M17634 7634
L17634 7821
L17821 7840
L17803 7821
L17784 7784
L17784 7690
L17803 7653
L17821 7634
L17859 7615
L17953 7615
L17990 7634
L18009 7653
L18028 7690
L18028 7784
L18009 7821
L17990 7840
" />
<path d="M18028 5215
L17634 5215
L17634 5121
L17653 5065
L17690 5028
L17728 5009
L17803 4990
L17859 4990
L17934 5009
L17971 5028
L18009 5065
L18028 5121
L18028 5215
" />
<path d="M17634 4859
L17634 4596
L18028 4765
" />
<path d="M18843 8567
L18843 8848
L18825 8904
L18787 8942
L18731 8960
L18693 8960
" />
<path d="M19012 8604
L19031 8585
L19068 8567
L19162 8567
L19199 8585
L19218 8604
L19237 8642
L19237 8679
L19218 8735
L18993 8960
L19237 8960
" />
<path d="M18843 5567
L18843 5848
L18825 5904
L18787 5942
L18731 5960
L18693 5960
" />
<path d="M19199 5698
L19199 5960
" />
<path d="M19106 5548
L19012 5829
L19256 5829
" />
<path d="M18843 2567
L18843 2848
L18825 2904
L18787 2942
L18731 2960
L18693 2960
" />
<path d="M19218 2567
L19031 2567
L19012 2754
L19031 2735
L19068 2717
L19162 2717
L19199 2735
L19218 2754
L19237 2792
L19237 2885
L19218 2923
L19199 2942
L19162 2960
L19068 2960
L19031 2942
L19012 2923
" />
<path d="M18843 13634
L18843 13915
L18825 13971
L18787 14009
L18731 14028
L18693 14028
" />
<path d="M18993 13634
L19256 13634
L19087 14028
" />
<path d="M17140 9165
L17159 9184
L17178 9240
L17178 9278
L17159 9334
L17121 9371
L17084 9390
L17009 9409
L16953 9409
L16878 9390
L16840 9371
L16803 9334
L16784 9278
L16784 9240
L16803 9184
L16821 9165
" />
<path d="M17178 8790
L17178 9015
" />
<path d="M17178 8903
L16784 8903
L16840 8940
L16878 8978
L16896 9015
" />
<path d="M17140 7990
L17159 8009
L17178 8065
L17178 8103
L17159 8159
L17121 8196
L17084 8215
L17009 8234
L16953 8234
L16878 8215
L16840 8196
L16803 8159
L16784 8103
L16784 8065
L16803 8009
L16821 7990
" />
<path d="M16821 7840
L16803 7821
L16784 7784
L16784 7690
L16803 7653
L16821 7634
L16859 7615
L16896 7615
L16953 7634
L17178 7859
L17178 7615
" />
<path d="M17140 4965
L17159 4984
L17178 5040
L17178 5078
L17159 5134
L17121 5171
L17084 5190
L17009 5209
L16953 5209
L16878 5190
L16840 5171
L16803 5134
L16784 5078
L16784 5040
L16803 4984
L16821 4965
" />
<path d="M16784 4834
L16784 4590
L16934 4721
L16934 4665
L16953 4628
L16971 4609
L17009 4590
L17103 4590
L17140 4609
L17159 4628
L17178 4665
L17178 4778
L17159 4815
L17140 4834
" />
<path d="M2334 10464
L2652 10464
L2690 10446
L2709 10427
L2727 10389
L2727 10314
L2709 10277
L2690 10258
L2652 10239
L2334 10239
" />
<path d="M2727 9846
L2727 10071
" />
<path d="M2727 9958
L2334 9958
L2390 9996
L2427 10033
L2446 10071
" />
<path d="M843 13567
L843 13848
L825 13904
L787 13942
L731 13960
L693 13960
" />
<path d="M993 13567
L1237 13567
L1106 13717
L1162 13717
L1199 13735
L1218 13754
L1237 13792
L1237 13885
L1218 13923
L1199 13942
L1162 13960
L1049 13960
L1012 13942
L993 13923
" />
<path d="M843 10567
L843 10848
L825 10904
L787 10942
L731 10960
L693 10960
" />
<path d="M1199 10567
L1124 10567
L1087 10585
L1068 10604
L1031 10660
L1012 10735
L1012 10885
L1031 10923
L1049 10942
L1087 10960
L1162 10960
L1199 10942
L1218 10923
L1237 10885
L1237 10792
L1218 10754
L1199 10735
L1162 10717
L1087 10717
L1049 10735
L1031 10754
L1012 10792
" />
<path d="M3221 14028
L3090 13840
" />
<path d="M2996 14028
L2996 13634
L3146 13634
L3184 13653
L3203 13671
L3221 13709
L3221 13765
L3203 13803
L3184 13821
L3146 13840
L2996 13840
" />
<path d="M3596 14028
L3371 14028
" />
<path d="M3484 14028
L3484 13634
L3446 13690
L3409 13728
L3371 13746
" />
<path d="M3971 14028
L3746 14028
" />
<path d="M3859 14028
L3859 13634
L3821 13690
L3784 13728
L3746 13746
" />
<path d="M4271 14028
L4140 13840
" />
<path d="M4046 14028
L4046 13634
L4196 13634
L4234 13653
L4253 13671
L4271 13709
L4271 13765
L4253 13803
L4234 13821
L4196 13840
L4046 13840
" />
<path d="M4646 14028
L4421 14028
" />
<path d="M4534 14028
L4534 13634
L4496 13690
L4459 13728
L4421 13746
" />
<path d="M4796 13671
L4815 13653
L4853 13634
L4946 13634
L4984 13653
L5003 13671
L5021 13709
L5021 13746
L5003 13803
L4778 14028
L5021 14028
" />
<path d="M3246 11278
L3115 11090
" />
<path d="M3021 11278
L3021 10884
L3171 10884
L3209 10903
L3228 10921
L3246 10959
L3246 11015
L3228 11053
L3209 11071
L3171 11090
L3021 11090
" />
<path d="M3621 11278
L3396 11278
" />
<path d="M3509 11278
L3509 10884
L3471 10940
L3434 10978
L3396 10996
" />
<path d="M3753 10884
L4015 10884
L3846 11278
" />
<path d="M5346 11803
L5215 11615
" />
<path d="M5121 11803
L5121 11409
L5271 11409
L5309 11428
L5328 11446
L5346 11484
L5346 11540
L5328 11578
L5309 11596
L5271 11615
L5121 11615
" />
<path d="M5721 11803
L5496 11803
" />
<path d="M5609 11803
L5609 11409
L5571 11465
L5534 11503
L5496 11521
" />
<path d="M5946 11578
L5909 11559
L5890 11540
L5871 11503
L5871 11484
L5890 11446
L5909 11428
L5946 11409
L6021 11409
L6059 11428
L6078 11446
L6096 11484
L6096 11503
L6078 11540
L6059 11559
L6021 11578
L5946 11578
L5909 11596
L5890 11615
L5871 11653
L5871 11728
L5890 11765
L5909 11784
L5946 11803
L6021 11803
L6059 11784
L6078 11765
L6096 11728
L6096 11653
L6078 11615
L6059 11596
L6021 11578
" />
<path d="M1700 14109
L1700 14428
L1718 14465
L1737 14484
L1775 14503
L1850 14503
L1887 14484
L1906 14465
L1925 14428
L1925 14109
" />
<path d="M2093 14146
L2112 14128
L2149 14109
L2243 14109
L2281 14128
L2299 14146
L2318 14184
L2318 14221
L2299 14278
L2074 14503
L2318 14503
" />
<path d="M1700 11359
L1700 11678
L1718 11715
L1737 11734
L1775 11753
L1850 11753
L1887 11734
L1906 11715
L1925 11678
L1925 11359
" />
<path d="M2074 11359
L2318 11359
L2187 11509
L2243 11509
L2281 11528
L2299 11546
L2318 11584
L2318 11678
L2299 11715
L2281 11734
L2243 11753
L2131 11753
L2093 11734
L2074 11715
" />
<path d="M12712 7215
L12675 7196
L12637 7159
L12581 7103
L12543 7084
L12506 7084
" />
<path d="M12525 7178
L12487 7159
L12450 7121
L12431 7046
L12431 6915
L12450 6840
L12487 6803
L12525 6784
L12600 6784
L12637 6803
L12675 6840
L12693 6915
L12693 7046
L12675 7121
L12637 7159
L12600 7178
L12525 7178
" />
<path d="M13068 7178
L12843 7178
" />
<path d="M12956 7178
L12956 6784
L12918 6840
L12881 6878
L12843 6896
" />
<path d="M12712 4415
L12675 4396
L12637 4359
L12581 4303
L12543 4284
L12506 4284
" />
<path d="M12525 4378
L12487 4359
L12450 4321
L12431 4246
L12431 4115
L12450 4040
L12487 4003
L12525 3984
L12600 3984
L12637 4003
L12675 4040
L12693 4115
L12693 4246
L12675 4321
L12637 4359
L12600 4378
L12525 4378
" />
<path d="M12843 4021
L12862 4003
L12899 3984
L12993 3984
L13031 4003
L13049 4021
L13068 4059
L13068 4096
L13049 4153
L12824 4378
L13068 4378
" />
<path d="M12712 1615
L12675 1596
L12637 1559
L12581 1503
L12543 1484
L12506 1484
" />
<path d="M12525 1578
L12487 1559
L12450 1521
L12431 1446
L12431 1315
L12450 1240
L12487 1203
L12525 1184
L12600 1184
L12637 1203
L12675 1240
L12693 1315
L12693 1446
L12675 1521
L12637 1559
L12600 1578
L12525 1578
" />
<path d="M12824 1184
L13068 1184
L12937 1334
L12993 1334
L13031 1353
L13049 1371
L13068 1409
L13068 1503
L13049 1540
L13031 1559
L12993 1578
L12881 1578
L12843 1559
L12824 1540
" />
</g> 
</svg>
