<?xml version="1.0" standalone="no"?>
 <!DOCTYPE svg PUBLIC "-//W3C//DTD SVG 1.1//EN" 
 "http://www.w3.org/Graphics/SVG/1.1/DTD/svg11.dtd"> 
<svg xmlns="http://www.w3.org/2000/svg" version="1.1" 
    width="29.7002cm" height="21.0007cm" viewBox="0 0 116930 82680 ">
<title>SVG Picture created as reservoir_controller-B.SilkS.svg date 2018/09/20 19:04:20 </title>
  <desc>Picture generated by PCBNEW </desc>
<g style="fill:#000000; fill-opacity:1;stroke:#000000; stroke-opacity:1;
stroke-linecap:round; stroke-linejoin:round; "
 transform="translate(0 0) scale(1 1)">
</g>
<g style="fill:#000000; fill-opacity:0.0; 
stroke:#000000; stroke-width:-0.000393701; stroke-opacity:1; 
stroke-linecap:round; stroke-linejoin:round;">
</g>
<g style="fill:#000000; fill-opacity:0.0; 
stroke:#000000; stroke-width:78.7402; stroke-opacity:1; 
stroke-linecap:round; stroke-linejoin:round;">
<path d="M16730 878
L16730 484
" />
<path d="M16561 878
L16561 671
L16580 634
L16618 615
L16674 615
L16711 634
L16730 653
" />
<path d="M16430 615
L16280 615
" />
<path d="M16374 484
L16374 821
L16355 859
L16318 878
L16280 878
" />
<path d="M16205 615
L16055 615
" />
<path d="M16149 484
L16149 821
L16130 859
L16093 878
L16055 878
" />
<path d="M15924 615
L15924 1009
" />
<path d="M15924 634
L15886 615
L15811 615
L15774 634
L15755 653
L15736 690
L15736 803
L15755 840
L15774 859
L15811 878
L15886 878
L15924 859
" />
<path d="M15587 859
L15549 878
L15474 878
L15437 859
L15418 821
L15418 803
L15437 765
L15474 746
L15530 746
L15568 728
L15587 690
L15587 671
L15568 634
L15530 615
L15474 615
L15437 634
" />
<path d="M15249 840
L15230 859
L15249 878
L15268 859
L15249 840
L15249 878
" />
<path d="M15249 634
L15230 653
L15249 671
L15268 653
L15249 634
L15249 671
" />
<path d="M14780 465
L15118 971
" />
<path d="M14368 465
L14705 971
" />
<path d="M14237 878
L14237 484
" />
<path d="M14237 634
L14199 615
L14124 615
L14087 634
L14068 653
L14049 690
L14049 803
L14068 840
L14087 859
L14124 878
L14199 878
L14237 859
" />
<path d="M13824 878
L13862 859
L13880 821
L13880 484
" />
<path d="M13618 878
L13656 859
L13674 840
L13693 803
L13693 690
L13674 653
L13656 634
L13618 615
L13562 615
L13524 634
L13506 653
L13487 690
L13487 803
L13506 840
L13524 859
L13562 878
L13618 878
" />
<path d="M13149 615
L13149 934
L13168 971
L13187 990
L13224 1009
L13281 1009
L13318 990
" />
<path d="M13149 859
L13187 878
L13262 878
L13299 859
L13318 840
L13337 803
L13337 690
L13318 653
L13299 634
L13262 615
L13187 615
L13149 634
" />
<path d="M12962 840
L12943 859
L12962 878
L12981 859
L12962 840
L12962 878
" />
<path d="M12606 878
L12606 671
L12624 634
L12662 615
L12737 615
L12774 634
" />
<path d="M12606 859
L12643 878
L12737 878
L12774 859
L12793 821
L12793 784
L12774 746
L12737 728
L12643 728
L12606 709
" />
<path d="M12362 878
L12399 859
L12418 821
L12418 484
" />
<path d="M12062 859
L12099 878
L12174 878
L12212 859
L12231 821
L12231 671
L12212 634
L12174 615
L12099 615
L12062 634
L12043 671
L12043 709
L12231 746
" />
<path d="M11912 878
L11706 615
" />
<path d="M11912 615
L11706 878
" />
<path d="M11387 878
L11387 671
L11406 634
L11443 615
L11518 615
L11556 634
" />
<path d="M11387 859
L11425 878
L11518 878
L11556 859
L11575 821
L11575 784
L11556 746
L11518 728
L11425 728
L11387 709
" />
<path d="M11200 615
L11200 878
" />
<path d="M11200 653
L11181 634
L11143 615
L11087 615
L11050 634
L11031 671
L11031 878
" />
<path d="M10675 878
L10675 484
" />
<path d="M10675 859
L10712 878
L10787 878
L10825 859
L10843 840
L10862 803
L10862 690
L10843 653
L10825 634
L10787 615
L10712 615
L10675 634
" />
<path d="M10337 859
L10375 878
L10450 878
L10487 859
L10506 821
L10506 671
L10487 634
L10450 615
L10375 615
L10337 634
L10318 671
L10318 709
L10506 746
" />
<path d="M10150 878
L10150 615
" />
<path d="M10150 690
L10131 653
L10112 634
L10075 615
L10037 615
" />
<path d="M9906 728
L9606 728
" />
<path d="M9475 615
L9325 615
" />
<path d="M9419 484
L9419 821
L9400 859
L9362 878
L9325 878
" />
<path d="M9025 615
L9025 878
" />
<path d="M9194 615
L9194 821
L9175 859
L9137 878
L9081 878
L9044 859
L9025 840
" />
<path d="M8875 878
L8669 615
" />
<path d="M8875 615
L8669 878
" />
<path d="M8369 859
L8406 878
L8481 878
L8519 859
L8537 821
L8537 671
L8519 634
L8481 615
L8406 615
L8369 634
L8350 671
L8350 709
L8537 746
" />
<path d="M8181 615
L8181 878
" />
<path d="M8181 653
L8162 634
L8125 615
L8069 615
L8031 634
L8012 671
L8012 878
" />
<path d="M7825 840
L7806 859
L7825 878
L7844 859
L7825 840
L7825 878
" />
<path d="M7469 878
L7469 484
" />
<path d="M7469 859
L7506 878
L7581 878
L7619 859
L7638 840
L7656 803
L7656 690
L7638 653
L7619 634
L7581 615
L7506 615
L7469 634
" />
<path d="M7131 859
L7169 878
L7244 878
L7281 859
L7300 821
L7300 671
L7281 634
L7244 615
L7169 615
L7131 634
L7113 671
L7113 709
L7300 746
" />
<path d="M6663 465
L7000 971
" />
<path d="M17675 3668
L18274 3668
" />
<path d="M18475 4200
L17475 4200
" />
<path d="M17475 5200
L18475 5200
" />
<path d="M17700 4693
L18299 4693
" />
<path d="M18000 4393
L18000 4993
" />
<path d="M18475 5200
L18475 3200
" />
<path d="M18475 3200
L17475 3200
" />
<path d="M17475 3200
L17475 5200
" />
<path d="M17700 7693
L18299 7693
" />
<path d="M18000 7393
L18000 7993
" />
<path d="M18475 8200
L18475 6200
" />
<path d="M17675 6668
L18274 6668
" />
<path d="M17475 8200
L18475 8200
" />
<path d="M18475 7200
L17475 7200
" />
<path d="M18475 6200
L17475 6200
" />
<path d="M17475 6200
L17475 8200
" />
<path d="M18475 9200
L17475 9200
" />
<path d="M17700 10693
L18299 10693
" />
<path d="M18000 10393
L18000 10993
" />
<path d="M18475 11200
L18475 9200
" />
<path d="M17475 9200
L17475 11200
" />
<path d="M17675 9668
L18274 9668
" />
<path d="M18475 10200
L17475 10200
" />
<path d="M17475 11200
L18475 11200
" />
<path d="M17500 15200
L18500 15200
" />
<path d="M17500 14200
L17500 16200
" />
<path d="M18500 14200
L17500 14200
" />
<path d="M18500 16200
L18500 14200
" />
<path d="M17500 16200
L18500 16200
" />
<path d="M3709 14003
L3709 13609
" />
<path d="M3521 13740
L3521 14003
" />
<path d="M3521 13778
L3503 13759
L3465 13740
L3409 13740
L3371 13759
L3353 13796
L3353 14003
" />
<path d="M3165 13740
L3165 14134
" />
<path d="M3165 13759
L3128 13740
L3053 13740
L3015 13759
L2996 13778
L2978 13815
L2978 13928
L2996 13965
L3015 13984
L3053 14003
L3128 14003
L3165 13984
" />
<path d="M2640 13740
L2640 14003
" />
<path d="M2809 13740
L2809 13946
L2790 13984
L2753 14003
L2696 14003
L2659 13984
L2640 13965
" />
<path d="M2509 13740
L2359 13740
" />
<path d="M2453 13609
L2453 13946
L2434 13984
L2396 14003
L2359 14003
" />
<path d="M1946 13646
L1928 13628
L1890 13609
L1796 13609
L1759 13628
L1740 13646
L1722 13684
L1722 13721
L1740 13778
L1965 14003
L1722 14003
" />
</g>
<g style="fill:#000000; fill-opacity:0.0; 
stroke:#000000; stroke-width:59.0551; stroke-opacity:1; 
stroke-linecap:round; stroke-linejoin:round;">
</g>
<g style="fill:#000000; fill-opacity:1.0; 
stroke:#000000; stroke-width:59.0551; stroke-opacity:1; 
stroke-linecap:round; stroke-linejoin:round;">
<polyline style="fill-rule:evenodd;"
points="1675,16150
1675,14275
10950,14275
10950,16150
1675,16150
" /> 
<polyline style="fill-rule:evenodd;"
points="1675,13150
1675,11275
10950,11275
10950,13150
1675,13150
" /> 
</g>
<g style="fill:#000000; fill-opacity:0.0; 
stroke:#000000; stroke-width:59.0551; stroke-opacity:1; 
stroke-linecap:round; stroke-linejoin:round;">
</g>
<g style="fill:#000000; fill-opacity:0.0; 
stroke:#000000; stroke-width:78.7402; stroke-opacity:1; 
stroke-linecap:round; stroke-linejoin:round;">
<path d="M3709 11003
L3709 10609
" />
<path d="M3521 10740
L3521 11003
" />
<path d="M3521 10778
L3503 10759
L3465 10740
L3409 10740
L3371 10759
L3353 10796
L3353 11003
" />
<path d="M3165 10740
L3165 11134
" />
<path d="M3165 10759
L3128 10740
L3053 10740
L3015 10759
L2996 10778
L2978 10815
L2978 10928
L2996 10965
L3015 10984
L3053 11003
L3128 11003
L3165 10984
" />
<path d="M2640 10740
L2640 11003
" />
<path d="M2809 10740
L2809 10946
L2790 10984
L2753 11003
L2696 11003
L2659 10984
L2640 10965
" />
<path d="M2509 10740
L2359 10740
" />
<path d="M2453 10609
L2453 10946
L2434 10984
L2396 11003
L2359 11003
" />
<path d="M1722 11003
L1946 11003
" />
<path d="M1834 11003
L1834 10609
L1871 10665
L1909 10703
L1946 10721
" />
<path d="M17209 8584
L17134 8584
L17096 8603
L17059 8640
L17040 8715
L17040 8846
L17059 8921
L17096 8959
L17134 8978
L17209 8978
L17246 8959
L17284 8921
L17302 8846
L17302 8715
L17284 8640
L17246 8603
L17209 8584
" />
<path d="M16703 8715
L16703 8978
" />
<path d="M16871 8715
L16871 8921
L16853 8959
L16815 8978
L16759 8978
L16721 8959
L16703 8940
" />
<path d="M16571 8715
L16421 8715
" />
<path d="M16515 8584
L16515 8921
L16496 8959
L16459 8978
L16421 8978
" />
<path d="M16290 8715
L16290 9109
" />
<path d="M16290 8734
L16253 8715
L16178 8715
L16140 8734
L16121 8753
L16103 8790
L16103 8903
L16121 8940
L16140 8959
L16178 8978
L16253 8978
L16290 8959
" />
<path d="M15765 8715
L15765 8978
" />
<path d="M15934 8715
L15934 8921
L15915 8959
L15878 8978
L15821 8978
L15784 8959
L15765 8940
" />
<path d="M15634 8715
L15484 8715
" />
<path d="M15578 8584
L15578 8921
L15559 8959
L15521 8978
L15484 8978
" />
<path d="M15090 8584
L14847 8584
L14978 8734
L14922 8734
L14884 8753
L14865 8771
L14847 8809
L14847 8903
L14865 8940
L14884 8959
L14922 8978
L15034 8978
L15072 8959
L15090 8940
" />
</g>
<g style="fill:#000000; fill-opacity:0.0; 
stroke:#000000; stroke-width:59.0551; stroke-opacity:1; 
stroke-linecap:round; stroke-linejoin:round;">
</g>
<g style="fill:#000000; fill-opacity:1.0; 
stroke:#000000; stroke-width:59.0551; stroke-opacity:1; 
stroke-linecap:round; stroke-linejoin:round;">
<polyline style="fill-rule:evenodd;"
points="8075,11150
8075,9275
17350,9275
17350,11150
8075,11150
" /> 
</g>
<g style="fill:#000000; fill-opacity:0.0; 
stroke:#000000; stroke-width:59.0551; stroke-opacity:1; 
stroke-linecap:round; stroke-linejoin:round;">
</g>
<g style="fill:#000000; fill-opacity:0.0; 
stroke:#000000; stroke-width:78.7402; stroke-opacity:1; 
stroke-linecap:round; stroke-linejoin:round;">
<path d="M17209 5584
L17134 5584
L17096 5603
L17059 5640
L17040 5715
L17040 5846
L17059 5921
L17096 5959
L17134 5978
L17209 5978
L17246 5959
L17284 5921
L17302 5846
L17302 5715
L17284 5640
L17246 5603
L17209 5584
" />
<path d="M16703 5715
L16703 5978
" />
<path d="M16871 5715
L16871 5921
L16853 5959
L16815 5978
L16759 5978
L16721 5959
L16703 5940
" />
<path d="M16571 5715
L16421 5715
" />
<path d="M16515 5584
L16515 5921
L16496 5959
L16459 5978
L16421 5978
" />
<path d="M16290 5715
L16290 6109
" />
<path d="M16290 5734
L16253 5715
L16178 5715
L16140 5734
L16121 5753
L16103 5790
L16103 5903
L16121 5940
L16140 5959
L16178 5978
L16253 5978
L16290 5959
" />
<path d="M15765 5715
L15765 5978
" />
<path d="M15934 5715
L15934 5921
L15915 5959
L15878 5978
L15821 5978
L15784 5959
L15765 5940
" />
<path d="M15634 5715
L15484 5715
" />
<path d="M15578 5584
L15578 5921
L15559 5959
L15521 5978
L15484 5978
" />
<path d="M15072 5621
L15053 5603
L15015 5584
L14922 5584
L14884 5603
L14865 5621
L14847 5659
L14847 5696
L14865 5753
L15090 5978
L14847 5978
" />
</g>
<g style="fill:#000000; fill-opacity:0.0; 
stroke:#000000; stroke-width:59.0551; stroke-opacity:1; 
stroke-linecap:round; stroke-linejoin:round;">
</g>
<g style="fill:#000000; fill-opacity:1.0; 
stroke:#000000; stroke-width:59.0551; stroke-opacity:1; 
stroke-linecap:round; stroke-linejoin:round;">
<polyline style="fill-rule:evenodd;"
points="8075,8150
8075,6275
17350,6275
17350,8150
8075,8150
" /> 
<polyline style="fill-rule:evenodd;"
points="8075,5150
8075,3275
17350,3275
17350,5150
8075,5150
" /> 
</g>
<g style="fill:#000000; fill-opacity:0.0; 
stroke:#000000; stroke-width:59.0551; stroke-opacity:1; 
stroke-linecap:round; stroke-linejoin:round;">
</g>
<g style="fill:#000000; fill-opacity:0.0; 
stroke:#000000; stroke-width:78.7402; stroke-opacity:1; 
stroke-linecap:round; stroke-linejoin:round;">
<path d="M16683 18109
L16683 17519
" />
<path d="M16317 18109
L16373 18081
L16401 18053
L16430 17997
L16430 17828
L16401 17772
L16373 17744
L16317 17716
L16233 17716
L16177 17744
L16148 17772
L16120 17828
L16120 17997
L16148 18053
L16177 18081
L16233 18109
L16317 18109
" />
<path d="M15952 17519
L15614 17519
" />
<path d="M15783 18109
L15783 17519
" />
<path d="M15417 17884
L14967 17884
" />
<path d="M14770 17519
L14433 17519
" />
<path d="M14602 18109
L14602 17519
" />
<path d="M14236 18109
L14236 17519
" />
<path d="M13983 18109
L13983 17800
L14011 17744
L14067 17716
L14152 17716
L14208 17744
L14236 17772
" />
<path d="M13702 18109
L13702 17716
" />
<path d="M13702 17519
L13730 17547
L13702 17575
L13674 17547
L13702 17519
L13702 17575
" />
<path d="M13421 17716
L13421 18109
" />
<path d="M13421 17772
L13392 17744
L13336 17716
L13252 17716
L13196 17744
L13168 17800
L13168 18109
" />
<path d="M12633 17716
L12633 18194
L12661 18250
L12689 18278
L12746 18306
L12830 18306
L12886 18278
" />
<path d="M12633 18081
L12689 18109
L12802 18109
L12858 18081
L12886 18053
L12914 17997
L12914 17828
L12886 17772
L12858 17744
L12802 17716
L12689 17716
L12633 17744
" />
<path d="M11986 17519
L11649 17519
" />
<path d="M11818 18109
L11818 17519
" />
<path d="M11508 17716
L11368 18109
" />
<path d="M11227 17716
L11368 18109
L11424 18250
L11452 18278
L11508 18306
" />
<path d="M11002 17716
L11002 18306
" />
<path d="M11002 17744
L10946 17716
L10833 17716
L10777 17744
L10749 17772
L10721 17828
L10721 17997
L10749 18053
L10777 18081
L10833 18109
L10946 18109
L11002 18081
" />
<path d="M10243 18081
L10299 18109
L10412 18109
L10468 18081
L10496 18025
L10496 17800
L10468 17744
L10412 17716
L10299 17716
L10243 17744
L10215 17800
L10215 17856
L10496 17913
" />
<path d="M9512 18109
L9512 17519
" />
<path d="M9118 17519
L9006 17519
L8949 17547
L8893 17603
L8865 17716
L8865 17913
L8893 18025
L8949 18081
L9006 18109
L9118 18109
L9174 18081
L9231 18025
L9259 17913
L9259 17716
L9231 17603
L9174 17547
L9118 17519
" />
<path d="M8415 17800
L8331 17828
L8303 17856
L8274 17913
L8274 17997
L8303 18053
L8331 18081
L8387 18109
L8612 18109
L8612 17519
L8415 17519
L8359 17547
L8331 17575
L8303 17631
L8303 17688
L8331 17744
L8359 17772
L8415 17800
L8612 17800
" />
<path d="M7740 18109
L8021 18109
L8021 17519
" />
<path d="M7543 17884
L7093 17884
" />
<path d="M6840 17575
L6812 17547
L6756 17519
L6615 17519
L6559 17547
L6531 17575
L6503 17631
L6503 17688
L6531 17772
L6868 18109
L6503 18109
" />
<path d="M6306 17519
L5940 17519
L6137 17744
L6053 17744
L5997 17772
L5968 17800
L5940 17856
L5940 17997
L5968 18053
L5997 18081
L6053 18109
L6222 18109
L6278 18081
L6306 18053
" />
<path d="M5743 17519
L5378 17519
L5575 17744
L5490 17744
L5434 17772
L5406 17800
L5378 17856
L5378 17997
L5406 18053
L5434 18081
L5490 18109
L5659 18109
L5715 18081
L5743 18053
" />
<path d="M5181 17519
L4815 17519
L5012 17744
L4928 17744
L4872 17772
L4844 17800
L4815 17856
L4815 17997
L4844 18053
L4872 18081
L4928 18109
L5097 18109
L5153 18081
L5181 18053
" />
<path d="M4141 17491
L4647 18250
" />
<path d="M3859 17772
L3916 17744
L3944 17716
L3972 17659
L3972 17631
L3944 17575
L3916 17547
L3859 17519
L3747 17519
L3691 17547
L3662 17575
L3634 17631
L3634 17659
L3662 17716
L3691 17744
L3747 17772
L3859 17772
L3916 17800
L3944 17828
L3972 17884
L3972 17997
L3944 18053
L3916 18081
L3859 18109
L3747 18109
L3691 18081
L3662 18053
L3634 17997
L3634 17884
L3662 17828
L3691 17800
L3747 17772
" />
<path d="M3409 17575
L3381 17547
L3325 17519
L3184 17519
L3128 17547
L3100 17575
L3072 17631
L3072 17688
L3100 17772
L3437 18109
L3072 18109
" />
<path d="M16739 18680
L16598 19074
L16458 18680
" />
<path d="M16120 18483
L16064 18483
L16008 18512
L15980 18540
L15952 18596
L15923 18708
L15923 18849
L15952 18961
L15980 19018
L16008 19046
L16064 19074
L16120 19074
L16177 19046
L16205 19018
L16233 18961
L16261 18849
L16261 18708
L16233 18596
L16205 18540
L16177 18512
L16120 18483
" />
<path d="M15670 19018
L15642 19046
L15670 19074
L15698 19046
L15670 19018
L15670 19074
" />
<path d="M15080 19074
L15417 19074
" />
<path d="M15249 19074
L15249 18483
L15305 18568
L15361 18624
L15417 18652
" />
<path d="M14264 18483
L14208 18483
L14152 18512
L14124 18540
L14096 18596
L14067 18708
L14067 18849
L14096 18961
L14124 19018
L14152 19046
L14208 19074
L14264 19074
L14321 19046
L14349 19018
L14377 18961
L14405 18849
L14405 18708
L14377 18596
L14349 18540
L14321 18512
L14264 18483
" />
<path d="M13871 18483
L13477 18483
L13730 19074
" />
<path d="M12830 18455
L13336 19215
" />
<path d="M12661 18540
L12633 18512
L12577 18483
L12436 18483
L12380 18512
L12352 18540
L12324 18596
L12324 18652
L12352 18736
L12689 19074
L12324 19074
" />
<path d="M11958 18483
L11902 18483
L11846 18512
L11818 18540
L11790 18596
L11761 18708
L11761 18849
L11790 18961
L11818 19018
L11846 19046
L11902 19074
L11958 19074
L12015 19046
L12043 19018
L12071 18961
L12099 18849
L12099 18708
L12071 18596
L12043 18540
L12015 18512
L11958 18483
" />
<path d="M11199 19074
L11536 19074
" />
<path d="M11368 19074
L11368 18483
L11424 18568
L11480 18624
L11536 18652
" />
<path d="M10862 18736
L10918 18708
L10946 18680
L10974 18624
L10974 18596
L10946 18540
L10918 18512
L10862 18483
L10749 18483
L10693 18512
L10665 18540
L10637 18596
L10637 18624
L10665 18680
L10693 18708
L10749 18736
L10862 18736
L10918 18765
L10946 18793
L10974 18849
L10974 18961
L10946 19018
L10918 19046
L10862 19074
L10749 19074
L10693 19046
L10665 19018
L10637 18961
L10637 18849
L10665 18793
L10693 18765
L10749 18736
" />
<path d="M17209 2584
L17134 2584
L17096 2603
L17059 2640
L17040 2715
L17040 2846
L17059 2921
L17096 2959
L17134 2978
L17209 2978
L17246 2959
L17284 2921
L17302 2846
L17302 2715
L17284 2640
L17246 2603
L17209 2584
" />
<path d="M16703 2715
L16703 2978
" />
<path d="M16871 2715
L16871 2921
L16853 2959
L16815 2978
L16759 2978
L16721 2959
L16703 2940
" />
<path d="M16571 2715
L16421 2715
" />
<path d="M16515 2584
L16515 2921
L16496 2959
L16459 2978
L16421 2978
" />
<path d="M16290 2715
L16290 3109
" />
<path d="M16290 2734
L16253 2715
L16178 2715
L16140 2734
L16121 2753
L16103 2790
L16103 2903
L16121 2940
L16140 2959
L16178 2978
L16253 2978
L16290 2959
" />
<path d="M15765 2715
L15765 2978
" />
<path d="M15934 2715
L15934 2921
L15915 2959
L15878 2978
L15821 2978
L15784 2959
L15765 2940
" />
<path d="M15634 2715
L15484 2715
" />
<path d="M15578 2584
L15578 2921
L15559 2959
L15521 2978
L15484 2978
" />
<path d="M14847 2978
L15072 2978
" />
<path d="M14959 2978
L14959 2584
L14997 2640
L15034 2678
L15072 2696
" />
<path d="M6359 3841
L6067 3841
L6224 4021
L6157 4021
L6112 4043
L6089 4066
L6067 4111
L6067 4223
L6089 4268
L6112 4291
L6157 4313
L6292 4313
L6337 4291
L6359 4268
" />
<path d="M5932 3841
L5775 4313
L5617 3841
" />
<path d="M6044 3288
L6202 3063
" />
<path d="M6314 3288
L6314 2816
L6134 2816
L6089 2838
L6067 2861
L6044 2906
L6044 2973
L6067 3018
L6089 3041
L6134 3063
L6314 3063
" />
<path d="M5865 3266
L5820 3288
L5730 3288
L5685 3266
L5662 3221
L5662 3198
L5685 3153
L5730 3131
L5797 3131
L5842 3108
L5865 3063
L5865 3041
L5842 2996
L5797 2973
L5730 2973
L5685 2996
" />
<path d="M5098 3998
L5098 4381
L5121 4426
L5143 4448
L5188 4471
L5256 4471
L5301 4448
" />
<path d="M5098 4291
L5143 4313
L5233 4313
L5278 4291
L5301 4268
L5323 4223
L5323 4088
L5301 4043
L5278 4021
L5233 3998
L5143 3998
L5098 4021
" />
<path d="M4783 3841
L4738 3841
L4693 3863
L4671 3886
L4648 3931
L4626 4021
L4626 4133
L4648 4223
L4671 4268
L4693 4291
L4738 4313
L4783 4313
L4828 4291
L4851 4268
L4873 4223
L4896 4133
L4896 4021
L4873 3931
L4851 3886
L4828 3863
L4783 3841
" />
<path d="M4876 2863
L4921 2841
L4988 2841
L5056 2863
L5101 2908
L5123 2953
L5146 3043
L5146 3111
L5123 3201
L5101 3246
L5056 3291
L4988 3313
L4943 3313
L4876 3291
L4853 3268
L4853 3111
L4943 3111
" />
<path d="M4044 4313
L4202 4088
" />
<path d="M4314 4313
L4314 3841
L4134 3841
L4089 3863
L4067 3886
L4044 3931
L4044 3998
L4067 4043
L4089 4066
L4134 4088
L4314 4088
" />
<path d="M3887 4313
L3640 3998
" />
<path d="M3887 3998
L3640 4313
" />
<path d="M4301 2816
L4031 2816
" />
<path d="M4166 3288
L4166 2816
" />
<path d="M3918 3288
L3671 2973
" />
<path d="M3918 2973
L3671 3288
" />
<path d="M6500 3575
L3450 3575
" />
<path d="M5475 4600
L5475 2550
" />
<path d="M4475 2550
L4475 4600
" />
<path d="M6500 2550
L3450 2550
" />
<path d="M6500 4600
L6500 2550
" />
<path d="M3450 4600
L6500 4600
" />
<path d="M3450 2550
L3450 4600
" />
<path d="M18299 15731
L17700 15731
" />
<path d="M18274 14706
L17675 14706
" />
<path d="M17975 15006
L17975 14406
" />
<path d="M17283 15009
L17283 14419
L17058 14419
L17001 14447
L16973 14475
L16945 14531
L16945 14616
L16973 14672
L17001 14700
L17058 14728
L17283 14728
" />
<path d="M16608 15009
L16664 14981
L16692 14953
L16720 14897
L16720 14728
L16692 14672
L16664 14644
L16608 14616
L16523 14616
L16467 14644
L16439 14672
L16411 14728
L16411 14897
L16439 14953
L16467 14981
L16523 15009
L16608 15009
" />
<path d="M16214 14616
L16102 15009
L15989 14728
L15877 15009
L15764 14616
" />
<path d="M15314 14981
L15370 15009
L15483 15009
L15539 14981
L15567 14925
L15567 14700
L15539 14644
L15483 14616
L15370 14616
L15314 14644
L15286 14700
L15286 14756
L15567 14813
" />
<path d="M15033 15009
L15033 14616
" />
<path d="M15033 14728
L15005 14672
L14977 14644
L14921 14616
L14864 14616
" />
<path d="M14246 14981
L14161 15009
L14021 15009
L13964 14981
L13936 14953
L13908 14897
L13908 14841
L13936 14784
L13964 14756
L14021 14728
L14133 14700
L14189 14672
L14217 14644
L14246 14588
L14246 14531
L14217 14475
L14189 14447
L14133 14419
L13992 14419
L13908 14447
" />
<path d="M13402 14616
L13402 15009
" />
<path d="M13655 14616
L13655 14925
L13627 14981
L13571 15009
L13486 15009
L13430 14981
L13402 14953
" />
<path d="M13121 14616
L13121 15206
" />
<path d="M13121 14644
L13064 14616
L12952 14616
L12896 14644
L12868 14672
L12840 14728
L12840 14897
L12868 14953
L12896 14981
L12952 15009
L13064 15009
L13121 14981
" />
<path d="M12586 14616
L12586 15206
" />
<path d="M12586 14644
L12530 14616
L12418 14616
L12361 14644
L12333 14672
L12305 14728
L12305 14897
L12333 14953
L12361 14981
L12418 15009
L12530 15009
L12586 14981
" />
<path d="M11968 15009
L12024 14981
L12052 14925
L12052 14419
" />
<path d="M11799 14616
L11658 15009
" />
<path d="M11518 14616
L11658 15009
L11715 15150
L11743 15178
L11799 15206
" />
<path d="M17001 15383
L17283 15383
L17311 15665
L17283 15636
L17226 15608
L17086 15608
L17030 15636
L17001 15665
L16973 15721
L16973 15861
L17001 15918
L17030 15946
L17086 15974
L17226 15974
L17283 15946
L17311 15918
" />
<path d="M16720 15749
L16270 15749
" />
<path d="M16045 15383
L15680 15383
L15877 15608
L15792 15608
L15736 15636
L15708 15665
L15680 15721
L15680 15861
L15708 15918
L15736 15946
L15792 15974
L15961 15974
L16017 15946
L16045 15918
" />
<path d="M15314 15383
L15258 15383
L15202 15412
L15174 15440
L15145 15496
L15117 15608
L15117 15749
L15145 15861
L15174 15918
L15202 15946
L15258 15974
L15314 15974
L15370 15946
L15399 15918
L15427 15861
L15455 15749
L15455 15608
L15427 15496
L15399 15440
L15370 15412
L15314 15383
" />
<path d="M14949 15383
L14752 15974
L14555 15383
" />
<path d="M13908 15974
L13908 15383
L13768 15383
L13683 15412
L13627 15468
L13599 15524
L13571 15636
L13571 15721
L13599 15833
L13627 15890
L13683 15946
L13768 15974
L13908 15974
" />
<path d="M12980 15918
L13008 15946
L13093 15974
L13149 15974
L13233 15946
L13289 15890
L13318 15833
L13346 15721
L13346 15636
L13318 15524
L13289 15468
L13233 15412
L13149 15383
L13093 15383
L13008 15412
L12980 15440
" />
</g>
<g style="fill:#000000; fill-opacity:1.0; 
stroke:#000000; stroke-width:3.93701; stroke-opacity:1; 
stroke-linecap:round; stroke-linejoin:round;">
<polyline style="fill-rule:evenodd;"
points="6397,8242
6367,8257
6341,8284
6334,8294
6326,8307
6321,8321
6318,8340
6317,8367
6317,8403
6318,8453
6323,8490
6331,8518
6345,8539
6364,8556
6366,8557
6385,8568
6408,8573
6438,8575
6486,8575
6486,8621
6486,8647
6489,8662
6496,8672
6510,8679
6513,8681
6529,8688
6540,8693
6549,8693
6555,8688
6559,8675
6562,8654
6562,8622
6562,8578
6562,8520
6561,8503
6561,8444
6560,8406
6486,8406
6486,8438
6484,8460
6480,8474
6472,8485
6467,8490
6447,8506
6428,8507
6410,8494
6409,8494
6401,8484
6397,8470
6394,8450
6394,8418
6394,8411
6395,8367
6401,8337
6412,8318
6427,8310
6436,8309
6458,8313
6473,8326
6482,8350
6486,8386
6486,8406
6560,8406
6560,8399
6559,8364
6557,8339
6555,8321
6552,8309
6548,8299
6543,8291
6541,8288
6512,8259
6476,8242
6434,8237
6397,8242
" /> 
<polyline style="fill-rule:evenodd;"
points="5805,8246
5780,8260
5763,8275
5751,8289
5742,8308
5736,8332
5733,8364
5732,8408
5732,8440
5732,8556
5798,8585
5801,8458
5803,8411
5805,8376
5807,8352
5810,8337
5813,8327
5819,8321
5820,8320
5845,8310
5871,8314
5886,8325
5892,8332
5896,8342
5899,8357
5901,8379
5901,8413
5901,8447
5901,8491
5902,8522
5905,8542
5910,8556
5919,8564
5933,8571
5951,8578
5972,8586
5969,8449
5968,8400
5967,8364
5965,8338
5963,8320
5959,8306
5954,8296
5948,8287
5919,8258
5883,8241
5844,8237
5805,8246
" /> 
<polyline style="fill-rule:evenodd;"
points="6693,8243
6657,8262
6630,8293
6621,8312
6613,8342
6609,8379
6609,8419
6612,8459
6618,8493
6627,8518
6629,8522
6661,8554
6699,8573
6740,8579
6782,8570
6794,8565
6816,8549
6836,8528
6838,8525
6845,8512
6850,8499
6853,8481
6855,8455
6855,8417
6855,8409
6855,8406
6778,8406
6778,8442
6776,8465
6772,8480
6766,8490
6763,8494
6745,8507
6727,8506
6709,8495
6698,8483
6691,8465
6688,8437
6688,8434
6687,8383
6693,8345
6707,8321
6727,8310
6734,8309
6753,8312
6766,8322
6774,8342
6778,8374
6778,8406
6855,8406
6855,8369
6854,8342
6851,8323
6847,8308
6840,8296
6838,8294
6812,8262
6783,8244
6749,8237
6737,8237
6693,8243
" /> 
<polyline style="fill-rule:evenodd;"
points="6095,8248
6065,8268
6042,8298
6028,8335
6025,8363
6025,8375
6028,8383
6035,8391
6050,8400
6073,8411
6109,8427
6109,8427
6142,8442
6169,8456
6187,8466
6194,8471
6194,8472
6188,8484
6174,8497
6157,8507
6149,8509
6127,8502
6108,8486
6098,8467
6089,8453
6072,8438
6051,8425
6032,8417
6029,8417
6024,8423
6024,8440
6027,8463
6033,8487
6041,8509
6042,8509
6066,8544
6098,8567
6134,8578
6172,8577
6208,8562
6209,8561
6238,8535
6256,8502
6267,8458
6268,8446
6270,8387
6268,8360
6194,8360
6193,8377
6188,8382
6174,8378
6154,8370
6131,8359
6130,8358
6111,8348
6103,8341
6105,8334
6113,8325
6134,8311
6156,8310
6176,8320
6190,8339
6194,8360
6268,8360
6265,8341
6253,8304
6235,8278
6202,8252
6166,8239
6130,8238
6095,8248
" /> 
<polyline style="fill-rule:evenodd;"
points="5455,8206
5453,8237
5450,8256
5447,8264
5442,8264
5440,8263
5417,8256
5388,8256
5358,8263
5339,8273
5320,8288
5306,8304
5296,8326
5290,8354
5287,8392
5286,8443
5286,8453
5286,8561
5310,8570
5327,8576
5337,8578
5337,8578
5338,8571
5339,8551
5339,8521
5340,8483
5340,8460
5340,8415
5341,8383
5342,8361
5344,8346
5348,8337
5354,8329
5358,8326
5382,8312
5409,8311
5434,8323
5439,8327
5445,8335
5450,8345
5453,8359
5454,8380
5455,8411
5455,8453
5455,8561
5479,8570
5497,8576
5506,8578
5506,8578
5507,8571
5508,8550
5508,8518
5509,8476
5509,8427
5509,8373
5509,8162
5459,8141
5455,8206
" /> 
<polyline style="fill-rule:evenodd;"
points="5103,8258
5073,8270
5073,8270
5054,8284
5041,8300
5031,8321
5024,8349
5021,8387
5018,8438
5018,8445
5015,8554
5039,8566
5056,8574
5066,8578
5066,8578
5068,8571
5070,8552
5070,8524
5071,8501
5071,8464
5072,8441
5078,8430
5091,8429
5113,8437
5146,8453
5170,8466
5182,8477
5186,8489
5186,8490
5180,8510
5162,8522
5135,8523
5115,8523
5105,8529
5098,8542
5094,8560
5100,8570
5102,8571
5121,8577
5148,8577
5175,8574
5195,8567
5222,8544
5237,8512
5240,8487
5238,8465
5229,8446
5213,8430
5186,8414
5146,8395
5144,8394
5108,8378
5086,8364
5077,8352
5079,8340
5091,8326
5095,8323
5120,8310
5146,8310
5168,8323
5183,8346
5185,8350
5198,8372
5215,8383
5240,8393
5240,8366
5232,8327
5210,8291
5198,8279
5172,8264
5138,8257
5103,8258
" /> 
<polyline style="fill-rule:evenodd;"
points="4844,8258
4809,8271
4780,8294
4769,8310
4757,8339
4758,8360
4770,8375
4775,8377
4795,8385
4805,8383
4809,8370
4809,8363
4816,8337
4832,8319
4855,8310
4881,8312
4902,8324
4910,8330
4915,8338
4918,8350
4920,8369
4922,8397
4923,8437
4923,8450
4924,8493
4925,8524
4927,8544
4930,8556
4934,8563
4941,8568
4945,8570
4962,8576
4972,8578
4975,8571
4977,8549
4978,8513
4977,8461
4977,8453
4976,8406
4975,8372
4973,8348
4970,8331
4966,8318
4960,8308
4957,8303
4939,8283
4919,8268
4917,8267
4881,8256
4844,8258
" /> 
<polyline style="fill-rule:evenodd;"
points="4494,8319
4494,8377
4494,8421
4495,8454
4496,8478
4499,8495
4502,8507
4506,8517
4509,8523
4535,8553
4568,8571
4605,8578
4642,8572
4664,8561
4687,8542
4702,8518
4712,8488
4716,8447
4717,8417
4717,8415
4663,8415
4663,8449
4661,8472
4658,8487
4651,8497
4644,8506
4619,8521
4593,8523
4567,8510
4565,8508
4557,8499
4552,8488
4549,8471
4548,8446
4548,8418
4548,8383
4550,8359
4553,8344
4559,8333
4564,8327
4588,8312
4615,8310
4640,8322
4645,8326
4654,8335
4659,8346
4662,8363
4663,8388
4663,8415
4717,8415
4715,8369
4709,8332
4697,8305
4678,8284
4664,8273
4637,8261
4607,8255
4579,8257
4563,8263
4557,8265
4553,8258
4550,8241
4548,8216
4545,8187
4542,8170
4536,8160
4525,8154
4519,8151
4494,8141
4494,8319
" /> 
<polyline style="fill-rule:evenodd;"
points="4181,8263
4180,8283
4179,8314
4179,8352
4178,8393
4178,8531
4203,8555
4219,8570
4234,8576
4254,8576
4262,8575
4287,8572
4308,8571
4313,8570
4330,8571
4354,8574
4364,8575
4387,8577
4402,8573
4418,8561
4423,8555
4448,8531
4448,8273
4428,8264
4411,8258
4401,8255
4399,8263
4396,8283
4394,8314
4393,8354
4392,8388
4390,8521
4372,8523
4355,8521
4347,8516
4344,8505
4342,8481
4341,8448
4340,8409
4340,8389
4340,8272
4316,8264
4299,8258
4289,8255
4289,8255
4288,8263
4287,8283
4286,8313
4285,8352
4284,8388
4282,8521
4236,8521
4234,8400
4232,8279
4209,8267
4193,8259
4183,8255
4183,8255
4181,8263
" /> 
<polyline style="fill-rule:evenodd;"
points="3988,8261
3966,8271
3948,8284
3935,8297
3927,8315
3921,8339
3918,8372
3917,8417
3917,8446
3917,8560
3936,8569
3952,8576
3959,8578
3961,8571
3962,8552
3963,8524
3963,8501
3964,8469
3965,8444
3968,8428
3970,8425
3984,8428
4005,8437
4030,8448
4053,8461
4072,8473
4080,8480
4080,8480
4080,8495
4073,8509
4061,8520
4045,8524
4030,8523
4010,8523
3999,8528
3992,8540
3991,8543
3989,8561
3996,8572
4016,8577
4037,8578
4075,8571
4095,8561
4119,8537
4132,8507
4133,8476
4122,8447
4106,8428
4089,8418
4064,8405
4034,8392
4029,8390
3996,8376
3977,8363
3971,8350
3976,8336
3986,8325
4009,8311
4035,8310
4058,8320
4075,8341
4077,8347
4090,8367
4109,8382
4132,8394
4132,8359
4131,8338
4125,8322
4112,8304
4099,8290
4079,8271
4064,8260
4047,8256
4029,8255
3988,8261
" /> 
<polyline style="fill-rule:evenodd;"
points="3719,8263
3709,8267
3688,8284
3669,8309
3657,8336
3655,8349
3662,8368
3675,8377
3690,8383
3697,8384
3701,8376
3707,8359
3710,8352
3726,8325
3749,8311
3779,8312
3782,8312
3798,8320
3809,8334
3817,8358
3822,8393
3824,8440
3825,8465
3825,8505
3825,8532
3827,8549
3830,8559
3836,8565
3844,8569
3844,8569
3860,8576
3867,8578
3868,8571
3869,8551
3870,8521
3871,8483
3871,8455
3870,8401
3868,8360
3865,8330
3858,8308
3849,8292
3835,8279
3822,8270
3790,8259
3753,8256
3719,8263
" /> 
<polyline style="fill-rule:evenodd;"
points="3453,8267
3423,8287
3408,8305
3396,8337
3395,8363
3398,8397
3476,8431
3515,8449
3540,8463
3553,8475
3555,8487
3548,8500
3540,8509
3517,8523
3491,8524
3468,8513
3451,8492
3448,8484
3434,8460
3417,8450
3394,8441
3394,8474
3396,8497
3404,8516
3420,8537
3423,8540
3442,8559
3458,8570
3478,8575
3494,8576
3524,8576
3545,8572
3558,8564
3579,8548
3593,8531
3602,8509
3607,8479
3609,8439
3609,8418
3609,8394
3562,8394
3562,8407
3560,8409
3551,8406
3532,8398
3507,8387
3501,8385
3469,8369
3452,8354
3448,8341
3457,8327
3465,8321
3492,8309
3518,8311
3540,8326
3555,8352
3560,8373
3562,8394
3609,8394
3608,8370
3604,8335
3597,8309
3585,8290
3568,8275
3561,8270
3527,8258
3489,8257
3453,8267
" /> 
<polyline style="fill-rule:evenodd;"
points="5069,5763
5028,5763
4998,5764
4977,5765
4964,5767
4957,5770
4953,5774
4952,5780
4951,5780
4949,5793
4944,5818
4937,5853
4929,5895
4921,5942
4920,5943
4912,5989
4904,6029
4897,6062
4891,6084
4888,6094
4888,6094
4878,6099
4858,6107
4832,6116
4832,6116
4800,6129
4761,6144
4725,6160
4723,6161
4664,6188
4533,6098
4493,6071
4457,6047
4426,6027
4404,6012
4392,6005
4390,6004
4381,6007
4365,6019
4339,6040
4305,6072
4270,6106
4236,6140
4206,6171
4181,6196
4163,6216
4155,6226
4154,6227
4153,6234
4157,6245
4166,6263
4181,6289
4204,6324
4234,6369
4261,6408
4285,6444
4305,6473
4319,6494
4326,6505
4327,6506
4326,6516
4319,6537
4308,6563
4304,6571
4287,6609
4269,6651
4254,6688
4243,6715
4235,6736
4230,6747
4229,6748
4220,6749
4199,6753
4168,6758
4131,6765
4090,6773
4048,6781
4008,6789
3972,6796
3944,6801
3927,6805
3923,6806
3918,6808
3915,6814
3912,6825
3911,6843
3910,6870
3909,6907
3909,6958
3909,6978
3909,7146
3950,7154
3972,7159
4005,7165
4046,7173
4089,7181
4101,7183
4141,7191
4176,7198
4203,7205
4219,7210
4222,7212
4228,7223
4237,7245
4248,7272
4250,7278
4263,7315
4280,7357
4296,7395
4296,7395
4323,7454
4144,7717
4259,7832
4294,7867
4326,7897
4353,7921
4373,7939
4385,7947
4387,7948
4397,7943
4417,7932
4445,7914
4480,7892
4517,7867
4555,7841
4589,7819
4616,7802
4635,7790
4644,7786
4654,7789
4674,7799
4699,7811
4702,7813
4736,7830
4759,7838
4773,7838
4781,7830
4781,7830
4784,7821
4793,7799
4807,7767
4824,7725
4844,7676
4867,7621
4889,7568
4913,7509
4936,7454
4955,7406
4971,7365
4984,7334
4991,7313
4994,7305
4988,7297
4972,7283
4952,7267
4893,7219
4847,7163
4815,7101
4796,7035
4792,6965
4795,6932
4811,6865
4839,6806
4878,6755
4924,6713
4977,6681
5035,6659
5096,6648
5159,6648
5221,6660
5280,6684
5336,6722
5360,6743
5404,6798
5435,6858
5453,6921
5458,6986
5449,7050
5428,7113
5395,7172
5349,7225
5297,7267
5276,7283
5261,7297
5255,7305
5258,7315
5266,7336
5279,7368
5296,7410
5315,7459
5338,7514
5360,7568
5384,7627
5407,7681
5427,7730
5444,7771
5457,7802
5465,7823
5469,7830
5476,7838
5490,7838
5513,7830
5547,7813
5547,7813
5573,7800
5593,7790
5605,7786
5605,7786
5614,7790
5633,7802
5661,7819
5694,7842
5732,7867
5770,7892
5804,7915
5833,7932
5853,7944
5862,7948
5871,7942
5889,7928
5914,7905
5945,7877
5979,7843
5990,7832
6105,7717
6017,7589
5991,7549
5967,7514
5948,7485
5936,7463
5930,7452
5930,7452
5933,7441
5941,7420
5953,7393
5961,7374
5976,7339
5991,7303
6002,7272
6005,7263
6014,7238
6023,7219
6027,7212
6038,7208
6060,7201
6092,7194
6130,7186
6148,7183
6191,7175
6233,7167
6269,7160
6295,7155
6300,7154
6340,7146
6340,6978
6340,6923
6339,6881
6339,6851
6337,6830
6335,6817
6332,6810
6328,6807
6326,6806
6316,6804
6294,6799
6263,6793
6225,6786
6184,6778
6142,6770
6102,6762
6067,6756
6040,6751
6023,6748
6020,6748
6016,6741
6009,6723
5999,6698
5995,6688
5979,6650
5961,6607
5945,6571
5933,6544
5925,6522
5922,6508
5922,6506
5928,6497
5941,6478
5960,6450
5983,6416
6009,6377
6015,6369
6045,6323
6068,6289
6083,6263
6092,6246
6096,6234
6095,6227
6095,6227
6087,6217
6070,6199
6046,6174
6016,6143
5983,6110
5979,6106
5937,6065
5904,6035
5881,6016
5865,6006
5859,6004
5849,6010
5828,6023
5799,6042
5764,6065
5725,6092
5716,6098
5585,6188
5526,6161
5490,6145
5451,6130
5418,6117
5417,6116
5391,6107
5371,6099
5361,6094
5361,6094
5358,6085
5353,6064
5346,6032
5338,5992
5329,5947
5329,5943
5320,5897
5312,5855
5305,5819
5300,5794
5298,5780
5298,5780
5296,5775
5293,5770
5286,5767
5274,5765
5254,5764
5225,5763
5185,5763
5131,5763
5125,5763
5069,5763
" /> 
</g> 
</svg>
