<?xml version="1.0" standalone="no"?>
 <!DOCTYPE svg PUBLIC "-//W3C//DTD SVG 1.1//EN" 
 "http://www.w3.org/Graphics/SVG/1.1/DTD/svg11.dtd"> 
<svg xmlns="http://www.w3.org/2000/svg" version="1.1" 
    width="29.7002cm" height="21.0007cm" viewBox="0 0 116930 82680 ">
<title>SVG Picture created as reservoir_controller-F.Paste.svg date 2018/09/20 19:04:20 </title>
  <desc>Picture generated by PCBNEW </desc>
<g style="fill:#000000; fill-opacity:1;stroke:#000000; stroke-opacity:1;
stroke-linecap:round; stroke-linejoin:round; "
 transform="translate(0 0) scale(1 1)">
</g>
<g style="fill:#000000; fill-opacity:0.0; 
stroke:#000000; stroke-width:-0.000393701; stroke-opacity:1; 
stroke-linecap:round; stroke-linejoin:round;">
</g>
<g style="fill:#000000; fill-opacity:0.0; 
stroke:#000000; stroke-width:0; stroke-opacity:1; 
stroke-linecap:round; stroke-linejoin:round;">
</g>
<g style="fill:#000000; fill-opacity:1.0; 
stroke:#000000; stroke-width:0; stroke-opacity:1; 
stroke-linecap:round; stroke-linejoin:round;">
<polyline style="fill-rule:evenodd;"
points="15293,11726
15293,8773
16474,8773
16474,11726
15293,11726
" /> 
<polyline style="fill-rule:evenodd;"
points="13325,11726
13325,8773
14506,8773
14506,11726
13325,11726
" /> 
<polyline style="fill-rule:evenodd;"
points="14529,12807
14529,12529
14807,12529
14807,12807
14529,12807
" /> 
<polyline style="fill-rule:evenodd;"
points="14529,13270
14529,12992
14807,12992
14807,13270
14529,13270
" /> 
<polyline style="fill-rule:evenodd;"
points="14992,12807
14992,12529
15270,12529
15270,12807
14992,12807
" /> 
<polyline style="fill-rule:evenodd;"
points="14992,13270
14992,12992
15270,12992
15270,13270
14992,13270
" /> 
<polyline style="fill-rule:evenodd;"
points="15657,12268
15657,12031
16268,12031
16268,12268
15657,12268
" /> 
<polyline style="fill-rule:evenodd;"
points="15657,12768
15657,12531
16268,12531
16268,12768
15657,12768
" /> 
<polyline style="fill-rule:evenodd;"
points="15657,13268
15657,13031
16268,13031
16268,13268
15657,13268
" /> 
<polyline style="fill-rule:evenodd;"
points="15657,13768
15657,13531
16268,13531
16268,13768
15657,13768
" /> 
<polyline style="fill-rule:evenodd;"
points="13531,13768
13531,13531
14142,13531
14142,13768
13531,13768
" /> 
<polyline style="fill-rule:evenodd;"
points="13531,13268
13531,13031
14142,13031
14142,13268
13531,13268
" /> 
<polyline style="fill-rule:evenodd;"
points="13531,12768
13531,12531
14142,12531
14142,12768
13531,12768
" /> 
<polyline style="fill-rule:evenodd;"
points="13531,12268
13531,12031
14142,12031
14142,12268
13531,12268
" /> 
<polyline style="fill-rule:evenodd;"
points="9768,10548
10082,10548
10082,10862
9768,10862
9768,10548
" /> 
<polyline style="fill-rule:evenodd;"
points="9768,11138
10082,11138
10082,11452
9768,11452
9768,11138
" /> 
<polyline style="fill-rule:evenodd;"
points="11643,7148
11957,7148
11957,7462
11643,7462
11643,7148
" /> 
<polyline style="fill-rule:evenodd;"
points="11643,7738
11957,7738
11957,8052
11643,8052
11643,7738
" /> 
<polyline style="fill-rule:evenodd;"
points="11643,4348
11957,4348
11957,4662
11643,4662
11643,4348
" /> 
<polyline style="fill-rule:evenodd;"
points="11643,4938
11957,4938
11957,5252
11643,5252
11643,4938
" /> 
<polyline style="fill-rule:evenodd;"
points="11643,1548
11957,1548
11957,1862
11643,1862
11643,1548
" /> 
<polyline style="fill-rule:evenodd;"
points="11643,2138
11957,2138
11957,2452
11643,2452
11643,2138
" /> 
<polyline style="fill-rule:evenodd;"
points="6768,10548
7082,10548
7082,10862
6768,10862
6768,10548
" /> 
<polyline style="fill-rule:evenodd;"
points="6768,11138
7082,11138
7082,11452
6768,11452
6768,11138
" /> 
<polyline style="fill-rule:evenodd;"
points="8268,10548
8582,10548
8582,10862
8268,10862
8268,10548
" /> 
<polyline style="fill-rule:evenodd;"
points="8268,11138
8582,11138
8582,11452
8268,11452
8268,11138
" /> 
<polyline style="fill-rule:evenodd;"
points="13188,17968
13188,17574
13858,17574
13858,17968
13188,17968
" /> 
<polyline style="fill-rule:evenodd;"
points="16062,17968
16062,17574
16732,17574
16732,17968
16062,17968
" /> 
<polyline style="fill-rule:evenodd;"
points="13188,19425
13188,19031
13858,19031
13858,19425
13188,19425
" /> 
<polyline style="fill-rule:evenodd;"
points="16062,19425
16062,19031
16732,19031
16732,19425
16062,19425
" /> 
<polyline style="fill-rule:evenodd;"
points="2952,17968
2952,17574
3622,17574
3622,17968
2952,17968
" /> 
<polyline style="fill-rule:evenodd;"
points="5826,17968
5826,17574
6496,17574
6496,17968
5826,17968
" /> 
<polyline style="fill-rule:evenodd;"
points="2952,19425
2952,19031
3622,19031
3622,19425
2952,19425
" /> 
<polyline style="fill-rule:evenodd;"
points="5826,19425
5826,19031
6496,19031
6496,19425
5826,19425
" /> 
<polyline style="fill-rule:evenodd;"
points="10944,19425
10944,19031
11614,19031
11614,19425
10944,19425
" /> 
<polyline style="fill-rule:evenodd;"
points="8070,19425
8070,19031
8740,19031
8740,19425
8070,19425
" /> 
<polyline style="fill-rule:evenodd;"
points="10944,17968
10944,17574
11614,17574
11614,17968
10944,17968
" /> 
<polyline style="fill-rule:evenodd;"
points="8070,17968
8070,17574
8740,17574
8740,17968
8070,17968
" /> 
<polyline style="fill-rule:evenodd;"
points="16107,14507
16107,15492
15103,15492
15103,14507
16107,14507
" /> 
<polyline style="fill-rule:evenodd;"
points="18096,14507
18096,15492
17092,15492
17092,14507
18096,14507
" /> 
<polyline style="fill-rule:evenodd;"
points="13698,15531
13698,14468
14701,14468
14701,15531
13698,15531
" /> 
<polyline style="fill-rule:evenodd;"
points="11198,15531
11198,14468
12201,14468
12201,15531
11198,15531
" /> 
<polyline style="fill-rule:evenodd;"
points="16945,12945
17654,12945
17654,13929
16945,13929
16945,12945
" /> 
<polyline style="fill-rule:evenodd;"
points="16945,11370
17654,11370
17654,12354
16945,12354
16945,11370
" /> 
<polyline style="fill-rule:evenodd;"
points="4722,10696
5077,10696
5077,10893
4722,10893
4722,10696
" /> 
<polyline style="fill-rule:evenodd;"
points="4722,10106
5077,10106
5077,10303
4722,10303
4722,10106
" /> 
<polyline style="fill-rule:evenodd;"
points="7072,2146
7427,2146
7427,2343
7072,2343
7072,2146
" /> 
<polyline style="fill-rule:evenodd;"
points="7072,1556
7427,1556
7427,1753
7072,1753
7072,1556
" /> 
<polyline style="fill-rule:evenodd;"
points="11022,6006
11377,6006
11377,6203
11022,6203
11022,6006
" /> 
<polyline style="fill-rule:evenodd;"
points="11022,6596
11377,6596
11377,6793
11022,6793
11022,6596
" /> 
<polyline style="fill-rule:evenodd;"
points="11622,6596
11977,6596
11977,6793
11622,6793
11622,6596
" /> 
<polyline style="fill-rule:evenodd;"
points="11622,6006
11977,6006
11977,6203
11622,6203
11622,6006
" /> 
<polyline style="fill-rule:evenodd;"
points="12868,17597
12868,17952
12671,17952
12671,17597
12868,17597
" /> 
<polyline style="fill-rule:evenodd;"
points="12278,17597
12278,17952
12081,17952
12081,17597
12278,17597
" /> 
<polyline style="fill-rule:evenodd;"
points="12081,19152
12081,18797
12278,18797
12278,19152
12081,19152
" /> 
<polyline style="fill-rule:evenodd;"
points="12671,19152
12671,18797
12868,18797
12868,19152
12671,19152
" /> 
<polyline style="fill-rule:evenodd;"
points="7128,18197
7128,18552
6931,18552
6931,18197
7128,18197
" /> 
<polyline style="fill-rule:evenodd;"
points="7718,18197
7718,18552
7521,18552
7521,18197
7718,18197
" /> 
<polyline style="fill-rule:evenodd;"
points="7718,17597
7718,17952
7521,17952
7521,17597
7718,17597
" /> 
<polyline style="fill-rule:evenodd;"
points="7128,17597
7128,17952
6931,17952
6931,17597
7128,17597
" /> 
<polyline style="fill-rule:evenodd;"
points="12868,18197
12868,18552
12671,18552
12671,18197
12868,18197
" /> 
<polyline style="fill-rule:evenodd;"
points="12278,18197
12278,18552
12081,18552
12081,18197
12278,18197
" /> 
<polyline style="fill-rule:evenodd;"
points="10727,10803
10372,10803
10372,10606
10727,10606
10727,10803
" /> 
<polyline style="fill-rule:evenodd;"
points="10727,11393
10372,11393
10372,11196
10727,11196
10727,11393
" /> 
<polyline style="fill-rule:evenodd;"
points="11022,3796
11377,3796
11377,3993
11022,3993
11022,3796
" /> 
<polyline style="fill-rule:evenodd;"
points="11022,3206
11377,3206
11377,3403
11022,3403
11022,3206
" /> 
<polyline style="fill-rule:evenodd;"
points="11622,3206
11977,3206
11977,3403
11622,3403
11622,3206
" /> 
<polyline style="fill-rule:evenodd;"
points="11622,3796
11977,3796
11977,3993
11622,3993
11622,3796
" /> 
<polyline style="fill-rule:evenodd;"
points="11022,996
11377,996
11377,1193
11022,1193
11022,996
" /> 
<polyline style="fill-rule:evenodd;"
points="11022,406
11377,406
11377,603
11022,603
11022,406
" /> 
<polyline style="fill-rule:evenodd;"
points="11622,406
11977,406
11977,603
11622,603
11622,406
" /> 
<polyline style="fill-rule:evenodd;"
points="11622,996
11977,996
11977,1193
11622,1193
11622,996
" /> 
<polyline style="fill-rule:evenodd;"
points="7727,10803
7372,10803
7372,10606
7727,10606
7727,10803
" /> 
<polyline style="fill-rule:evenodd;"
points="7727,11393
7372,11393
7372,11196
7727,11196
7727,11393
" /> 
<polyline style="fill-rule:evenodd;"
points="9227,11393
8872,11393
8872,11196
9227,11196
9227,11393
" /> 
<polyline style="fill-rule:evenodd;"
points="9227,10803
8872,10803
8872,10606
9227,10606
9227,10803
" /> 
<polyline style="fill-rule:evenodd;"
points="17938,10706
17761,10706
17761,10470
17938,10470
17938,10706
" /> 
<polyline style="fill-rule:evenodd;"
points="17938,9879
17761,9879
17761,9643
17938,9643
17938,9879
" /> 
<polyline style="fill-rule:evenodd;"
points="17938,6579
17761,6579
17761,6343
17938,6343
17938,6579
" /> 
<polyline style="fill-rule:evenodd;"
points="17938,7406
17761,7406
17761,7170
17938,7170
17938,7406
" /> 
<polyline style="fill-rule:evenodd;"
points="17938,4381
17761,4381
17761,4145
17938,4145
17938,4381
" /> 
<polyline style="fill-rule:evenodd;"
points="17938,3554
17761,3554
17761,3318
17938,3318
17938,3554
" /> 
<polyline style="fill-rule:evenodd;"
points="17147,10627
16852,10627
16852,10312
17147,10312
17147,10627
" /> 
<polyline style="fill-rule:evenodd;"
points="17147,10037
16852,10037
16852,9722
17147,9722
17147,10037
" /> 
<polyline style="fill-rule:evenodd;"
points="17147,7327
16852,7327
16852,7012
17147,7012
17147,7327
" /> 
<polyline style="fill-rule:evenodd;"
points="17147,6737
16852,6737
16852,6422
17147,6422
17147,6737
" /> 
<polyline style="fill-rule:evenodd;"
points="17147,3712
16852,3712
16852,3397
17147,3397
17147,3712
" /> 
<polyline style="fill-rule:evenodd;"
points="17147,4302
16852,4302
16852,3987
17147,3987
17147,4302
" /> 
</g>
<g style="fill:#000000; fill-opacity:1.0; 
stroke:#000000; stroke-width:433.071; stroke-opacity:1; 
stroke-linecap:round; stroke-linejoin:round;">
</g>
<g style="fill:#000000; fill-opacity:0.0; 
stroke:#000000; stroke-width:433.071; stroke-opacity:1; 
stroke-linecap:round; stroke-linejoin:round;">
<path d="M9793 8200
L9281 8200
" />
<path d="M9793 7412
L9281 7412
" />
<path d="M9793 6625
L9281 6625
" />
<path d="M9793 5838
L9281 5838
" />
<path d="M9793 5050
L9281 5050
" />
<path d="M9793 4263
L9281 4263
" />
</g>
<g style="fill:#000000; fill-opacity:0.0; 
stroke:#000000; stroke-width:0; stroke-opacity:1; 
stroke-linecap:round; stroke-linejoin:round;">
</g>
<g style="fill:#000000; fill-opacity:1.0; 
stroke:#000000; stroke-width:0; stroke-opacity:1; 
stroke-linecap:round; stroke-linejoin:round;">
<polyline style="fill-rule:evenodd;"
points="3553,9850
3120,9850
3120,8905
3553,8905
3553,9850
" /> 
</g>
<g style="fill:#000000; fill-opacity:1.0; 
stroke:#000000; stroke-width:433.071; stroke-opacity:1; 
stroke-linecap:round; stroke-linejoin:round;">
</g>
<g style="fill:#000000; fill-opacity:0.0; 
stroke:#000000; stroke-width:433.071; stroke-opacity:1; 
stroke-linecap:round; stroke-linejoin:round;">
<path d="M4124 9633
L4124 9121
" />
<path d="M4911 9633
L4911 9121
" />
<path d="M5699 9633
L5699 9121
" />
<path d="M6486 9633
L6486 9121
" />
<path d="M7274 9633
L7274 9121
" />
<path d="M8061 9633
L8061 9121
" />
<path d="M8848 9633
L8848 9121
" />
<path d="M8848 3334
L8848 2822
" />
<path d="M8061 3334
L8061 2822
" />
<path d="M7274 3334
L7274 2822
" />
<path d="M6486 3334
L6486 2822
" />
<path d="M5699 3334
L5699 2822
" />
<path d="M4911 3334
L4911 2822
" />
<path d="M4124 3334
L4124 2822
" />
<path d="M3337 3334
L3337 2822
" />
</g>
<g style="fill:#000000; fill-opacity:0.0; 
stroke:#000000; stroke-width:0; stroke-opacity:1; 
stroke-linecap:round; stroke-linejoin:round;">
</g>
<g style="fill:#000000; fill-opacity:1.0; 
stroke:#000000; stroke-width:0; stroke-opacity:1; 
stroke-linecap:round; stroke-linejoin:round;">
<polyline style="fill-rule:evenodd;"
points="3868,14197
3868,14552
3671,14552
3671,14197
3868,14197
" /> 
<polyline style="fill-rule:evenodd;"
points="3278,14197
3278,14552
3081,14552
3081,14197
3278,14197
" /> 
<polyline style="fill-rule:evenodd;"
points="4131,14552
4131,14197
4328,14197
4328,14552
4131,14552
" /> 
<polyline style="fill-rule:evenodd;"
points="4721,14552
4721,14197
4918,14197
4918,14552
4721,14552
" /> 
<polyline style="fill-rule:evenodd;"
points="3278,11447
3278,11802
3081,11802
3081,11447
3278,11447
" /> 
<polyline style="fill-rule:evenodd;"
points="3868,11447
3868,11802
3671,11802
3671,11447
3868,11447
" /> 
<polyline style="fill-rule:evenodd;"
points="4721,11802
4721,11447
4918,11447
4918,11802
4721,11802
" /> 
<polyline style="fill-rule:evenodd;"
points="4131,11802
4131,11447
4328,11447
4328,11802
4131,11802
" /> 
<polyline style="fill-rule:evenodd;"
points="1818,15336
1818,14663
2480,14663
2480,15336
1818,15336
" /> 
<polyline style="fill-rule:evenodd;"
points="1818,16336
1818,15663
2480,15663
2480,16336
1818,16336
" /> 
<polyline style="fill-rule:evenodd;"
points="5519,16336
5519,15663
6181,15663
6181,16336
5519,16336
" /> 
<polyline style="fill-rule:evenodd;"
points="5519,15336
5519,14663
6181,14663
6181,15336
5519,15336
" /> 
<polyline style="fill-rule:evenodd;"
points="5519,12586
5519,11913
6181,11913
6181,12586
5519,12586
" /> 
<polyline style="fill-rule:evenodd;"
points="5519,13586
5519,12913
6181,12913
6181,13586
5519,13586
" /> 
<polyline style="fill-rule:evenodd;"
points="1818,13586
1818,12913
2480,12913
2480,13586
1818,13586
" /> 
<polyline style="fill-rule:evenodd;"
points="1818,12586
1818,11913
2480,11913
2480,12586
1818,12586
" /> 
<polyline style="fill-rule:evenodd;"
points="12263,6338
12263,5866
13129,5866
13129,6338
12263,6338
" /> 
<polyline style="fill-rule:evenodd;"
points="12263,8133
12263,7661
13129,7661
13129,8133
12263,8133
" /> 
<polyline style="fill-rule:evenodd;"
points="15235,8141
15235,7059
16436,7059
16436,8141
15235,8141
" /> 
<polyline style="fill-rule:evenodd;"
points="13916,6940
13916,5858
15117,5858
15117,6940
13916,6940
" /> 
<polyline style="fill-rule:evenodd;"
points="15235,6940
15235,5858
16436,5858
16436,6940
15235,6940
" /> 
<polyline style="fill-rule:evenodd;"
points="13916,8141
13916,7059
15117,7059
15117,8141
13916,8141
" /> 
<polyline style="fill-rule:evenodd;"
points="13916,5341
13916,4259
15117,4259
15117,5341
13916,5341
" /> 
<polyline style="fill-rule:evenodd;"
points="15235,4140
15235,3058
16436,3058
16436,4140
15235,4140
" /> 
<polyline style="fill-rule:evenodd;"
points="13916,4140
13916,3058
15117,3058
15117,4140
13916,4140
" /> 
<polyline style="fill-rule:evenodd;"
points="15235,5341
15235,4259
16436,4259
16436,5341
15235,5341
" /> 
<polyline style="fill-rule:evenodd;"
points="12263,5333
12263,4861
13129,4861
13129,5333
12263,5333
" /> 
<polyline style="fill-rule:evenodd;"
points="12263,3538
12263,3066
13129,3066
13129,3538
12263,3538
" /> 
<polyline style="fill-rule:evenodd;"
points="13916,2541
13916,1459
15117,1459
15117,2541
13916,2541
" /> 
<polyline style="fill-rule:evenodd;"
points="15235,1340
15235,258
16436,258
16436,1340
15235,1340
" /> 
<polyline style="fill-rule:evenodd;"
points="13916,1340
13916,258
15117,258
15117,1340
13916,1340
" /> 
<polyline style="fill-rule:evenodd;"
points="15235,2541
15235,1459
16436,1459
16436,2541
15235,2541
" /> 
<polyline style="fill-rule:evenodd;"
points="12263,2533
12263,2061
13129,2061
13129,2533
12263,2533
" /> 
<polyline style="fill-rule:evenodd;"
points="12263,738
12263,266
13129,266
13129,738
12263,738
" /> 
</g> 
</svg>
