<?xml version="1.0" standalone="no"?>
 <!DOCTYPE svg PUBLIC "-//W3C//DTD SVG 1.1//EN" 
 "http://www.w3.org/Graphics/SVG/1.1/DTD/svg11.dtd"> 
<svg xmlns="http://www.w3.org/2000/svg" version="1.1" 
    width="29.7002cm" height="21.0007cm" viewBox="0 0 116930 82680 ">
<title>SVG Picture created as reservoir_controller-F.Mask.svg date 2018/09/20 19:04:20 </title>
  <desc>Picture generated by PCBNEW </desc>
<g style="fill:#000000; fill-opacity:1;stroke:#000000; stroke-opacity:1;
stroke-linecap:round; stroke-linejoin:round; "
 transform="translate(0 0) scale(1 1)">
</g>
<g style="fill:#000000; fill-opacity:0.0; 
stroke:#000000; stroke-width:-0.000393701; stroke-opacity:1; 
stroke-linecap:round; stroke-linejoin:round;">
</g>
<g style="fill:#000000; fill-opacity:0.0; 
stroke:#000000; stroke-width:826.772; stroke-opacity:1; 
stroke-linecap:round; stroke-linejoin:round;">
<path d="M3975 1700
L3975 1700
" />
<path d="M3975 700
L3975 700
" />
<path d="M4975 1700
L4975 1700
" />
<path d="M4975 700
L4975 700
" />
<path d="M5975 1700
L5975 1700
" />
</g>
<g style="fill:#000000; fill-opacity:0.0; 
stroke:#000000; stroke-width:0; stroke-opacity:1; 
stroke-linecap:round; stroke-linejoin:round;">
</g>
<g style="fill:#000000; fill-opacity:1.0; 
stroke:#000000; stroke-width:0; stroke-opacity:1; 
stroke-linecap:round; stroke-linejoin:round;">
<polyline style="fill-rule:evenodd;"
points="5561,286
6388,286
6388,1113
5561,1113
5561,286
" /> 
<circle cx="18314.2" cy="1355.91" r="708.661" /> 
</g>
<g style="fill:#000000; fill-opacity:1.0; 
stroke:#000000; stroke-width:39.3701; stroke-opacity:1; 
stroke-linecap:round; stroke-linejoin:round;">
</g>
<g style="fill:#000000; fill-opacity:1.0; 
stroke:#000000; stroke-width:0; stroke-opacity:1; 
stroke-linecap:round; stroke-linejoin:round;">
<circle cx="1385.04" cy="18285" r="708.661" /> 
</g>
<g style="fill:#000000; fill-opacity:1.0; 
stroke:#000000; stroke-width:39.3701; stroke-opacity:1; 
stroke-linecap:round; stroke-linejoin:round;">
</g>
<g style="fill:#000000; fill-opacity:1.0; 
stroke:#000000; stroke-width:0; stroke-opacity:1; 
stroke-linecap:round; stroke-linejoin:round;">
<circle cx="18314.2" cy="18285" r="708.661" /> 
</g>
<g style="fill:#000000; fill-opacity:1.0; 
stroke:#000000; stroke-width:39.3701; stroke-opacity:1; 
stroke-linecap:round; stroke-linejoin:round;">
</g>
<g style="fill:#000000; fill-opacity:1.0; 
stroke:#000000; stroke-width:0; stroke-opacity:1; 
stroke-linecap:round; stroke-linejoin:round;">
<circle cx="1385.04" cy="1355.91" r="708.661" /> 
</g>
<g style="fill:#000000; fill-opacity:1.0; 
stroke:#000000; stroke-width:39.3701; stroke-opacity:1; 
stroke-linecap:round; stroke-linejoin:round;">
</g>
<g style="fill:#000000; fill-opacity:1.0; 
stroke:#000000; stroke-width:0; stroke-opacity:1; 
stroke-linecap:round; stroke-linejoin:round;">
<polyline style="fill-rule:evenodd;"
points="15214,11805
15214,8694
16553,8694
16553,11805
15214,11805
" /> 
<polyline style="fill-rule:evenodd;"
points="13246,11805
13246,8694
14585,8694
14585,11805
13246,11805
" /> 
<polyline style="fill-rule:evenodd;"
points="14358,12978
14358,12358
14978,12358
14978,12978
14358,12978
" /> 
<polyline style="fill-rule:evenodd;"
points="14358,13441
14358,12821
14978,12821
14978,13441
14358,13441
" /> 
<polyline style="fill-rule:evenodd;"
points="14821,12978
14821,12358
15441,12358
15441,12978
14821,12978
" /> 
<polyline style="fill-rule:evenodd;"
points="14821,13441
14821,12821
15441,12821
15441,13441
14821,13441
" /> 
<polyline style="fill-rule:evenodd;"
points="15579,12346
15579,11953
16346,11953
16346,12346
15579,12346
" /> 
<polyline style="fill-rule:evenodd;"
points="15579,12846
15579,12453
16346,12453
16346,12846
15579,12846
" /> 
<polyline style="fill-rule:evenodd;"
points="15579,13346
15579,12953
16346,12953
16346,13346
15579,13346
" /> 
<polyline style="fill-rule:evenodd;"
points="15579,13846
15579,13453
16346,13453
16346,13846
15579,13846
" /> 
<polyline style="fill-rule:evenodd;"
points="13453,13846
13453,13453
14220,13453
14220,13846
13453,13846
" /> 
<polyline style="fill-rule:evenodd;"
points="13453,13346
13453,12953
14220,12953
14220,13346
13453,13346
" /> 
<polyline style="fill-rule:evenodd;"
points="13453,12846
13453,12453
14220,12453
14220,12846
13453,12846
" /> 
<polyline style="fill-rule:evenodd;"
points="13453,12346
13453,11953
14220,11953
14220,12346
13453,12346
" /> 
<polyline style="fill-rule:evenodd;"
points="9689,10469
10160,10469
10160,10940
9689,10940
9689,10469
" /> 
<polyline style="fill-rule:evenodd;"
points="9689,11059
10160,11059
10160,11530
9689,11530
9689,11059
" /> 
<polyline style="fill-rule:evenodd;"
points="11564,7069
12035,7069
12035,7540
11564,7540
11564,7069
" /> 
<polyline style="fill-rule:evenodd;"
points="11564,7659
12035,7659
12035,8130
11564,8130
11564,7659
" /> 
<polyline style="fill-rule:evenodd;"
points="11564,4269
12035,4269
12035,4740
11564,4740
11564,4269
" /> 
<polyline style="fill-rule:evenodd;"
points="11564,4859
12035,4859
12035,5330
11564,5330
11564,4859
" /> 
<polyline style="fill-rule:evenodd;"
points="11564,1469
12035,1469
12035,1940
11564,1940
11564,1469
" /> 
<polyline style="fill-rule:evenodd;"
points="11564,2059
12035,2059
12035,2530
11564,2530
11564,2059
" /> 
<polyline style="fill-rule:evenodd;"
points="6689,10469
7160,10469
7160,10940
6689,10940
6689,10469
" /> 
<polyline style="fill-rule:evenodd;"
points="6689,11059
7160,11059
7160,11530
6689,11530
6689,11059
" /> 
<polyline style="fill-rule:evenodd;"
points="8189,10469
8660,10469
8660,10940
8189,10940
8189,10469
" /> 
<polyline style="fill-rule:evenodd;"
points="8189,11059
8660,11059
8660,11530
8189,11530
8189,11059
" /> 
<polyline style="fill-rule:evenodd;"
points="13110,18047
13110,17496
13937,17496
13937,18047
13110,18047
" /> 
<polyline style="fill-rule:evenodd;"
points="15984,18047
15984,17496
16811,17496
16811,18047
15984,18047
" /> 
<polyline style="fill-rule:evenodd;"
points="13110,19503
13110,18952
13937,18952
13937,19503
13110,19503
" /> 
<polyline style="fill-rule:evenodd;"
points="15984,19503
15984,18952
16811,18952
16811,19503
15984,19503
" /> 
<polyline style="fill-rule:evenodd;"
points="2874,18047
2874,17496
3700,17496
3700,18047
2874,18047
" /> 
<polyline style="fill-rule:evenodd;"
points="5748,18047
5748,17496
6574,17496
6574,18047
5748,18047
" /> 
<polyline style="fill-rule:evenodd;"
points="2874,19503
2874,18952
3700,18952
3700,19503
2874,19503
" /> 
<polyline style="fill-rule:evenodd;"
points="5748,19503
5748,18952
6574,18952
6574,19503
5748,19503
" /> 
<polyline style="fill-rule:evenodd;"
points="10866,19503
10866,18952
11692,18952
11692,19503
10866,19503
" /> 
<polyline style="fill-rule:evenodd;"
points="7992,19503
7992,18952
8818,18952
8818,19503
7992,19503
" /> 
<polyline style="fill-rule:evenodd;"
points="10866,18047
10866,17496
11692,17496
11692,18047
10866,18047
" /> 
<polyline style="fill-rule:evenodd;"
points="7992,18047
7992,17496
8818,17496
8818,18047
7992,18047
" /> 
<polyline style="fill-rule:evenodd;"
points="16186,14429
16186,15570
15025,15570
15025,14429
16186,14429
" /> 
<polyline style="fill-rule:evenodd;"
points="18174,14429
18174,15570
17013,15570
17013,14429
18174,14429
" /> 
<polyline style="fill-rule:evenodd;"
points="13619,15610
13619,14389
14780,14389
14780,15610
13619,15610
" /> 
<polyline style="fill-rule:evenodd;"
points="11119,15610
11119,14389
12280,14389
12280,15610
11119,15610
" /> 
<polyline style="fill-rule:evenodd;"
points="16866,12866
17733,12866
17733,14008
16866,14008
16866,12866
" /> 
<polyline style="fill-rule:evenodd;"
points="16866,11291
17733,11291
17733,12433
16866,12433
16866,11291
" /> 
<polyline style="fill-rule:evenodd;"
points="4644,10618
5155,10618
5155,10972
4644,10972
4644,10618
" /> 
<polyline style="fill-rule:evenodd;"
points="4644,10027
5155,10027
5155,10381
4644,10381
4644,10027
" /> 
<polyline style="fill-rule:evenodd;"
points="6994,2068
7505,2068
7505,2422
6994,2422
6994,2068
" /> 
<polyline style="fill-rule:evenodd;"
points="6994,1477
7505,1477
7505,1831
6994,1831
6994,1477
" /> 
<polyline style="fill-rule:evenodd;"
points="10944,5927
11455,5927
11455,6281
10944,6281
10944,5927
" /> 
<polyline style="fill-rule:evenodd;"
points="10944,6518
11455,6518
11455,6872
10944,6872
10944,6518
" /> 
<polyline style="fill-rule:evenodd;"
points="11544,6518
12055,6518
12055,6872
11544,6872
11544,6518
" /> 
<polyline style="fill-rule:evenodd;"
points="11544,5927
12055,5927
12055,6281
11544,6281
11544,5927
" /> 
<polyline style="fill-rule:evenodd;"
points="12947,17519
12947,18030
12593,18030
12593,17519
12947,17519
" /> 
<polyline style="fill-rule:evenodd;"
points="12356,17519
12356,18030
12002,18030
12002,17519
12356,17519
" /> 
<polyline style="fill-rule:evenodd;"
points="12002,19230
12002,18719
12356,18719
12356,19230
12002,19230
" /> 
<polyline style="fill-rule:evenodd;"
points="12593,19230
12593,18719
12947,18719
12947,19230
12593,19230
" /> 
<polyline style="fill-rule:evenodd;"
points="7206,18119
7206,18630
6852,18630
6852,18119
7206,18119
" /> 
<polyline style="fill-rule:evenodd;"
points="7797,18119
7797,18630
7443,18630
7443,18119
7797,18119
" /> 
<polyline style="fill-rule:evenodd;"
points="7797,17519
7797,18030
7443,18030
7443,17519
7797,17519
" /> 
<polyline style="fill-rule:evenodd;"
points="7206,17519
7206,18030
6852,18030
6852,17519
7206,17519
" /> 
<polyline style="fill-rule:evenodd;"
points="12947,18119
12947,18630
12593,18630
12593,18119
12947,18119
" /> 
<polyline style="fill-rule:evenodd;"
points="12356,18119
12356,18630
12002,18630
12002,18119
12356,18119
" /> 
<polyline style="fill-rule:evenodd;"
points="10805,10881
10294,10881
10294,10527
10805,10527
10805,10881
" /> 
<polyline style="fill-rule:evenodd;"
points="10805,11472
10294,11472
10294,11118
10805,11118
10805,11472
" /> 
<polyline style="fill-rule:evenodd;"
points="10944,3718
11455,3718
11455,4072
10944,4072
10944,3718
" /> 
<polyline style="fill-rule:evenodd;"
points="10944,3127
11455,3127
11455,3481
10944,3481
10944,3127
" /> 
<polyline style="fill-rule:evenodd;"
points="11544,3127
12055,3127
12055,3481
11544,3481
11544,3127
" /> 
<polyline style="fill-rule:evenodd;"
points="11544,3718
12055,3718
12055,4072
11544,4072
11544,3718
" /> 
<polyline style="fill-rule:evenodd;"
points="10944,918
11455,918
11455,1272
10944,1272
10944,918
" /> 
<polyline style="fill-rule:evenodd;"
points="10944,327
11455,327
11455,681
10944,681
10944,327
" /> 
<polyline style="fill-rule:evenodd;"
points="11544,327
12055,327
12055,681
11544,681
11544,327
" /> 
<polyline style="fill-rule:evenodd;"
points="11544,918
12055,918
12055,1272
11544,1272
11544,918
" /> 
<polyline style="fill-rule:evenodd;"
points="7805,10881
7294,10881
7294,10527
7805,10527
7805,10881
" /> 
<polyline style="fill-rule:evenodd;"
points="7805,11472
7294,11472
7294,11118
7805,11118
7805,11472
" /> 
<polyline style="fill-rule:evenodd;"
points="9305,11472
8794,11472
8794,11118
9305,11118
9305,11472
" /> 
<polyline style="fill-rule:evenodd;"
points="9305,10881
8794,10881
8794,10527
9305,10527
9305,10881
" /> 
<polyline style="fill-rule:evenodd;"
points="18017,10785
17682,10785
17682,10391
18017,10391
18017,10785
" /> 
<polyline style="fill-rule:evenodd;"
points="18017,9958
17682,9958
17682,9564
18017,9564
18017,9958
" /> 
<polyline style="fill-rule:evenodd;"
points="18017,6658
17682,6658
17682,6264
18017,6264
18017,6658
" /> 
<polyline style="fill-rule:evenodd;"
points="18017,7485
17682,7485
17682,7091
18017,7091
18017,7485
" /> 
<polyline style="fill-rule:evenodd;"
points="18017,4460
17682,4460
17682,4066
18017,4066
18017,4460
" /> 
<polyline style="fill-rule:evenodd;"
points="18017,3633
17682,3633
17682,3239
18017,3239
18017,3633
" /> 
<polyline style="fill-rule:evenodd;"
points="18561,10113
18561,9286
19388,9286
19388,10113
18561,10113
" /> 
</g>
<g style="fill:#000000; fill-opacity:1.0; 
stroke:#000000; stroke-width:826.772; stroke-opacity:1; 
stroke-linecap:round; stroke-linejoin:round;">
</g>
<g style="fill:#000000; fill-opacity:0.0; 
stroke:#000000; stroke-width:826.772; stroke-opacity:1; 
stroke-linecap:round; stroke-linejoin:round;">
<path d="M18975 10700
L18975 10700
" />
<path d="M18975 7700
L18975 7700
" />
</g>
<g style="fill:#000000; fill-opacity:0.0; 
stroke:#000000; stroke-width:0; stroke-opacity:1; 
stroke-linecap:round; stroke-linejoin:round;">
</g>
<g style="fill:#000000; fill-opacity:1.0; 
stroke:#000000; stroke-width:0; stroke-opacity:1; 
stroke-linecap:round; stroke-linejoin:round;">
<polyline style="fill-rule:evenodd;"
points="18561,7113
18561,6286
19388,6286
19388,7113
18561,7113
" /> 
<polyline style="fill-rule:evenodd;"
points="18561,4113
18561,3286
19388,3286
19388,4113
18561,4113
" /> 
</g>
<g style="fill:#000000; fill-opacity:1.0; 
stroke:#000000; stroke-width:826.772; stroke-opacity:1; 
stroke-linecap:round; stroke-linejoin:round;">
</g>
<g style="fill:#000000; fill-opacity:0.0; 
stroke:#000000; stroke-width:826.772; stroke-opacity:1; 
stroke-linecap:round; stroke-linejoin:round;">
<path d="M18975 4700
L18975 4700
" />
</g>
<g style="fill:#000000; fill-opacity:0.0; 
stroke:#000000; stroke-width:0; stroke-opacity:1; 
stroke-linecap:round; stroke-linejoin:round;">
</g>
<g style="fill:#000000; fill-opacity:1.0; 
stroke:#000000; stroke-width:0; stroke-opacity:1; 
stroke-linecap:round; stroke-linejoin:round;">
<polyline style="fill-rule:evenodd;"
points="19388,15286
19388,16113
18561,16113
18561,15286
19388,15286
" /> 
</g>
<g style="fill:#000000; fill-opacity:1.0; 
stroke:#000000; stroke-width:826.772; stroke-opacity:1; 
stroke-linecap:round; stroke-linejoin:round;">
</g>
<g style="fill:#000000; fill-opacity:0.0; 
stroke:#000000; stroke-width:826.772; stroke-opacity:1; 
stroke-linecap:round; stroke-linejoin:round;">
<path d="M18975 14700
L18975 14700
" />
</g>
<g style="fill:#000000; fill-opacity:0.0; 
stroke:#000000; stroke-width:0; stroke-opacity:1; 
stroke-linecap:round; stroke-linejoin:round;">
</g>
<g style="fill:#000000; fill-opacity:1.0; 
stroke:#000000; stroke-width:0; stroke-opacity:1; 
stroke-linecap:round; stroke-linejoin:round;">
<polyline style="fill-rule:evenodd;"
points="17226,10706
16773,10706
16773,10234
17226,10234
17226,10706
" /> 
<polyline style="fill-rule:evenodd;"
points="17226,10115
16773,10115
16773,9643
17226,9643
17226,10115
" /> 
<polyline style="fill-rule:evenodd;"
points="17226,7406
16773,7406
16773,6934
17226,6934
17226,7406
" /> 
<polyline style="fill-rule:evenodd;"
points="17226,6815
16773,6815
16773,6343
17226,6343
17226,6815
" /> 
<polyline style="fill-rule:evenodd;"
points="17226,3790
16773,3790
16773,3318
17226,3318
17226,3790
" /> 
<polyline style="fill-rule:evenodd;"
points="17226,4381
16773,4381
16773,3909
17226,3909
17226,4381
" /> 
</g>
<g style="fill:#000000; fill-opacity:1.0; 
stroke:#000000; stroke-width:590.551; stroke-opacity:1; 
stroke-linecap:round; stroke-linejoin:round;">
</g>
<g style="fill:#000000; fill-opacity:0.0; 
stroke:#000000; stroke-width:590.551; stroke-opacity:1; 
stroke-linecap:round; stroke-linejoin:round;">
<path d="M9793 8200
L9281 8200
" />
<path d="M9793 7412
L9281 7412
" />
<path d="M9793 6625
L9281 6625
" />
<path d="M9793 5838
L9281 5838
" />
<path d="M9793 5050
L9281 5050
" />
<path d="M9793 4263
L9281 4263
" />
</g>
<g style="fill:#000000; fill-opacity:0.0; 
stroke:#000000; stroke-width:0; stroke-opacity:1; 
stroke-linecap:round; stroke-linejoin:round;">
</g>
<g style="fill:#000000; fill-opacity:1.0; 
stroke:#000000; stroke-width:0; stroke-opacity:1; 
stroke-linecap:round; stroke-linejoin:round;">
<polyline style="fill-rule:evenodd;"
points="3632,9928
3041,9928
3041,8826
3632,8826
3632,9928
" /> 
</g>
<g style="fill:#000000; fill-opacity:1.0; 
stroke:#000000; stroke-width:590.551; stroke-opacity:1; 
stroke-linecap:round; stroke-linejoin:round;">
</g>
<g style="fill:#000000; fill-opacity:0.0; 
stroke:#000000; stroke-width:590.551; stroke-opacity:1; 
stroke-linecap:round; stroke-linejoin:round;">
<path d="M4124 9633
L4124 9121
" />
<path d="M4911 9633
L4911 9121
" />
<path d="M5699 9633
L5699 9121
" />
<path d="M6486 9633
L6486 9121
" />
<path d="M7274 9633
L7274 9121
" />
<path d="M8061 9633
L8061 9121
" />
<path d="M8848 9633
L8848 9121
" />
<path d="M8848 3334
L8848 2822
" />
<path d="M8061 3334
L8061 2822
" />
<path d="M7274 3334
L7274 2822
" />
<path d="M6486 3334
L6486 2822
" />
<path d="M5699 3334
L5699 2822
" />
<path d="M4911 3334
L4911 2822
" />
<path d="M4124 3334
L4124 2822
" />
<path d="M3337 3334
L3337 2822
" />
</g>
<g style="fill:#000000; fill-opacity:0.0; 
stroke:#000000; stroke-width:826.772; stroke-opacity:1; 
stroke-linecap:round; stroke-linejoin:round;">
<path d="M975 15700
L975 15700
" />
</g>
<g style="fill:#000000; fill-opacity:0.0; 
stroke:#000000; stroke-width:0; stroke-opacity:1; 
stroke-linecap:round; stroke-linejoin:round;">
</g>
<g style="fill:#000000; fill-opacity:1.0; 
stroke:#000000; stroke-width:0; stroke-opacity:1; 
stroke-linecap:round; stroke-linejoin:round;">
<polyline style="fill-rule:evenodd;"
points="561,15113
561,14286
1388,14286
1388,15113
561,15113
" /> 
<polyline style="fill-rule:evenodd;"
points="561,12113
561,11286
1388,11286
1388,12113
561,12113
" /> 
</g>
<g style="fill:#000000; fill-opacity:1.0; 
stroke:#000000; stroke-width:826.772; stroke-opacity:1; 
stroke-linecap:round; stroke-linejoin:round;">
</g>
<g style="fill:#000000; fill-opacity:0.0; 
stroke:#000000; stroke-width:826.772; stroke-opacity:1; 
stroke-linecap:round; stroke-linejoin:round;">
<path d="M975 12700
L975 12700
" />
</g>
<g style="fill:#000000; fill-opacity:0.0; 
stroke:#000000; stroke-width:0; stroke-opacity:1; 
stroke-linecap:round; stroke-linejoin:round;">
</g>
<g style="fill:#000000; fill-opacity:1.0; 
stroke:#000000; stroke-width:0; stroke-opacity:1; 
stroke-linecap:round; stroke-linejoin:round;">
<polyline style="fill-rule:evenodd;"
points="3947,14119
3947,14630
3593,14630
3593,14119
3947,14119
" /> 
<polyline style="fill-rule:evenodd;"
points="3356,14119
3356,14630
3002,14630
3002,14119
3356,14119
" /> 
<polyline style="fill-rule:evenodd;"
points="4052,14630
4052,14119
4406,14119
4406,14630
4052,14630
" /> 
<polyline style="fill-rule:evenodd;"
points="4643,14630
4643,14119
4997,14119
4997,14630
4643,14630
" /> 
<polyline style="fill-rule:evenodd;"
points="3356,11369
3356,11880
3002,11880
3002,11369
3356,11369
" /> 
<polyline style="fill-rule:evenodd;"
points="3947,11369
3947,11880
3593,11880
3593,11369
3947,11369
" /> 
<polyline style="fill-rule:evenodd;"
points="4643,11880
4643,11369
4997,11369
4997,11880
4643,11880
" /> 
<polyline style="fill-rule:evenodd;"
points="4052,11880
4052,11369
4406,11369
4406,11880
4052,11880
" /> 
<polyline style="fill-rule:evenodd;"
points="1740,15415
1740,14584
2559,14584
2559,15415
1740,15415
" /> 
<polyline style="fill-rule:evenodd;"
points="1740,16415
1740,15584
2559,15584
2559,16415
1740,16415
" /> 
<polyline style="fill-rule:evenodd;"
points="5440,16415
5440,15584
6259,15584
6259,16415
5440,16415
" /> 
<polyline style="fill-rule:evenodd;"
points="5440,15415
5440,14584
6259,14584
6259,15415
5440,15415
" /> 
<polyline style="fill-rule:evenodd;"
points="5440,12665
5440,11834
6259,11834
6259,12665
5440,12665
" /> 
<polyline style="fill-rule:evenodd;"
points="5440,13665
5440,12834
6259,12834
6259,13665
5440,13665
" /> 
<polyline style="fill-rule:evenodd;"
points="1740,13665
1740,12834
2559,12834
2559,13665
1740,13665
" /> 
<polyline style="fill-rule:evenodd;"
points="1740,12665
1740,11834
2559,11834
2559,12665
1740,12665
" /> 
<polyline style="fill-rule:evenodd;"
points="12184,6417
12184,5787
13208,5787
13208,6417
12184,6417
" /> 
<polyline style="fill-rule:evenodd;"
points="12184,8212
12184,7582
13208,7582
13208,8212
12184,8212
" /> 
<polyline style="fill-rule:evenodd;"
points="13838,8220
13838,5779
16515,5779
16515,8220
13838,8220
" /> 
<polyline style="fill-rule:evenodd;"
points="13838,5420
13838,2979
16515,2979
16515,5420
13838,5420
" /> 
<polyline style="fill-rule:evenodd;"
points="12184,5412
12184,4782
13208,4782
13208,5412
12184,5412
" /> 
<polyline style="fill-rule:evenodd;"
points="12184,3617
12184,2987
13208,2987
13208,3617
12184,3617
" /> 
<polyline style="fill-rule:evenodd;"
points="13838,2620
13838,179
16515,179
16515,2620
13838,2620
" /> 
<polyline style="fill-rule:evenodd;"
points="12184,2612
12184,1982
13208,1982
13208,2612
12184,2612
" /> 
<polyline style="fill-rule:evenodd;"
points="12184,817
12184,187
13208,187
13208,817
12184,817
" /> 
</g> 
</svg>
