<?xml version="1.0" standalone="no"?>
 <!DOCTYPE svg PUBLIC "-//W3C//DTD SVG 1.1//EN" 
 "http://www.w3.org/Graphics/SVG/1.1/DTD/svg11.dtd"> 
<svg xmlns="http://www.w3.org/2000/svg" version="1.1" 
    width="29.7002cm" height="21.0007cm" viewBox="0 0 116930 82680 ">
<title>SVG Picture created as reservoir_controller-B.Cu.svg date 2018/09/20 19:04:20 </title>
  <desc>Picture generated by PCBNEW </desc>
<g style="fill:#000000; fill-opacity:1;stroke:#000000; stroke-opacity:1;
stroke-linecap:round; stroke-linejoin:round; "
 transform="translate(0 0) scale(1 1)">
</g>
<g style="fill:#000000; fill-opacity:0.0; 
stroke:#000000; stroke-width:-0.000393701; stroke-opacity:1; 
stroke-linecap:round; stroke-linejoin:round;">
</g>
<g style="fill:#000000; fill-opacity:1.0; 
stroke:#000000; stroke-width:0; stroke-opacity:1; 
stroke-linecap:round; stroke-linejoin:round;">
<circle cx="393.701" cy="13622" r="157.48" /> 
</g>
<g style="fill:#000000; fill-opacity:1.0; 
stroke:#000000; stroke-width:39.3701; stroke-opacity:1; 
stroke-linecap:round; stroke-linejoin:round;">
</g>
<g style="fill:#000000; fill-opacity:1.0; 
stroke:#000000; stroke-width:0; stroke-opacity:1; 
stroke-linecap:round; stroke-linejoin:round;">
<circle cx="6062.99" cy="13622" r="157.48" /> 
</g>
<g style="fill:#000000; fill-opacity:1.0; 
stroke:#000000; stroke-width:39.3701; stroke-opacity:1; 
stroke-linecap:round; stroke-linejoin:round;">
</g>
<g style="fill:#000000; fill-opacity:1.0; 
stroke:#000000; stroke-width:0; stroke-opacity:1; 
stroke-linecap:round; stroke-linejoin:round;">
<circle cx="4173.23" cy="13622" r="157.48" /> 
</g>
<g style="fill:#000000; fill-opacity:1.0; 
stroke:#000000; stroke-width:39.3701; stroke-opacity:1; 
stroke-linecap:round; stroke-linejoin:round;">
</g>
<g style="fill:#000000; fill-opacity:1.0; 
stroke:#000000; stroke-width:0; stroke-opacity:1; 
stroke-linecap:round; stroke-linejoin:round;">
<circle cx="7952.76" cy="13622" r="157.48" /> 
</g>
<g style="fill:#000000; fill-opacity:1.0; 
stroke:#000000; stroke-width:39.3701; stroke-opacity:1; 
stroke-linecap:round; stroke-linejoin:round;">
</g>
<g style="fill:#000000; fill-opacity:1.0; 
stroke:#000000; stroke-width:0; stroke-opacity:1; 
stroke-linecap:round; stroke-linejoin:round;">
<circle cx="9842.52" cy="13622" r="157.48" /> 
</g>
<g style="fill:#000000; fill-opacity:1.0; 
stroke:#000000; stroke-width:39.3701; stroke-opacity:1; 
stroke-linecap:round; stroke-linejoin:round;">
</g>
<g style="fill:#000000; fill-opacity:1.0; 
stroke:#000000; stroke-width:0; stroke-opacity:1; 
stroke-linecap:round; stroke-linejoin:round;">
<circle cx="13622" cy="15511.8" r="157.48" /> 
</g>
<g style="fill:#000000; fill-opacity:1.0; 
stroke:#000000; stroke-width:39.3701; stroke-opacity:1; 
stroke-linecap:round; stroke-linejoin:round;">
</g>
<g style="fill:#000000; fill-opacity:1.0; 
stroke:#000000; stroke-width:0; stroke-opacity:1; 
stroke-linecap:round; stroke-linejoin:round;">
<circle cx="15511.8" cy="15511.8" r="157.48" /> 
</g>
<g style="fill:#000000; fill-opacity:1.0; 
stroke:#000000; stroke-width:39.3701; stroke-opacity:1; 
stroke-linecap:round; stroke-linejoin:round;">
</g>
<g style="fill:#000000; fill-opacity:1.0; 
stroke:#000000; stroke-width:0; stroke-opacity:1; 
stroke-linecap:round; stroke-linejoin:round;">
<circle cx="15511.8" cy="17401.6" r="157.48" /> 
</g>
<g style="fill:#000000; fill-opacity:1.0; 
stroke:#000000; stroke-width:39.3701; stroke-opacity:1; 
stroke-linecap:round; stroke-linejoin:round;">
</g>
<g style="fill:#000000; fill-opacity:1.0; 
stroke:#000000; stroke-width:0; stroke-opacity:1; 
stroke-linecap:round; stroke-linejoin:round;">
<circle cx="15511.8" cy="19291.3" r="157.48" /> 
</g>
<g style="fill:#000000; fill-opacity:1.0; 
stroke:#000000; stroke-width:39.3701; stroke-opacity:1; 
stroke-linecap:round; stroke-linejoin:round;">
</g>
<g style="fill:#000000; fill-opacity:1.0; 
stroke:#000000; stroke-width:0; stroke-opacity:1; 
stroke-linecap:round; stroke-linejoin:round;">
<circle cx="13622" cy="19291.3" r="157.48" /> 
</g>
<g style="fill:#000000; fill-opacity:1.0; 
stroke:#000000; stroke-width:39.3701; stroke-opacity:1; 
stroke-linecap:round; stroke-linejoin:round;">
</g>
<g style="fill:#000000; fill-opacity:1.0; 
stroke:#000000; stroke-width:0; stroke-opacity:1; 
stroke-linecap:round; stroke-linejoin:round;">
<circle cx="11732.3" cy="19291.3" r="157.48" /> 
</g>
<g style="fill:#000000; fill-opacity:1.0; 
stroke:#000000; stroke-width:39.3701; stroke-opacity:1; 
stroke-linecap:round; stroke-linejoin:round;">
</g>
<g style="fill:#000000; fill-opacity:1.0; 
stroke:#000000; stroke-width:0; stroke-opacity:1; 
stroke-linecap:round; stroke-linejoin:round;">
<circle cx="9842.52" cy="19291.3" r="157.48" /> 
</g>
<g style="fill:#000000; fill-opacity:1.0; 
stroke:#000000; stroke-width:39.3701; stroke-opacity:1; 
stroke-linecap:round; stroke-linejoin:round;">
</g>
<g style="fill:#000000; fill-opacity:1.0; 
stroke:#000000; stroke-width:0; stroke-opacity:1; 
stroke-linecap:round; stroke-linejoin:round;">
<circle cx="7952.76" cy="19291.3" r="157.48" /> 
</g>
<g style="fill:#000000; fill-opacity:1.0; 
stroke:#000000; stroke-width:39.3701; stroke-opacity:1; 
stroke-linecap:round; stroke-linejoin:round;">
</g>
<g style="fill:#000000; fill-opacity:1.0; 
stroke:#000000; stroke-width:0; stroke-opacity:1; 
stroke-linecap:round; stroke-linejoin:round;">
<circle cx="6062.99" cy="19291.3" r="157.48" /> 
</g>
<g style="fill:#000000; fill-opacity:1.0; 
stroke:#000000; stroke-width:39.3701; stroke-opacity:1; 
stroke-linecap:round; stroke-linejoin:round;">
</g>
<g style="fill:#000000; fill-opacity:1.0; 
stroke:#000000; stroke-width:0; stroke-opacity:1; 
stroke-linecap:round; stroke-linejoin:round;">
<circle cx="4173.23" cy="19291.3" r="157.48" /> 
</g>
<g style="fill:#000000; fill-opacity:1.0; 
stroke:#000000; stroke-width:39.3701; stroke-opacity:1; 
stroke-linecap:round; stroke-linejoin:round;">
</g>
<g style="fill:#000000; fill-opacity:1.0; 
stroke:#000000; stroke-width:0; stroke-opacity:1; 
stroke-linecap:round; stroke-linejoin:round;">
<circle cx="4173.23" cy="17401.6" r="157.48" /> 
</g>
<g style="fill:#000000; fill-opacity:1.0; 
stroke:#000000; stroke-width:39.3701; stroke-opacity:1; 
stroke-linecap:round; stroke-linejoin:round;">
</g>
<g style="fill:#000000; fill-opacity:1.0; 
stroke:#000000; stroke-width:0; stroke-opacity:1; 
stroke-linecap:round; stroke-linejoin:round;">
<circle cx="9842.52" cy="15511.8" r="157.48" /> 
</g>
<g style="fill:#000000; fill-opacity:1.0; 
stroke:#000000; stroke-width:39.3701; stroke-opacity:1; 
stroke-linecap:round; stroke-linejoin:round;">
</g>
<g style="fill:#000000; fill-opacity:1.0; 
stroke:#000000; stroke-width:0; stroke-opacity:1; 
stroke-linecap:round; stroke-linejoin:round;">
<circle cx="7952.76" cy="15511.8" r="157.48" /> 
</g>
<g style="fill:#000000; fill-opacity:1.0; 
stroke:#000000; stroke-width:39.3701; stroke-opacity:1; 
stroke-linecap:round; stroke-linejoin:round;">
</g>
<g style="fill:#000000; fill-opacity:1.0; 
stroke:#000000; stroke-width:0; stroke-opacity:1; 
stroke-linecap:round; stroke-linejoin:round;">
<circle cx="4173.23" cy="15511.8" r="157.48" /> 
</g>
<g style="fill:#000000; fill-opacity:1.0; 
stroke:#000000; stroke-width:39.3701; stroke-opacity:1; 
stroke-linecap:round; stroke-linejoin:round;">
</g>
<g style="fill:#000000; fill-opacity:1.0; 
stroke:#000000; stroke-width:0; stroke-opacity:1; 
stroke-linecap:round; stroke-linejoin:round;">
<circle cx="393.701" cy="15511.8" r="157.48" /> 
</g>
<g style="fill:#000000; fill-opacity:1.0; 
stroke:#000000; stroke-width:39.3701; stroke-opacity:1; 
stroke-linecap:round; stroke-linejoin:round;">
</g>
<g style="fill:#000000; fill-opacity:1.0; 
stroke:#000000; stroke-width:0; stroke-opacity:1; 
stroke-linecap:round; stroke-linejoin:round;">
<circle cx="19291.3" cy="11732.3" r="157.48" /> 
</g>
<g style="fill:#000000; fill-opacity:1.0; 
stroke:#000000; stroke-width:39.3701; stroke-opacity:1; 
stroke-linecap:round; stroke-linejoin:round;">
</g>
<g style="fill:#000000; fill-opacity:1.0; 
stroke:#000000; stroke-width:0; stroke-opacity:1; 
stroke-linecap:round; stroke-linejoin:round;">
<circle cx="9842.52" cy="11732.3" r="157.48" /> 
</g>
<g style="fill:#000000; fill-opacity:1.0; 
stroke:#000000; stroke-width:39.3701; stroke-opacity:1; 
stroke-linecap:round; stroke-linejoin:round;">
</g>
<g style="fill:#000000; fill-opacity:1.0; 
stroke:#000000; stroke-width:0; stroke-opacity:1; 
stroke-linecap:round; stroke-linejoin:round;">
<circle cx="7952.76" cy="11732.3" r="157.48" /> 
</g>
<g style="fill:#000000; fill-opacity:1.0; 
stroke:#000000; stroke-width:39.3701; stroke-opacity:1; 
stroke-linecap:round; stroke-linejoin:round;">
</g>
<g style="fill:#000000; fill-opacity:1.0; 
stroke:#000000; stroke-width:0; stroke-opacity:1; 
stroke-linecap:round; stroke-linejoin:round;">
<circle cx="393.701" cy="11732.3" r="157.48" /> 
</g>
<g style="fill:#000000; fill-opacity:1.0; 
stroke:#000000; stroke-width:39.3701; stroke-opacity:1; 
stroke-linecap:round; stroke-linejoin:round;">
</g>
<g style="fill:#000000; fill-opacity:1.0; 
stroke:#000000; stroke-width:0; stroke-opacity:1; 
stroke-linecap:round; stroke-linejoin:round;">
<circle cx="9842.52" cy="9842.52" r="157.48" /> 
</g>
<g style="fill:#000000; fill-opacity:1.0; 
stroke:#000000; stroke-width:39.3701; stroke-opacity:1; 
stroke-linecap:round; stroke-linejoin:round;">
</g>
<g style="fill:#000000; fill-opacity:1.0; 
stroke:#000000; stroke-width:0; stroke-opacity:1; 
stroke-linecap:round; stroke-linejoin:round;">
<circle cx="13622" cy="7952.76" r="157.48" /> 
</g>
<g style="fill:#000000; fill-opacity:1.0; 
stroke:#000000; stroke-width:39.3701; stroke-opacity:1; 
stroke-linecap:round; stroke-linejoin:round;">
</g>
<g style="fill:#000000; fill-opacity:1.0; 
stroke:#000000; stroke-width:0; stroke-opacity:1; 
stroke-linecap:round; stroke-linejoin:round;">
<circle cx="7952.76" cy="7952.76" r="157.48" /> 
</g>
<g style="fill:#000000; fill-opacity:1.0; 
stroke:#000000; stroke-width:39.3701; stroke-opacity:1; 
stroke-linecap:round; stroke-linejoin:round;">
</g>
<g style="fill:#000000; fill-opacity:1.0; 
stroke:#000000; stroke-width:0; stroke-opacity:1; 
stroke-linecap:round; stroke-linejoin:round;">
<circle cx="6062.99" cy="7952.76" r="157.48" /> 
</g>
<g style="fill:#000000; fill-opacity:1.0; 
stroke:#000000; stroke-width:39.3701; stroke-opacity:1; 
stroke-linecap:round; stroke-linejoin:round;">
</g>
<g style="fill:#000000; fill-opacity:1.0; 
stroke:#000000; stroke-width:0; stroke-opacity:1; 
stroke-linecap:round; stroke-linejoin:round;">
<circle cx="4173.23" cy="7952.76" r="157.48" /> 
</g>
<g style="fill:#000000; fill-opacity:1.0; 
stroke:#000000; stroke-width:39.3701; stroke-opacity:1; 
stroke-linecap:round; stroke-linejoin:round;">
</g>
<g style="fill:#000000; fill-opacity:1.0; 
stroke:#000000; stroke-width:0; stroke-opacity:1; 
stroke-linecap:round; stroke-linejoin:round;">
<circle cx="13622" cy="6062.99" r="157.48" /> 
</g>
<g style="fill:#000000; fill-opacity:1.0; 
stroke:#000000; stroke-width:39.3701; stroke-opacity:1; 
stroke-linecap:round; stroke-linejoin:round;">
</g>
<g style="fill:#000000; fill-opacity:1.0; 
stroke:#000000; stroke-width:0; stroke-opacity:1; 
stroke-linecap:round; stroke-linejoin:round;">
<circle cx="7952.76" cy="6062.99" r="157.48" /> 
</g>
<g style="fill:#000000; fill-opacity:1.0; 
stroke:#000000; stroke-width:39.3701; stroke-opacity:1; 
stroke-linecap:round; stroke-linejoin:round;">
</g>
<g style="fill:#000000; fill-opacity:1.0; 
stroke:#000000; stroke-width:0; stroke-opacity:1; 
stroke-linecap:round; stroke-linejoin:round;">
<circle cx="6062.99" cy="6062.99" r="157.48" /> 
</g>
<g style="fill:#000000; fill-opacity:1.0; 
stroke:#000000; stroke-width:39.3701; stroke-opacity:1; 
stroke-linecap:round; stroke-linejoin:round;">
</g>
<g style="fill:#000000; fill-opacity:1.0; 
stroke:#000000; stroke-width:0; stroke-opacity:1; 
stroke-linecap:round; stroke-linejoin:round;">
<circle cx="4173.23" cy="6062.99" r="157.48" /> 
</g>
<g style="fill:#000000; fill-opacity:1.0; 
stroke:#000000; stroke-width:39.3701; stroke-opacity:1; 
stroke-linecap:round; stroke-linejoin:round;">
</g>
<g style="fill:#000000; fill-opacity:1.0; 
stroke:#000000; stroke-width:0; stroke-opacity:1; 
stroke-linecap:round; stroke-linejoin:round;">
<circle cx="13622" cy="4173.23" r="157.48" /> 
</g>
<g style="fill:#000000; fill-opacity:1.0; 
stroke:#000000; stroke-width:39.3701; stroke-opacity:1; 
stroke-linecap:round; stroke-linejoin:round;">
</g>
<g style="fill:#000000; fill-opacity:1.0; 
stroke:#000000; stroke-width:0; stroke-opacity:1; 
stroke-linecap:round; stroke-linejoin:round;">
<circle cx="7952.76" cy="4173.23" r="157.48" /> 
</g>
<g style="fill:#000000; fill-opacity:1.0; 
stroke:#000000; stroke-width:39.3701; stroke-opacity:1; 
stroke-linecap:round; stroke-linejoin:round;">
</g>
<g style="fill:#000000; fill-opacity:1.0; 
stroke:#000000; stroke-width:0; stroke-opacity:1; 
stroke-linecap:round; stroke-linejoin:round;">
<circle cx="6062.99" cy="4173.23" r="157.48" /> 
</g>
<g style="fill:#000000; fill-opacity:1.0; 
stroke:#000000; stroke-width:39.3701; stroke-opacity:1; 
stroke-linecap:round; stroke-linejoin:round;">
</g>
<g style="fill:#000000; fill-opacity:1.0; 
stroke:#000000; stroke-width:0; stroke-opacity:1; 
stroke-linecap:round; stroke-linejoin:round;">
<circle cx="4173.23" cy="4173.23" r="157.48" /> 
</g>
<g style="fill:#000000; fill-opacity:1.0; 
stroke:#000000; stroke-width:39.3701; stroke-opacity:1; 
stroke-linecap:round; stroke-linejoin:round;">
</g>
<g style="fill:#000000; fill-opacity:1.0; 
stroke:#000000; stroke-width:0; stroke-opacity:1; 
stroke-linecap:round; stroke-linejoin:round;">
<circle cx="13622" cy="2283.46" r="157.48" /> 
</g>
<g style="fill:#000000; fill-opacity:1.0; 
stroke:#000000; stroke-width:39.3701; stroke-opacity:1; 
stroke-linecap:round; stroke-linejoin:round;">
</g>
<g style="fill:#000000; fill-opacity:1.0; 
stroke:#000000; stroke-width:0; stroke-opacity:1; 
stroke-linecap:round; stroke-linejoin:round;">
<circle cx="9842.52" cy="2283.46" r="157.48" /> 
</g>
<g style="fill:#000000; fill-opacity:1.0; 
stroke:#000000; stroke-width:39.3701; stroke-opacity:1; 
stroke-linecap:round; stroke-linejoin:round;">
</g>
<g style="fill:#000000; fill-opacity:1.0; 
stroke:#000000; stroke-width:0; stroke-opacity:1; 
stroke-linecap:round; stroke-linejoin:round;">
<circle cx="7952.76" cy="2283.46" r="157.48" /> 
</g>
<g style="fill:#000000; fill-opacity:1.0; 
stroke:#000000; stroke-width:39.3701; stroke-opacity:1; 
stroke-linecap:round; stroke-linejoin:round;">
</g>
<g style="fill:#000000; fill-opacity:1.0; 
stroke:#000000; stroke-width:0; stroke-opacity:1; 
stroke-linecap:round; stroke-linejoin:round;">
<circle cx="13622" cy="393.701" r="157.48" /> 
</g>
<g style="fill:#000000; fill-opacity:1.0; 
stroke:#000000; stroke-width:39.3701; stroke-opacity:1; 
stroke-linecap:round; stroke-linejoin:round;">
</g>
<g style="fill:#000000; fill-opacity:1.0; 
stroke:#000000; stroke-width:0; stroke-opacity:1; 
stroke-linecap:round; stroke-linejoin:round;">
<circle cx="9842.52" cy="393.701" r="157.48" /> 
</g>
<g style="fill:#000000; fill-opacity:1.0; 
stroke:#000000; stroke-width:39.3701; stroke-opacity:1; 
stroke-linecap:round; stroke-linejoin:round;">
</g>
<g style="fill:#000000; fill-opacity:1.0; 
stroke:#000000; stroke-width:0; stroke-opacity:1; 
stroke-linecap:round; stroke-linejoin:round;">
<circle cx="7952.76" cy="393.701" r="157.48" /> 
</g>
<g style="fill:#000000; fill-opacity:1.0; 
stroke:#000000; stroke-width:39.3701; stroke-opacity:1; 
stroke-linecap:round; stroke-linejoin:round;">
</g>
<g style="fill:#000000; fill-opacity:1.0; 
stroke:#000000; stroke-width:669.291; stroke-opacity:1; 
stroke-linecap:round; stroke-linejoin:round;">
</g>
<g style="fill:#000000; fill-opacity:0.0; 
stroke:#000000; stroke-width:669.291; stroke-opacity:1; 
stroke-linecap:round; stroke-linejoin:round;">
<path d="M3975 1700
L3975 1700
" />
<path d="M3975 700
L3975 700
" />
<path d="M4975 1700
L4975 1700
" />
<path d="M4975 700
L4975 700
" />
<path d="M5975 1700
L5975 1700
" />
</g>
<g style="fill:#000000; fill-opacity:0.0; 
stroke:#000000; stroke-width:0; stroke-opacity:1; 
stroke-linecap:round; stroke-linejoin:round;">
</g>
<g style="fill:#000000; fill-opacity:1.0; 
stroke:#000000; stroke-width:0; stroke-opacity:1; 
stroke-linecap:round; stroke-linejoin:round;">
<polyline style="fill-rule:evenodd;"
points="5640,365
6309,365
6309,1034
5640,1034
5640,365
" /> 
<polyline style="fill-rule:evenodd;"
points="18640,10034
18640,9365
19309,9365
19309,10034
18640,10034
" /> 
</g>
<g style="fill:#000000; fill-opacity:1.0; 
stroke:#000000; stroke-width:669.291; stroke-opacity:1; 
stroke-linecap:round; stroke-linejoin:round;">
</g>
<g style="fill:#000000; fill-opacity:0.0; 
stroke:#000000; stroke-width:669.291; stroke-opacity:1; 
stroke-linecap:round; stroke-linejoin:round;">
<path d="M18975 10700
L18975 10700
" />
<path d="M18975 7700
L18975 7700
" />
</g>
<g style="fill:#000000; fill-opacity:0.0; 
stroke:#000000; stroke-width:0; stroke-opacity:1; 
stroke-linecap:round; stroke-linejoin:round;">
</g>
<g style="fill:#000000; fill-opacity:1.0; 
stroke:#000000; stroke-width:0; stroke-opacity:1; 
stroke-linecap:round; stroke-linejoin:round;">
<polyline style="fill-rule:evenodd;"
points="18640,7034
18640,6365
19309,6365
19309,7034
18640,7034
" /> 
<polyline style="fill-rule:evenodd;"
points="18640,4034
18640,3365
19309,3365
19309,4034
18640,4034
" /> 
</g>
<g style="fill:#000000; fill-opacity:1.0; 
stroke:#000000; stroke-width:669.291; stroke-opacity:1; 
stroke-linecap:round; stroke-linejoin:round;">
</g>
<g style="fill:#000000; fill-opacity:0.0; 
stroke:#000000; stroke-width:669.291; stroke-opacity:1; 
stroke-linecap:round; stroke-linejoin:round;">
<path d="M18975 4700
L18975 4700
" />
</g>
<g style="fill:#000000; fill-opacity:0.0; 
stroke:#000000; stroke-width:0; stroke-opacity:1; 
stroke-linecap:round; stroke-linejoin:round;">
</g>
<g style="fill:#000000; fill-opacity:1.0; 
stroke:#000000; stroke-width:0; stroke-opacity:1; 
stroke-linecap:round; stroke-linejoin:round;">
<polyline style="fill-rule:evenodd;"
points="19309,15365
19309,16034
18640,16034
18640,15365
19309,15365
" /> 
</g>
<g style="fill:#000000; fill-opacity:1.0; 
stroke:#000000; stroke-width:669.291; stroke-opacity:1; 
stroke-linecap:round; stroke-linejoin:round;">
</g>
<g style="fill:#000000; fill-opacity:0.0; 
stroke:#000000; stroke-width:669.291; stroke-opacity:1; 
stroke-linecap:round; stroke-linejoin:round;">
<path d="M18975 14700
L18975 14700
" />
<path d="M975 15700
L975 15700
" />
</g>
<g style="fill:#000000; fill-opacity:0.0; 
stroke:#000000; stroke-width:0; stroke-opacity:1; 
stroke-linecap:round; stroke-linejoin:round;">
</g>
<g style="fill:#000000; fill-opacity:1.0; 
stroke:#000000; stroke-width:0; stroke-opacity:1; 
stroke-linecap:round; stroke-linejoin:round;">
<polyline style="fill-rule:evenodd;"
points="640,15034
640,14365
1309,14365
1309,15034
640,15034
" /> 
<polyline style="fill-rule:evenodd;"
points="640,12034
640,11365
1309,11365
1309,12034
640,12034
" /> 
</g>
<g style="fill:#000000; fill-opacity:1.0; 
stroke:#000000; stroke-width:669.291; stroke-opacity:1; 
stroke-linecap:round; stroke-linejoin:round;">
</g>
<g style="fill:#000000; fill-opacity:0.0; 
stroke:#000000; stroke-width:669.291; stroke-opacity:1; 
stroke-linecap:round; stroke-linejoin:round;">
<path d="M975 12700
L975 12700
" />
</g>
<g style="fill:#000000; fill-opacity:1.0; 
stroke:#000000; stroke-width:0; stroke-opacity:1; 
stroke-linecap:round; stroke-linejoin:round;">
<circle cx="7775" cy="1750" r="157.48" /> 
</g>
<g style="fill:#000000; fill-opacity:1.0; 
stroke:#000000; stroke-width:39.3701; stroke-opacity:1; 
stroke-linecap:round; stroke-linejoin:round;">
</g>
<g style="fill:#000000; fill-opacity:1.0; 
stroke:#000000; stroke-width:0; stroke-opacity:1; 
stroke-linecap:round; stroke-linejoin:round;">
<circle cx="3775" cy="13100" r="157.48" /> 
</g>
<g style="fill:#000000; fill-opacity:1.0; 
stroke:#000000; stroke-width:39.3701; stroke-opacity:1; 
stroke-linecap:round; stroke-linejoin:round;">
</g>
<g style="fill:#000000; fill-opacity:1.0; 
stroke:#000000; stroke-width:0; stroke-opacity:1; 
stroke-linecap:round; stroke-linejoin:round;">
<circle cx="11700" cy="13100" r="157.48" /> 
</g>
<g style="fill:#000000; fill-opacity:1.0; 
stroke:#000000; stroke-width:39.3701; stroke-opacity:1; 
stroke-linecap:round; stroke-linejoin:round;">
</g>
<g style="fill:#000000; fill-opacity:1.0; 
stroke:#000000; stroke-width:393.701; stroke-opacity:1; 
stroke-linecap:round; stroke-linejoin:round;">
</g>
<g style="fill:#000000; fill-opacity:0.0; 
stroke:#000000; stroke-width:393.701; stroke-opacity:1; 
stroke-linecap:round; stroke-linejoin:round;">
<path d="M18975 14700
L17300 13025
" />
<path d="M17300 6375
L18975 4700
" />
<path d="M17300 7700
L17300 6375
" />
<path d="M18975 7700
L17300 7700
" />
<path d="M17300 10700
L17300 7700
" />
<path d="M18975 10700
L17300 10700
" />
<path d="M17300 13025
L17300 10700
" />
</g>
<g style="fill:#000000; fill-opacity:0.0; 
stroke:#000000; stroke-width:196.85; stroke-opacity:1; 
stroke-linecap:round; stroke-linejoin:round;">
<path d="M6025 1750
L5975 1700
" />
<path d="M7775 1750
L6025 1750
" />
<path d="M10250 1750
L7775 1750
" />
<path d="M11700 3200
L10250 1750
" />
<path d="M4200 13100
L3775 13100
" />
<path d="M11700 13100
L4200 13100
" />
<path d="M11700 13100
L11700 3200
" />
</g>
<g style="fill:#000000; fill-opacity:1.0; 
stroke:#000000; stroke-width:100; stroke-opacity:1; 
stroke-linecap:round; stroke-linejoin:round;">
<polyline style="fill-rule:evenodd;"
points="17378,216
17174,420
17013,660
16903,927
16846,1211
16846,1500
16903,1783
17013,2050
17174,2291
17378,2495
17619,2656
17886,2766
18169,2823
18458,2823
18742,2766
19009,2656
19249,2495
19453,2291
19505,2214
19505,17426
19453,17349
19249,17145
19009,16984
18742,16874
18458,16817
18169,16817
17886,16874
17619,16984
17378,17145
17174,17349
17013,17590
16903,17857
16846,18140
16846,18429
16903,18713
17013,18980
17174,19220
17378,19424
17499,19505
2199,19505
2320,19424
2524,19220
2685,18980
2795,18713
2852,18429
2852,18140
2795,17857
2685,17590
2524,17349
2320,17145
2080,16984
1813,16874
1529,16817
1240,16817
957,16874
690,16984
449,17145
245,17349
179,17448
179,15700
488,15700
497,15795
525,15886
570,15970
630,16044
704,16104
788,16149
879,16177
951,16184
998,16184
1070,16177
1161,16149
1245,16104
1319,16044
1379,15970
1424,15886
1452,15795
1453,15787
18490,15787
18490,16049
18496,16078
18507,16105
18523,16130
18544,16151
18569,16167
18596,16178
18625,16184
18887,16184
18925,16147
18925,15750
19025,15750
19025,16147
19062,16184
19324,16184
19353,16178
19380,16167
19405,16151
19426,16130
19442,16105
19453,16078
19459,16049
19459,15787
19422,15750
19025,15750
18925,15750
18527,15750
18490,15787
1453,15787
1461,15700
1452,15604
1424,15513
1379,15429
1319,15355
1313,15350
18490,15350
18490,15612
18527,15650
18925,15650
18925,15252
19025,15252
19025,15650
19422,15650
19459,15612
19459,15350
19453,15321
19442,15294
19426,15269
19405,15248
19380,15232
19353,15221
19324,15215
19062,15215
19025,15252
18925,15252
18887,15215
18625,15215
18596,15221
18569,15232
18544,15248
18523,15269
18507,15294
18496,15321
18490,15350
1313,15350
1245,15295
1161,15250
1070,15222
998,15215
951,15215
879,15222
788,15250
704,15295
630,15355
570,15429
525,15513
497,15604
488,15700
179,15700
179,14787
490,14787
490,15049
496,15078
507,15105
523,15130
544,15151
569,15167
596,15178
625,15184
887,15184
925,15147
925,14750
1025,14750
1025,15147
1062,15184
1324,15184
1353,15178
1380,15167
1405,15151
1426,15130
1442,15105
1453,15078
1459,15049
1459,14787
1422,14750
1025,14750
925,14750
527,14750
490,14787
179,14787
179,14350
490,14350
490,14612
527,14650
925,14650
925,14252
1025,14252
1025,14650
1422,14650
1459,14612
1459,14350
1453,14321
1442,14294
1426,14269
1405,14248
1380,14232
1353,14221
1324,14215
1062,14215
1025,14252
925,14252
887,14215
625,14215
596,14221
569,14232
544,14248
523,14269
507,14294
496,14321
490,14350
179,14350
179,12700
488,12700
497,12795
525,12886
570,12970
630,13044
704,13104
788,13149
879,13177
951,13184
998,13184
1070,13177
1161,13149
1245,13104
1288,13069
3467,13069
3467,13130
3479,13189
3502,13245
3536,13296
3578,13338
3629,13372
3685,13395
3744,13407
3805,13407
3864,13395
3920,13372
3956,13348
11518,13348
11554,13372
11610,13395
11669,13407
11730,13407
11789,13395
11845,13372
11896,13338
11938,13296
11972,13245
11995,13189
12007,13130
12007,13069
11995,13010
11972,12954
11948,12918
11948,6375
16951,6375
16953,6392
16953,7682
16951,7700
16953,7717
16953,10682
16951,10700
16953,10717
16953,13007
16951,13025
16953,13042
16953,13042
16958,13092
16975,13148
16978,13158
17010,13218
17024,13236
17053,13271
17066,13282
18488,14703
18497,14795
18525,14886
18570,14970
18630,15044
18704,15104
18788,15149
18879,15177
18951,15184
18998,15184
19070,15177
19161,15149
19245,15104
19319,15044
19379,14970
19424,14886
19452,14795
19461,14700
19452,14604
19424,14513
19379,14429
19319,14355
19245,14295
19161,14250
19070,14222
18998,14215
18980,14215
17646,12881
17646,11046
18633,11046
18704,11104
18788,11149
18879,11177
18951,11184
18998,11184
19070,11177
19161,11149
19245,11104
19319,11044
19379,10970
19424,10886
19452,10795
19461,10700
19452,10604
19424,10513
19379,10429
19319,10355
19245,10295
19161,10250
19070,10222
18998,10215
18951,10215
18879,10222
18788,10250
18704,10295
18633,10353
17646,10353
17646,9365
18489,9365
18489,10034
18492,10064
18501,10092
18515,10118
18533,10141
18556,10159
18582,10173
18610,10182
18640,10185
19309,10185
19339,10182
19367,10173
19393,10159
19416,10141
19434,10118
19448,10092
19457,10064
19460,10034
19460,9365
19457,9335
19448,9307
19434,9281
19416,9258
19393,9240
19367,9226
19339,9217
19309,9214
18640,9214
18610,9217
18582,9226
18556,9240
18533,9258
18515,9281
18501,9307
18492,9335
18489,9365
17646,9365
17646,8046
18633,8046
18704,8104
18788,8149
18879,8177
18951,8184
18998,8184
19070,8177
19161,8149
19245,8104
19319,8044
19379,7970
19424,7886
19452,7795
19461,7700
19452,7604
19424,7513
19379,7429
19319,7355
19245,7295
19161,7250
19070,7222
18998,7215
18951,7215
18879,7222
18788,7250
18704,7295
18633,7353
17646,7353
17646,6518
17800,6365
18489,6365
18489,7034
18492,7064
18501,7092
18515,7118
18533,7141
18556,7159
18582,7173
18610,7182
18640,7185
19309,7185
19339,7182
19367,7173
19393,7159
19416,7141
19434,7118
19448,7092
19457,7064
19460,7034
19460,6365
19457,6335
19448,6307
19434,6281
19416,6258
19393,6240
19367,6226
19339,6217
19309,6214
18640,6214
18610,6217
18582,6226
18556,6240
18533,6258
18515,6281
18501,6307
18492,6335
18489,6365
17800,6365
18980,5184
18998,5184
19070,5177
19161,5149
19245,5104
19319,5044
19379,4970
19424,4886
19452,4795
19461,4700
19452,4604
19424,4513
19379,4429
19319,4355
19245,4295
19161,4250
19070,4222
18998,4215
18951,4215
18879,4222
18788,4250
18704,4295
18630,4355
18570,4429
18525,4513
18497,4604
18488,4696
17066,6117
17053,6128
17042,6141
17010,6181
16978,6241
16958,6307
16951,6375
11948,6375
11948,3365
18489,3365
18489,4034
18492,4064
18501,4092
18515,4118
18533,4141
18556,4159
18582,4173
18610,4182
18640,4185
19309,4185
19339,4182
19367,4173
19393,4159
19416,4141
19434,4118
19448,4092
19457,4064
19460,4034
19460,3365
19457,3335
19448,3307
19434,3281
19416,3258
19393,3240
19367,3226
19339,3217
19309,3214
18640,3214
18610,3217
18582,3226
18556,3240
18533,3258
18515,3281
18501,3307
18492,3335
18489,3365
11948,3365
11948,3212
11949,3200
11944,3151
11930,3104
11907,3061
11884,3032
11884,3032
11876,3023
11867,3015
10434,1582
10426,1573
10388,1542
10345,1519
10298,1505
10262,1501
10262,1501
10250,1500
10237,1501
7956,1501
7920,1477
7864,1454
7805,1442
7744,1442
7685,1454
7629,1477
7593,1501
6418,1501
6379,1429
6319,1355
6245,1295
6161,1250
6070,1222
5998,1215
5951,1215
5879,1222
5788,1250
5704,1295
5630,1355
5570,1429
5525,1513
5497,1604
5488,1700
5497,1795
5525,1886
5570,1970
5630,2044
5704,2104
5788,2149
5879,2177
5951,2184
5998,2184
6070,2177
6161,2149
6245,2104
6319,2044
6357,1998
7593,1998
7629,2022
7685,2045
7744,2057
7805,2057
7864,2045
7920,2022
7956,1998
10147,1998
11451,3302
11451,12851
3956,12851
3920,12827
3864,12804
3805,12792
3744,12792
3685,12804
3629,12827
3578,12861
3536,12903
3502,12954
3479,13010
3467,13069
1288,13069
1319,13044
1379,12970
1424,12886
1452,12795
1461,12700
1452,12604
1424,12513
1379,12429
1319,12355
1245,12295
1161,12250
1070,12222
998,12215
951,12215
879,12222
788,12250
704,12295
630,12355
570,12429
525,12513
497,12604
488,12700
179,12700
179,11787
490,11787
490,12049
496,12078
507,12105
523,12130
544,12151
569,12167
596,12178
625,12184
887,12184
925,12147
925,11750
1025,11750
1025,12147
1062,12184
1324,12184
1353,12178
1380,12167
1405,12151
1426,12130
1442,12105
1453,12078
1459,12049
1459,11787
1422,11750
1025,11750
925,11750
527,11750
490,11787
179,11787
179,11550
490,11550
490,11612
527,11650
925,11650
925,11642
1025,11642
1025,11650
1422,11650
1459,11612
1459,11550
2725,11550
2744,11546
2760,11535
2771,11519
2775,11500
2775,1834
2795,1783
2812,1700
3488,1700
3497,1795
3525,1886
3570,1970
3630,2044
3704,2104
3788,2149
3879,2177
3951,2184
3998,2184
4070,2177
4161,2149
4245,2104
4319,2044
4379,1970
4424,1886
4452,1795
4461,1700
4488,1700
4497,1795
4525,1886
4570,1970
4630,2044
4704,2104
4788,2149
4879,2177
4951,2184
4998,2184
5070,2177
5161,2149
5245,2104
5319,2044
5379,1970
5424,1886
5452,1795
5461,1700
5452,1604
5424,1513
5379,1429
5319,1355
5245,1295
5161,1250
5070,1222
4998,1215
4951,1215
4879,1222
4788,1250
4704,1295
4630,1355
4570,1429
4525,1513
4497,1604
4488,1700
4461,1700
4452,1604
4424,1513
4379,1429
4319,1355
4245,1295
4161,1250
4070,1222
3998,1215
3951,1215
3879,1222
3788,1250
3704,1295
3630,1355
3570,1429
3525,1513
3497,1604
3488,1700
2812,1700
2852,1500
2852,1211
2795,927
2775,877
2775,700
3488,700
3497,795
3525,886
3570,970
3630,1044
3704,1104
3788,1149
3879,1177
3951,1184
3998,1184
4070,1177
4161,1149
4245,1104
4319,1044
4379,970
4424,886
4443,824
4506,824
4540,913
4590,994
4654,1063
4732,1119
4818,1158
4850,1168
4925,1144
4925,750
5025,750
5025,1144
5099,1168
5131,1158
5217,1119
5295,1063
5359,994
5409,913
5443,824
5419,750
5025,750
4925,750
4530,750
4506,824
4443,824
4452,795
4461,700
4452,604
4443,575
4506,575
4530,650
4925,650
4925,255
5025,255
5025,650
5419,650
5443,575
5409,486
5359,405
5322,365
5489,365
5489,1034
5492,1064
5501,1092
5515,1118
5533,1141
5556,1159
5582,1173
5610,1182
5640,1185
6309,1185
6339,1182
6367,1173
6393,1159
6416,1141
6434,1118
6448,1092
6457,1064
6460,1034
6460,365
6457,335
6448,307
6434,281
6416,258
6393,240
6367,226
6339,217
6309,214
5640,214
5610,217
5582,226
5556,240
5533,258
5515,281
5501,307
5492,335
5489,365
5322,365
5295,336
5217,280
5131,241
5099,231
5025,255
4925,255
4850,231
4818,241
4732,280
4654,336
4590,405
4540,486
4506,575
4443,575
4424,513
4379,429
4319,355
4245,295
4161,250
4070,222
3998,215
3951,215
3879,222
3788,250
3704,295
3630,355
3570,429
3525,513
3497,604
3488,700
2775,700
2775,179
17433,179
17378,216
" /> 
</g> 
</svg>
